{
.appVersion = "3134";
.formatVersion = 3;
DisplayStrings = (
"nn/Placeholder noniehnon/Placeholder oo
abcnenpijlnlmfnknindnefgnnhtij.,klmno
pqnrntstnnunvqnan
wuexitnyz
/.notdef 
hand lettered resistance
 
resistance
free palestine
schoolhouse"
);
axes = (
{
name = Weight;
tag = wght;
}
);
date = "2021-11-10 02:19:54 +0000";
familyName = "Sunday AC Hand";
fontMaster = (
{
axesValues = (
20
);
guides = (
{
angle = 45;
pos = (-23,186);
},
{
angle = 45;
pos = (-23,186);
},
{
angle = 45;
pos = (-10,173);
},
{
angle = 45;
pos = (-23,186);
}
);
id = m01;
metricValues = (
{
over = 16;
pos = 700;
},
{
over = 16;
pos = 700;
},
{
over = 16;
pos = 500;
},
{
over = -16;
},
{
over = -16;
pos = -200;
},
{
over = -16;
pos = 20;
}
);
name = Thin;
userData = {
GSOffsetHorizontal = 10;
GSOffsetKeepCompatible = 1;
GSOffsetMakeStroke = 1;
GSOffsetPosition = 1;
GSOffsetVertical = 10;
};
visible = 1;
},
{
axesValues = (
120
);
iconName = Bold;
id = m002;
metricValues = (
{
over = 16;
pos = 700;
},
{
over = 16;
pos = 700;
},
{
over = 16;
pos = 500;
},
{
over = -16;
},
{
over = -16;
pos = -200;
},
{
over = -16;
pos = 20;
}
);
name = Bold;
userData = {
GSOffsetCapStyle = 3;
GSOffsetHorizontal = 50;
GSOffsetKeepCompatible = 1;
GSOffsetVertical = 50;
};
}
);
glyphs = (
{
glyphname = a;
lastChange = "2021-11-12 06:21:05 +0000";
layers = (
{
background = {
shapes = (
{
closed = 1;
nodes = (
(578,486,o),
(572,488,o),
(567,489,o),
(565,489,q),
(565,495,l),
(567,500,l),
(570,498,o),
(576,498,o),
(581,496,o),
(583,495,q),
(581,489,l),
(579,484,l)
);
},
{
closed = 1;
nodes = (
(563,489,o),
(488,489,o),
(470,488,o),
(417,484,o),
(381,471,o),
(363,463,q),
(360,468,l),
(358,473,l),
(372,480,o),
(401,489,o),
(433,496,o),
(458,500,o),
(494,500,o),
(517,500,o),
(556,500,o),
(565,500,q),
(565,495,l),
(565,489,l)
);
},
{
closed = 1;
nodes = (
(315,438,o),
(197,321,o),
(171,275,qs),
(163,263,o),
(142,211,o),
(135,197,q),
(129,200,l),
(126,202,l),
(131,214,o),
(153,268,o),
(160,280,qs),
(188,329,o),
(308,446,o),
(358,473,q),
(360,468,l),
(363,463,l)
);
},
{
closed = 1;
nodes = (
(129,170,o),
(129,100,qs),
(129,68,o),
(135,63,qs),
(144,52,o),
(188,48,o),
(201,52,qs),
(215,56,o),
(256,81,q),
(258,77,l),
(262,72,l),
(221,47,o),
(204,41,qs),
(151,27,o),
(126,56,q),
(117,63,o),
(117,100,qs),
(117,172,o),
(124,202,q),
(129,200,l),
(135,198,l)
);
},
{
closed = 1;
nodes = (
(353,143,o),
(462,286,qs),
(472,298,o),
(497,336,o),
(522,371,o),
(533,386,q),
(536,382,l),
(542,379,l),
(528,361,o),
(483,293,o),
(470,279,qs),
(360,134,o),
(262,72,q),
(258,77,l),
(254,81,l)
);
},
{
closed = 1;
nodes = (
(535,388,o),
(540,395,o),
(544,400,o),
(549,405,o),
(551,409,qs),
(553,413,o),
(561,423,o),
(567,432,o),
(572,441,o),
(574,454,o),
(578,466,o),
(581,473,q),
(583,475,o),
(586,480,o),
(592,488,o),
(592,489,qs),
(592,495,l),
(592,500,l),
(604,500,o),
(604,489,qs),
(604,486,o),
(590,466,qs),
(586,463,o),
(583,439,o),
(579,432,qs),
(576,425,o),
(560,404,o),
(560,402,q),
(556,398,o),
(551,391,o),
(544,380,o),
(542,379,q),
(536,382,l),
(533,384,l)
);
},
{
closed = 1;
nodes = (
(585,486,o),
(569,473,o),
(558,463,o),
(542,439,o),
(536,430,o),
(519,402,o),
(517,398,qs),
(494,359,o),
(438,282,q),
(433,286,l),
(429,289,l),
(485,364,o),
(508,404,qs),
(510,407,o),
(526,436,o),
(533,446,o),
(549,470,o),
(561,482,o),
(579,495,o),
(590,500,q),
(592,495,l),
(594,489,l)
);
},
{
closed = 1;
nodes = (
(410,232,o),
(381,177,o),
(353,84,o),
(353,45,q),
(347,45,l),
(342,45,l),
(342,86,o),
(372,182,o),
(399,238,o),
(428,289,q),
(433,286,l),
(438,284,l)
);
},
{
closed = 1;
nodes = (
(358,0,o),
(358,-2,q),
(367,-23,o),
(403,-36,o),
(442,-25,o),
(462,-11,q),
(463,-14,l),
(467,-19,l),
(447,-34,o),
(404,-48,o),
(358,-34,o),
(349,-5,q),
(347,-3,o),
(342,45,q),
(347,45,l),
(353,47,l)
);
},
{
closed = 1;
nodes = (
(510,23,o),
(560,82,q),
(563,79,l),
(569,75,l),
(517,14,o),
(467,-19,q),
(463,-14,l),
(462,-11,l)
);
}
);
};
layerId = m01;
shapes = (
{
closed = 1;
nodes = (
(478,-8,o),
(434,-28,o),
(404,-28,cs),
(368,-28,o),
(337,-7,o),
(337,55,cs),
(337,141,o),
(406,286,o),
(597,504,c),
(581,516,l),
(388,296,o),
(316,145,o),
(316,55,cs),
(316,-16,o),
(359,-48,o),
(404,-48,cs),
(442,-48,o),
(484,-28,o),
(536,24,cs),
(708,196,l),
(695,209,l),
(523,37,ls)
);
},
{
closed = 1;
nodes = (
(285,76,l),
(238,42,o),
(194,22,o),
(158,22,cs),
(106,22,o),
(65,54,o),
(65,141,cs),
(65,296,o),
(239,536,o),
(626,536,c),
(626,556,l),
(226,556,o),
(45,304,o),
(45,141,cs),
(45,47,o),
(98,2,o),
(158,2,cs),
(198,2,o),
(246,24,o),
(297,60,c)
);
}
);
width = 695;
},
{
background = {
shapes = (
{
closed = 1;
nodes = (
(492,486,o),
(486,488,o),
(481,489,o),
(479,489,q),
(479,495,l),
(481,500,l),
(484,498,o),
(490,498,o),
(495,496,o),
(497,495,q),
(495,489,l),
(493,484,l)
);
},
{
closed = 1;
nodes = (
(477,489,o),
(402,489,o),
(384,488,o),
(331,484,o),
(295,471,o),
(277,463,q),
(274,468,l),
(272,473,l),
(286,480,o),
(315,489,o),
(347,496,o),
(372,500,o),
(408,500,o),
(431,500,o),
(470,500,o),
(479,500,q),
(479,495,l),
(479,489,l)
);
},
{
closed = 1;
nodes = (
(229,438,o),
(111,321,o),
(85,275,qs),
(77,263,o),
(56,211,o),
(49,197,q),
(43,200,l),
(40,202,l),
(45,214,o),
(67,268,o),
(74,280,qs),
(102,329,o),
(222,446,o),
(272,473,q),
(274,468,l),
(277,463,l)
);
},
{
closed = 1;
nodes = (
(43,170,o),
(43,100,qs),
(43,68,o),
(49,63,qs),
(58,52,o),
(102,48,o),
(115,52,qs),
(129,56,o),
(170,81,q),
(172,77,l),
(176,72,l),
(135,47,o),
(118,41,qs),
(65,27,o),
(40,56,q),
(31,63,o),
(31,100,qs),
(31,172,o),
(38,202,q),
(43,200,l),
(49,198,l)
);
},
{
closed = 1;
nodes = (
(267,143,o),
(376,286,qs),
(386,298,o),
(411,336,o),
(436,371,o),
(447,386,q),
(450,382,l),
(456,379,l),
(442,361,o),
(397,293,o),
(384,279,qs),
(274,134,o),
(176,72,q),
(172,77,l),
(168,81,l)
);
},
{
closed = 1;
nodes = (
(449,388,o),
(454,395,o),
(458,400,o),
(463,405,o),
(465,409,qs),
(467,413,o),
(475,423,o),
(481,432,o),
(486,441,o),
(488,454,o),
(492,466,o),
(495,473,q),
(497,475,o),
(500,480,o),
(506,488,o),
(506,489,qs),
(506,495,l),
(506,500,l),
(518,500,o),
(518,489,qs),
(518,486,o),
(504,466,qs),
(500,463,o),
(497,439,o),
(493,432,qs),
(490,425,o),
(474,404,o),
(474,402,q),
(470,398,o),
(465,391,o),
(458,380,o),
(456,379,q),
(450,382,l),
(447,384,l)
);
},
{
closed = 1;
nodes = (
(499,486,o),
(483,473,o),
(472,463,o),
(456,439,o),
(450,430,o),
(433,402,o),
(431,398,qs),
(408,359,o),
(352,282,q),
(347,286,l),
(343,289,l),
(399,364,o),
(422,404,qs),
(424,407,o),
(440,436,o),
(447,446,o),
(463,470,o),
(475,482,o),
(493,495,o),
(504,500,q),
(506,495,l),
(508,489,l)
);
},
{
closed = 1;
nodes = (
(324,232,o),
(295,177,o),
(267,84,o),
(267,45,q),
(261,45,l),
(256,45,l),
(256,86,o),
(286,182,o),
(313,238,o),
(342,289,q),
(347,286,l),
(352,284,l)
);
},
{
closed = 1;
nodes = (
(272,0,o),
(272,-2,q),
(281,-23,o),
(317,-36,o),
(356,-25,o),
(376,-11,q),
(377,-14,l),
(381,-19,l),
(361,-34,o),
(318,-48,o),
(272,-34,o),
(263,-5,q),
(261,-3,o),
(256,45,q),
(261,45,l),
(267,47,l)
);
},
{
closed = 1;
nodes = (
(424,23,o),
(474,82,q),
(477,79,l),
(483,75,l),
(431,14,o),
(381,-19,q),
(377,-14,l),
(376,-11,l)
);
}
);
};
layerId = m002;
shapes = (
{
closed = 1;
nodes = (
(374,301,o),
(217,102,o),
(139,102,cs),
(125,102,o),
(119,110,o),
(119,124,cs),
(119,265,o),
(287,481,o),
(525,441,c),
(584,436,l),
(602,548,l),
(545,560,l),
(231,612,o),
(-1,319,o),
(-1,121,cs),
(-1,27,o),
(61,-18,o),
(122,-18,cs),
(273,-18,o),
(472,226,o),
(601,457,cs),
(630,509,l),
(525,568,l),
(495,515,ls)
);
},
{
closed = 1;
nodes = (
(398,42,o),
(373,22,o),
(364,22,cs),
(355,22,o),
(350,29,o),
(350,39,cs),
(350,116,o),
(388,217,o),
(551,434,cs),
(587,482,l),
(491,554,l),
(455,506,ls),
(278,270,o),
(230,140,o),
(230,35,cs),
(230,-47,o),
(286,-98,o),
(351,-98,cs),
(410,-98,o),
(469,-54,o),
(551,39,cs),
(592,85,l),
(501,164,l),
(463,119,ls)
);
}
);
width = 569;
}
);
unicode = 97;
},
{
glyphname = b;
lastChange = "2021-11-11 00:49:48 +0000";
layers = (
{
background = {
shapes = (
{
closed = 1;
nodes = (
(187,708,l),
(167,706,l),
(201,77,l),
(221,79,l)
);
},
{
closed = 1;
nodes = (
(220,165,o),
(137,128,o),
(137,67,cs),
(137,23,o),
(176,-10,o),
(230,-10,cs),
(324,-10,o),
(489,129,o),
(489,358,cs),
(489,450,o),
(453,484,o),
(404,484,cs),
(287,484,o),
(141,325,o),
(168,131,cs),
(169,121,l),
(189,123,l),
(188,133,ls),
(163,317,o),
(297,464,o),
(404,464,cs),
(443,464,o),
(469,440,o),
(469,358,cs),
(469,139,o),
(314,10,o),
(230,10,cs),
(184,10,o),
(157,34,o),
(157,67,cs),
(157,114,o),
(224,143,o),
(331,112,cs),
(341,110,l),
(346,129,l),
(337,132,ls)
);
}
);
};
layerId = m01;
shapes = (
{
closed = 1;
nodes = (
(304,714,l),
(283,720,l),
(55,79,l),
(76,73,l)
);
},
{
closed = 1;
nodes = (
(230,392,l),
(294,464,o),
(347,496,o),
(395,496,cs),
(440,496,o),
(474,464,o),
(474,391,cs),
(474,226,o),
(268,4,o),
(145,4,cs),
(103,4,o),
(64,19,o),
(30,61,c),
(15,48,l),
(54,4,o),
(98,-16,o),
(147,-16,cs),
(282,-16,o),
(495,217,o),
(495,391,cs),
(495,473,o),
(455,516,o),
(395,516,cs),
(342,516,o),
(282,481,o),
(214,404,c)
);
}
);
width = 518;
},
{
background = {
shapes = (
{
closed = 1;
nodes = (
(171,670,l),
(166,670,l),
(160,672,l),
(164,691,l),
(169,689,l),
(175,687,l)
);
},
{
closed = 1;
nodes = (
(171,661,o),
(175,636,o),
(181,612,o),
(181,600,qs),
(181,570,o),
(183,446,o),
(186,348,o),
(192,304,q),
(186,304,l),
(181,303,l),
(177,338,o),
(171,419,o),
(171,482,o),
(169,572,o),
(169,600,qs),
(169,610,o),
(160,657,o),
(160,670,q),
(166,670,l),
(171,670,l)
);
},
{
closed = 1;
nodes = (
(200,212,o),
(200,82,q),
(194,82,l),
(188,82,l),
(188,212,o),
(181,303,q),
(186,304,l),
(192,304,l)
);
},
{
closed = 1;
nodes = (
(171,86,o),
(171,154,qs),
(171,216,o),
(194,304,o),
(224,357,q),
(228,355,l),
(234,352,l),
(215,316,o),
(192,257,o),
(183,195,o),
(183,154,qs),
(183,93,o),
(196,88,q),
(194,82,l),
(190,76,l)
);
},
{
closed = 1;
nodes = (
(241,384,o),
(241,386,q),
(252,399,o),
(292,427,qs),
(326,451,o),
(343,461,qs),
(426,510,o),
(464,448,q),
(458,444,l),
(452,440,l),
(422,493,o),
(349,451,qs),
(332,442,o),
(300,418,qs),
(260,389,o),
(249,378,q),
(247,374,o),
(241,367,o),
(235,355,o),
(234,352,q),
(228,355,l),
(224,359,l)
);
},
{
closed = 1;
nodes = (
(501,293,o),
(420,142,q),
(414,144,l),
(411,148,l),
(490,293,o),
(452,442,q),
(458,444,l),
(464,446,l)
);
},
{
closed = 1;
nodes = (
(390,97,o),
(279,9,o),
(232,1,q),
(232,1,o),
(179,1,q),
(179,7,l),
(179,12,l),
(185,12,o),
(209,12,o),
(220,12,o),
(230,12,q),
(273,20,o),
(382,107,o),
(411,148,q),
(414,144,l),
(420,142,l)
);
},
{
closed = 1;
nodes = (
(166,5,o),
(158,12,qs),
(136,29,o),
(128,82,o),
(147,107,qs),
(153,114,o),
(173,125,o),
(185,131,o),
(213,139,o),
(215,139,q),
(217,133,l),
(218,127,l),
(217,127,o),
(186,120,o),
(177,116,o),
(162,105,o),
(156,99,qs),
(141,80,o),
(147,35,o),
(164,22,qs),
(171,16,o),
(181,12,q),
(179,7,l),
(177,1,l)
);
},
{
closed = 1;
nodes = (
(290,144,o),
(328,127,q),
(324,122,l),
(322,116,l),
(288,133,o),
(217,127,q),
(217,133,l),
(217,139,l)
);
}
);
};
layerId = m002;
shapes = (
{
closed = 1;
nodes = (
(254,763,l),
(134,751,l),
(174,22,l),
(294,34,l)
);
},
{
closed = 1;
nodes = (
(213,233,o),
(107,157,o),
(107,67,cs),
(107,0,o),
(163,-60,o),
(250,-60,cs),
(373,-60,o),
(559,102,o),
(559,358,cs),
(559,480,o),
(499,534,o),
(424,534,cs),
(276,534,o),
(115,350,o),
(138,125,cs),
(144,66,l),
(264,78,l),
(258,139,ls),
(242,301,o),
(339,414,o),
(409,414,cs),
(429,414,o),
(439,403,o),
(439,358,cs),
(439,160,o),
(316,57,o),
(250,57,cs),
(230,57,o),
(220,63,o),
(220,73,cs),
(220,84,o),
(241,100,o),
(339,70,cs),
(397,52,l),
(426,162,l),
(372,180,ls)
);
}
);
width = 588;
}
);
unicode = 98;
},
{
glyphname = c;
lastChange = "2021-11-12 06:26:50 +0000";
layers = (
{
background = {
shapes = (
{
closed = 1;
nodes = (
(483,382,o),
(473,397,o),
(470,402,q),
(478,407,l),
(486,410,l),
(486,407,o),
(491,397,o),
(496,389,o),
(498,384,q),
(491,382,l),
(483,377,l)
);
},
{
closed = 1;
nodes = (
(470,417,o),
(453,440,qs),
(423,480,o),
(350,500,o),
(300,490,q),
(298,497,l),
(298,505,l),
(350,517,o),
(433,492,o),
(465,447,qs),
(486,422,o),
(486,407,q),
(478,407,l),
(470,407,l)
);
},
{
closed = 1;
nodes = (
(187,447,o),
(82,332,o),
(82,222,q),
(75,222,l),
(67,222,l),
(67,337,o),
(180,462,o),
(295,505,q),
(298,497,l),
(300,490,l)
);
},
{
closed = 1;
nodes = (
(82,217,o),
(80,192,o),
(80,181,o),
(82,171,qs),
(92,131,o),
(170,21,o),
(202,9,qs),
(232,-1,o),
(295,-1,q),
(295,-9,l),
(295,-19,l),
(230,-19,o),
(195,-4,qs),
(170,4,o),
(115,69,o),
(75,141,o),
(67,169,q),
(67,169,o),
(67,222,q),
(75,222,l),
(82,222,l)
);
},
{
closed = 1;
nodes = (
(340,-1,o),
(348,1,qs),
(380,11,o),
(475,104,o),
(511,144,q),
(516,139,l),
(521,134,l),
(423,11,o),
(353,-14,qs),
(343,-19,o),
(295,-19,q),
(295,-9,l),
(295,-1,l)
);
}
);
};
layerId = m01;
shapes = (
{
closed = 1;
nodes = (
(309,-16,o),
(426,43,o),
(547,164,cs),
(623,240,l),
(610,253,l),
(534,177,ls),
(414,57,o),
(299,4,o),
(204,4,cs),
(127,4,o),
(77,54,o),
(77,122,cs),
(77,311,o),
(298,496,o),
(412,496,cs),
(464,496,o),
(499,469,o),
(499,422,cs),
(499,399,o),
(489,370,o),
(468,335,c),
(485,326,l),
(508,364,o),
(518,396,o),
(518,423,cs),
(518,479,o),
(476,516,o),
(412,516,cs),
(286,516,o),
(57,325,o),
(57,122,cs),
(57,45,o),
(116,-16,o),
(204,-16,cs)
);
}
);
width = 566;
},
{
background = {
shapes = (
{
closed = 1;
nodes = (
(483,382,o),
(473,397,o),
(470,402,q),
(478,407,l),
(486,410,l),
(486,407,o),
(491,397,o),
(496,389,o),
(498,384,q),
(491,382,l),
(483,377,l)
);
},
{
closed = 1;
nodes = (
(470,417,o),
(453,440,qs),
(423,480,o),
(350,500,o),
(300,490,q),
(298,497,l),
(298,505,l),
(350,517,o),
(433,492,o),
(465,447,qs),
(486,422,o),
(486,407,q),
(478,407,l),
(470,407,l)
);
},
{
closed = 1;
nodes = (
(187,447,o),
(82,332,o),
(82,222,q),
(75,222,l),
(67,222,l),
(67,337,o),
(180,462,o),
(295,505,q),
(298,497,l),
(300,490,l)
);
},
{
closed = 1;
nodes = (
(82,217,o),
(80,192,o),
(80,181,o),
(82,171,qs),
(92,131,o),
(170,21,o),
(202,9,qs),
(232,-1,o),
(295,-1,q),
(295,-9,l),
(295,-19,l),
(230,-19,o),
(195,-4,qs),
(170,4,o),
(115,69,o),
(75,141,o),
(67,169,q),
(67,169,o),
(67,222,q),
(75,222,l),
(82,222,l)
);
},
{
closed = 1;
nodes = (
(340,-1,o),
(348,1,qs),
(380,11,o),
(475,104,o),
(511,144,q),
(516,139,l),
(521,134,l),
(423,11,o),
(353,-14,qs),
(343,-19,o),
(295,-19,q),
(295,-9,l),
(295,-1,l)
);
}
);
};
layerId = m002;
shapes = (
{
closed = 1;
nodes = (
(432,-68,o),
(489,-13,o),
(590,99,cs),
(631,145,l),
(540,224,l),
(502,179,ls),
(404,72,o),
(382,52,o),
(334,52,cs),
(221,52,o),
(157,132,o),
(157,222,cs),
(157,380,o),
(316,450,o),
(382,450,cs),
(416,450,o),
(439,436,o),
(460,361,cs),
(478,307,l),
(588,336,l),
(577,394,l),
(539,518,o),
(458,570,o),
(382,570,cs),
(277,570,o),
(37,460,o),
(37,222,cs),
(37,80,o),
(156,-68,o),
(334,-68,cs)
);
}
);
width = 626;
}
);
unicode = 99;
},
{
glyphname = d;
lastChange = "2021-11-12 06:29:37 +0000";
layers = (
{
background = {
shapes = (
{
closed = 1;
nodes = (
(508,129,o),
(511,139,q),
(518,137,l),
(526,134,l),
(521,124,o),
(518,114,q),
(511,117,l),
(503,119,l)
);
},
{
closed = 1;
nodes = (
(511,152,o),
(513,193,o),
(513,215,o),
(511,243,o),
(501,271,o),
(488,289,qs),
(468,322,o),
(425,327,q),
(427,335,l),
(427,342,l),
(478,335,o),
(503,297,qs),
(516,274,o),
(528,231,o),
(528,205,o),
(526,152,o),
(526,137,q),
(518,137,l),
(511,137,l)
);
},
{
closed = 1;
nodes = (
(359,335,o),
(331,330,qs),
(285,322,o),
(199,266,o),
(138,185,o),
(123,142,q),
(115,144,l),
(108,150,l),
(136,221,o),
(257,335,o),
(328,345,qs),
(359,350,o),
(427,342,q),
(427,335,l),
(425,327,l)
);
},
{
closed = 1;
nodes = (
(115,112,o),
(113,94,qs),
(110,61,o),
(133,18,o),
(174,5,o),
(227,3,o),
(260,10,q),
(260,0,l),
(260,-8,l),
(219,-10,o),
(143,-10,o),
(95,43,o),
(98,96,qs),
(98,104,o),
(100,114,o),
(103,124,o),
(103,129,o),
(108,144,o),
(108,147,q),
(115,144,l),
(123,144,l)
);
},
{
closed = 1;
nodes = (
(316,35,o),
(336,53,qs),
(412,127,o),
(528,398,q),
(536,393,l),
(544,390,l),
(427,117,o),
(346,43,qs),
(323,20,o),
(262,-5,q),
(260,0,l),
(257,8,l)
);
},
{
closed = 1;
nodes = (
(539,416,o),
(569,489,o),
(577,507,qs),
(584,522,o),
(607,563,o),
(630,603,o),
(637,619,qs),
(640,624,o),
(653,659,o),
(665,684,o),
(675,695,q),
(681,689,l),
(686,684,l),
(678,677,o),
(668,651,o),
(655,619,o),
(650,611,qs),
(643,593,o),
(599,520,o),
(592,499,q),
(582,484,o),
(554,411,o),
(544,390,q),
(536,393,l),
(528,398,l)
);
},
{
closed = 1;
nodes = (
(688,667,o),
(673,621,o),
(655,591,o),
(625,542,o),
(620,532,qs),
(607,512,o),
(498,330,o),
(470,276,q),
(465,281,l),
(457,284,l),
(483,337,o),
(594,522,o),
(605,540,qs),
(612,550,o),
(643,601,o),
(658,629,o),
(673,669,o),
(673,689,q),
(681,689,l),
(688,689,l)
);
},
{
closed = 1;
nodes = (
(412,137,o),
(399,63,qs),
(384,-23,o),
(397,-53,qs),
(399,-58,o),
(419,-86,q),
(414,-91,l),
(407,-94,l),
(384,-66,o),
(381,-58,qs),
(369,-25,o),
(384,66,qs),
(397,139,o),
(457,284,q),
(465,281,l),
(470,279,l)
);
},
{
closed = 1;
nodes = (
(432,-91,o),
(470,-91,o),
(503,-84,o),
(549,-61,o),
(577,-46,o),
(627,-10,o),
(648,8,o),
(693,46,o),
(698,48,q),
(703,43,l),
(708,35,l),
(703,30,o),
(653,-10,o),
(622,-33,o),
(569,-71,o),
(526,-91,o),
(475,-109,o),
(430,-106,o),
(409,-96,q),
(414,-91,l),
(417,-84,l)
);
}
);
};
layerId = m01;
shapes = (
{
closed = 1;
nodes = (
(495,-76,o),
(546,-41,o),
(627,40,cs),
(765,178,l),
(752,191,l),
(614,53,ls),
(538,-23,o),
(490,-56,o),
(451,-56,cs),
(410,-56,o),
(389,-31,o),
(389,9,cs),
(389,137,o),
(521,429,o),
(700,695,c),
(683,704,l),
(502,437,o),
(369,141,o),
(369,9,cs),
(369,-40,o),
(399,-76,o),
(451,-76,cs)
);
},
{
closed = 1;
nodes = (
(257,-16,o),
(303,-10,o),
(348,2,c),
(341,21,l),
(299,10,o),
(254,4,o),
(208,4,cs),
(115,4,o),
(65,40,o),
(65,112,cs),
(65,241,o),
(265,445,o),
(475,445,cs),
(570,445,o),
(611,388,o),
(574,278,c),
(593,273,l),
(633,394,o),
(583,465,o),
(475,465,cs),
(255,465,o),
(45,251,o),
(45,112,cs),
(45,31,o),
(108,-16,o),
(208,-16,cs)
);
}
);
width = 770;
},
{
background = {
shapes = (
{
closed = 1;
nodes = (
(418,129,o),
(421,139,q),
(428,137,l),
(436,134,l),
(431,124,o),
(428,114,q),
(421,117,l),
(413,119,l)
);
},
{
closed = 1;
nodes = (
(421,152,o),
(423,193,o),
(423,215,o),
(421,243,o),
(411,271,o),
(398,289,qs),
(378,322,o),
(335,327,q),
(337,335,l),
(337,342,l),
(388,335,o),
(413,297,qs),
(426,274,o),
(438,231,o),
(438,205,o),
(436,152,o),
(436,137,q),
(428,137,l),
(421,137,l)
);
},
{
closed = 1;
nodes = (
(269,335,o),
(241,330,qs),
(195,322,o),
(109,266,o),
(48,185,o),
(33,142,q),
(25,144,l),
(18,150,l),
(46,221,o),
(167,335,o),
(238,345,qs),
(269,350,o),
(337,342,q),
(337,335,l),
(335,327,l)
);
},
{
closed = 1;
nodes = (
(25,112,o),
(23,94,qs),
(20,61,o),
(43,18,o),
(84,5,o),
(137,3,o),
(170,10,q),
(170,0,l),
(170,-8,l),
(129,-10,o),
(53,-10,o),
(5,43,o),
(8,96,qs),
(8,104,o),
(10,114,o),
(13,124,o),
(13,129,o),
(18,144,o),
(18,147,q),
(25,144,l),
(33,144,l)
);
},
{
closed = 1;
nodes = (
(226,35,o),
(246,53,qs),
(322,127,o),
(438,398,q),
(446,393,l),
(454,390,l),
(337,117,o),
(256,43,qs),
(233,20,o),
(172,-5,q),
(170,0,l),
(167,8,l)
);
},
{
closed = 1;
nodes = (
(449,416,o),
(479,489,o),
(487,507,qs),
(494,522,o),
(517,563,o),
(540,603,o),
(547,619,qs),
(550,624,o),
(563,659,o),
(575,684,o),
(585,695,q),
(591,689,l),
(596,684,l),
(588,677,o),
(578,651,o),
(565,619,o),
(560,611,qs),
(553,593,o),
(509,520,o),
(502,499,q),
(492,484,o),
(464,411,o),
(454,390,q),
(446,393,l),
(438,398,l)
);
},
{
closed = 1;
nodes = (
(598,667,o),
(583,621,o),
(565,591,o),
(535,542,o),
(530,532,qs),
(517,512,o),
(408,330,o),
(380,276,q),
(375,281,l),
(367,284,l),
(393,337,o),
(504,522,o),
(515,540,qs),
(522,550,o),
(553,601,o),
(568,629,o),
(583,669,o),
(583,689,q),
(591,689,l),
(598,689,l)
);
},
{
closed = 1;
nodes = (
(322,137,o),
(309,63,qs),
(294,-23,o),
(307,-53,qs),
(309,-58,o),
(329,-86,q),
(324,-91,l),
(317,-94,l),
(294,-66,o),
(291,-58,qs),
(279,-25,o),
(294,66,qs),
(307,139,o),
(367,284,q),
(375,281,l),
(380,279,l)
);
},
{
closed = 1;
nodes = (
(342,-91,o),
(380,-91,o),
(413,-84,o),
(459,-61,o),
(487,-46,o),
(537,-10,o),
(558,8,o),
(603,46,o),
(608,48,q),
(613,43,l),
(618,35,l),
(613,30,o),
(563,-10,o),
(532,-33,o),
(479,-71,o),
(436,-91,o),
(385,-109,o),
(340,-106,o),
(319,-96,q),
(324,-91,l),
(327,-84,l)
);
}
);
};
layerId = m002;
shapes = (
{
closed = 1;
nodes = (
(379,172,l),
(309,113,o),
(237,89,o),
(155,89,cs),
(112,89,o),
(94,108,o),
(94,147,cs),
(94,234,o),
(226,380,o),
(371,380,cs),
(447,380,o),
(502,350,o),
(468,236,c),
(585,207,l),
(643,380,o),
(522,500,o),
(371,500,cs),
(165,500,o),
(-26,291,o),
(-26,142,cs),
(-26,36,o),
(49,-31,o),
(155,-31,cs),
(271,-31,o),
(370,5,o),
(459,78,c)
);
},
{
closed = 1;
nodes = (
(536,18,o),
(466,-28,o),
(425,-28,cs),
(397,-28,o),
(380,-14,o),
(380,14,cs),
(380,131,o),
(505,405,o),
(672,656,c),
(709,706,l),
(602,775,l),
(572,721,l),
(398,457,o),
(260,151,o),
(260,4,cs),
(260,-74,o),
(326,-148,o),
(410,-148,cs),
(492,-148,o),
(587,-94,o),
(685,1,cs),
(728,43,l),
(643,128,l),
(601,85,ls)
);
}
);
width = 698;
}
);
unicode = 100;
},
{
glyphname = e;
lastChange = "2021-11-12 03:00:37 +0000";
layers = (
{
background = {
shapes = (
{
closed = 1;
nodes = (
(79,176,l),
(79,167,l),
(79,157,l),
(66,157,l),
(66,167,l),
(66,176,l)
);
},
{
closed = 1;
nodes = (
(188,176,o),
(450,321,o),
(498,415,q),
(508,412,l),
(514,408,l),
(466,308,o),
(192,157,o),
(79,157,q),
(79,167,l),
(79,176,l)
);
},
{
closed = 1;
nodes = (
(508,476,o),
(504,479,qs),
(491,489,o),
(430,486,qs),
(417,486,o),
(388,479,o),
(366,473,o),
(337,460,o),
(317,450,o),
(288,431,o),
(272,421,o),
(240,399,o),
(234,395,q),
(227,402,l),
(221,412,l),
(227,415,o),
(279,447,o),
(295,460,o),
(340,482,o),
(369,492,o),
(411,505,o),
(430,505,qs),
(501,508,o),
(517,495,qs),
(524,489,o),
(527,460,o),
(524,437,o),
(517,412,o),
(517,408,q),
(508,412,l),
(498,412,l)
);
},
{
closed = 1;
nodes = (
(134,315,o),
(56,183,o),
(56,67,q),
(47,67,l),
(37,67,l),
(37,186,o),
(118,331,o),
(221,412,q),
(227,402,l),
(234,395,l)
);
},
{
closed = 1;
nodes = (
(89,18,o),
(192,18,qs),
(317,18,o),
(337,22,qs),
(375,28,o),
(459,70,o),
(504,99,o),
(607,176,o),
(620,183,q),
(620,183,o),
(740,263,q),
(746,257,l),
(753,247,l),
(740,238,o),
(688,205,o),
(649,179,o),
(633,167,qs),
(617,157,o),
(562,115,o),
(524,89,o),
(469,54,o),
(424,28,o),
(369,5,o),
(340,2,qs),
(317,-1,o),
(192,-1,qs),
(79,-1,o),
(37,63,q),
(47,67,l),
(56,73,l)
);
},
{
closed = 1;
nodes = (
(749,270,o),
(833,315,o),
(888,350,o),
(901,370,q),
(910,363,l),
(917,357,l),
(907,341,o),
(859,305,o),
(817,283,o),
(762,254,o),
(753,247,q),
(746,257,l),
(740,263,l)
);
}
);
};
layerId = m01;
shapes = (
{
closed = 1;
nodes = (
(318,-12,o),
(459,30,o),
(602,173,cs),
(713,284,l),
(700,297,l),
(589,186,ls),
(449,46,o),
(314,8,o),
(214,8,cs),
(107,8,o),
(42,55,o),
(42,141,cs),
(42,294,o),
(261,496,o),
(398,496,cs),
(458,496,o),
(495,474,o),
(495,425,cs),
(495,355,o),
(418,293,o),
(117,186,c),
(125,167,l),
(431,273,o),
(515,343,o),
(515,425,cs),
(515,486,o),
(464,516,o),
(398,516,cs),
(252,516,o),
(22,305,o),
(22,141,cs),
(22,43,o),
(101,-12,o),
(214,-12,cs)
);
}
);
width = 612;
},
{
background = {
shapes = (
{
closed = 1;
nodes = (
(79,176,l),
(79,167,l),
(79,157,l),
(66,157,l),
(66,167,l),
(66,176,l)
);
},
{
closed = 1;
nodes = (
(188,176,o),
(450,321,o),
(498,415,q),
(508,412,l),
(514,408,l),
(466,308,o),
(192,157,o),
(79,157,q),
(79,167,l),
(79,176,l)
);
},
{
closed = 1;
nodes = (
(508,476,o),
(504,479,qs),
(491,489,o),
(430,486,qs),
(417,486,o),
(388,479,o),
(366,473,o),
(337,460,o),
(317,450,o),
(288,431,o),
(272,421,o),
(240,399,o),
(234,395,q),
(227,402,l),
(221,412,l),
(227,415,o),
(279,447,o),
(295,460,o),
(340,482,o),
(369,492,o),
(411,505,o),
(430,505,qs),
(501,508,o),
(517,495,qs),
(524,489,o),
(527,460,o),
(524,437,o),
(517,412,o),
(517,408,q),
(508,412,l),
(498,412,l)
);
},
{
closed = 1;
nodes = (
(134,315,o),
(56,183,o),
(56,67,q),
(47,67,l),
(37,67,l),
(37,186,o),
(118,331,o),
(221,412,q),
(227,402,l),
(234,395,l)
);
},
{
closed = 1;
nodes = (
(89,18,o),
(192,18,qs),
(317,18,o),
(337,22,qs),
(375,28,o),
(459,70,o),
(504,99,o),
(607,176,o),
(620,183,q),
(620,183,o),
(740,263,q),
(746,257,l),
(753,247,l),
(740,238,o),
(688,205,o),
(649,179,o),
(633,167,qs),
(617,157,o),
(562,115,o),
(524,89,o),
(469,54,o),
(424,28,o),
(369,5,o),
(340,2,qs),
(317,-1,o),
(192,-1,qs),
(79,-1,o),
(37,63,q),
(47,67,l),
(56,73,l)
);
},
{
closed = 1;
nodes = (
(749,270,o),
(833,315,o),
(888,350,o),
(901,370,q),
(910,363,l),
(917,357,l),
(907,341,o),
(859,305,o),
(817,283,o),
(762,254,o),
(753,247,q),
(746,257,l),
(740,263,l)
);
}
);
};
layerId = m002;
shapes = (
{
closed = 1;
nodes = (
(404,-52,o),
(501,-9,o),
(601,58,cs),
(1011,333,l),
(945,434,l),
(533,158,ls),
(444,98,o),
(377,68,o),
(264,68,cs),
(160,68,o),
(122,90,o),
(122,141,cs),
(122,272,o),
(340,452,o),
(471,452,cs),
(484,452,o),
(489,445,o),
(489,436,cs),
(489,363,o),
(266,226,o),
(101,226,cs),
(41,226,l),
(41,106,l),
(101,106,ls),
(303,106,o),
(609,282,o),
(609,445,cs),
(609,518,o),
(558,572,o),
(478,572,cs),
(288,572,o),
(2,338,o),
(2,141,cs),
(2,14,o),
(119,-52,o),
(264,-52,cs)
);
}
);
width = 822;
}
);
unicode = 101;
},
{
glyphname = f;
lastChange = "2021-11-12 09:30:17 +0000";
layers = (
{
background = {
shapes = (
{
closed = 1;
nodes = (
(134,413,o),
(139,413,q),
(136,406,l),
(136,399,l),
(125,401,o),
(114,401,q),
(114,408,l),
(116,415,l)
);
},
{
closed = 1;
nodes = (
(147,413,o),
(177,413,o),
(197,413,o),
(224,413,o),
(233,413,qs),
(320,422,o),
(527,527,o),
(585,592,q),
(590,588,l),
(596,583,l),
(536,516,o),
(325,408,o),
(235,399,q),
(235,399,o),
(136,399,q),
(136,406,l),
(136,413,l)
);
},
{
closed = 1;
nodes = (
(628,644,o),
(614,671,qs),
(608,682,o),
(533,693,o),
(513,689,qs),
(464,677,o),
(381,588,q),
(376,592,l),
(372,597,l),
(457,689,o),
(511,702,q),
(527,709,o),
(616,698,o),
(628,677,qs),
(643,644,o),
(596,583,q),
(590,588,l),
(585,592,l)
);
},
{
closed = 1;
nodes = (
(340,527,o),
(320,390,qs),
(314,359,o),
(298,260,o),
(284,173,o),
(278,134,q),
(271,137,l),
(264,137,l),
(271,186,o),
(302,368,o),
(305,392,qs),
(327,532,o),
(370,597,q),
(376,592,l),
(383,588,l)
);
},
{
closed = 1;
nodes = (
(242,33,o),
(100,-108,o),
(4,-108,q),
(4,-99,l),
(4,-92,l),
(94,-92,o),
(228,42,o),
(264,139,q),
(271,137,l),
(278,134,l)
);
},
{
closed = 1;
nodes = (
(-21,-108,o),
(-23,-106,q),
(-50,-92,o),
(-50,45,o),
(-39,63,q),
(11,202,o),
(165,249,q),
(168,242,l),
(170,235,l),
(20,190,o),
(-25,58,q),
(-37,38,o),
(-34,-83,o),
(-16,-95,q),
(-12,-95,o),
(-10,-95,o),
(-1,-92,o),
(4,-92,q),
(4,-99,l),
(4,-108,l)
);
},
{
closed = 1;
nodes = (
(199,256,o),
(275,265,o),
(367,269,o),
(392,271,qs),
(477,280,o),
(610,361,q),
(612,357,l),
(616,350,l),
(482,267,o),
(394,258,qs),
(370,256,o),
(305,251,o),
(255,249,o),
(195,240,o),
(170,235,q),
(168,242,l),
(165,249,l)
);
}
);
};
layerId = m01;
shapes = (
{
closed = 1;
nodes = (
(391,70,o),
(451,94,o),
(527,170,cs),
(572,215,l),
(559,228,l),
(514,183,ls),
(440,109,o),
(383,89,o),
(298,86,cs),
(131,79,o),
(15,-8,o),
(15,-113,cs),
(15,-168,o),
(47,-207,o),
(102,-207,cs),
(212,-207,o),
(292,-87,o),
(301,33,cs),
(332,436,ls),
(345,605,o),
(449,690,o),
(534,690,cs),
(586,690,o),
(616,666,o),
(616,623,cs),
(616,515,o),
(458,411,o),
(120,411,cs),
(110,411,l),
(110,391,l),
(120,391,ls),
(469,391,o),
(636,504,o),
(636,623,cs),
(636,677,o),
(595,710,o),
(534,710,cs),
(440,710,o),
(326,616,o),
(312,440,cs),
(281,37,ls),
(272,-75,o),
(200,-187,o),
(102,-187,cs),
(53,-187,o),
(35,-158,o),
(35,-113,cs),
(35,-24,o),
(143,63,o),
(300,68,cs)
);
}
);
width = 540;
},
{
background = {
shapes = (
{
closed = 1;
nodes = (
(134,413,o),
(139,413,q),
(136,406,l),
(136,399,l),
(125,401,o),
(114,401,q),
(114,408,l),
(116,415,l)
);
},
{
closed = 1;
nodes = (
(147,413,o),
(177,413,o),
(197,413,o),
(224,413,o),
(233,413,qs),
(320,422,o),
(527,527,o),
(585,592,q),
(590,588,l),
(596,583,l),
(536,516,o),
(325,408,o),
(235,399,q),
(235,399,o),
(136,399,q),
(136,406,l),
(136,413,l)
);
},
{
closed = 1;
nodes = (
(628,644,o),
(614,671,qs),
(608,682,o),
(533,693,o),
(513,689,qs),
(464,677,o),
(381,588,q),
(376,592,l),
(372,597,l),
(457,689,o),
(511,702,q),
(527,709,o),
(616,698,o),
(628,677,qs),
(643,644,o),
(596,583,q),
(590,588,l),
(585,592,l)
);
},
{
closed = 1;
nodes = (
(340,527,o),
(320,390,qs),
(314,359,o),
(298,260,o),
(284,173,o),
(278,134,q),
(271,137,l),
(264,137,l),
(271,186,o),
(302,368,o),
(305,392,qs),
(327,532,o),
(370,597,q),
(376,592,l),
(383,588,l)
);
},
{
closed = 1;
nodes = (
(242,33,o),
(100,-108,o),
(4,-108,q),
(4,-99,l),
(4,-92,l),
(94,-92,o),
(228,42,o),
(264,139,q),
(271,137,l),
(278,134,l)
);
},
{
closed = 1;
nodes = (
(-21,-108,o),
(-23,-106,q),
(-50,-92,o),
(-50,45,o),
(-39,63,q),
(11,202,o),
(165,249,q),
(168,242,l),
(170,235,l),
(20,190,o),
(-25,58,q),
(-37,38,o),
(-34,-83,o),
(-16,-95,q),
(-12,-95,o),
(-10,-95,o),
(-1,-92,o),
(4,-92,q),
(4,-99,l),
(4,-108,l)
);
},
{
closed = 1;
nodes = (
(199,256,o),
(275,265,o),
(367,269,o),
(392,271,qs),
(477,280,o),
(610,361,q),
(612,357,l),
(616,350,l),
(482,267,o),
(394,258,qs),
(370,256,o),
(305,251,o),
(255,249,o),
(195,240,o),
(170,235,q),
(168,242,l),
(165,249,l)
);
}
);
};
layerId = m002;
shapes = (
{
closed = 1;
nodes = (
(508,342,o),
(454,329,o),
(333,319,cs),
(69,296,o),
(-74,169,o),
(-74,10,cs),
(-74,-72,o),
(-23,-157,o),
(82,-157,cs),
(183,-157,o),
(330,-42,o),
(364,154,cs),
(411,428,ls),
(437,578,o),
(512,645,o),
(580,645,cs),
(590,645,o),
(595,640,o),
(595,631,cs),
(595,599,o),
(463,461,o),
(150,461,cs),
(90,461,l),
(90,341,l),
(150,341,ls),
(523,341,o),
(713,547,o),
(713,644,cs),
(713,710,o),
(665,760,o),
(590,760,cs),
(467,760,o),
(327,647,o),
(293,448,cs),
(246,175,ls),
(221,31,o),
(133,-37,o),
(82,-37,cs),
(62,-37,o),
(46,-26,o),
(46,10,cs),
(46,108,o),
(126,180,o),
(343,199,cs),
(475,211,o),
(554,229,o),
(671,303,c),
(725,333,l),
(656,440,l),
(607,403,l)
);
}
);
width = 600;
},
{
associatedMasterId = m01;
background = {
shapes = (
{
closed = 1;
nodes = (
(134,413,o),
(139,413,q),
(136,406,l),
(136,399,l),
(125,401,o),
(114,401,q),
(114,408,l),
(116,415,l)
);
},
{
closed = 1;
nodes = (
(147,413,o),
(177,413,o),
(197,413,o),
(224,413,o),
(233,413,qs),
(320,422,o),
(527,527,o),
(585,592,q),
(590,588,l),
(596,583,l),
(536,516,o),
(325,408,o),
(235,399,q),
(235,399,o),
(136,399,q),
(136,406,l),
(136,413,l)
);
},
{
closed = 1;
nodes = (
(628,644,o),
(614,671,qs),
(608,682,o),
(533,693,o),
(513,689,qs),
(464,677,o),
(381,588,q),
(376,592,l),
(372,597,l),
(457,689,o),
(511,702,q),
(527,709,o),
(616,698,o),
(628,677,qs),
(643,644,o),
(596,583,q),
(590,588,l),
(585,592,l)
);
},
{
closed = 1;
nodes = (
(340,527,o),
(320,390,qs),
(314,359,o),
(298,260,o),
(284,173,o),
(278,134,q),
(271,137,l),
(264,137,l),
(271,186,o),
(302,368,o),
(305,392,qs),
(327,532,o),
(370,597,q),
(376,592,l),
(383,588,l)
);
},
{
closed = 1;
nodes = (
(242,33,o),
(100,-108,o),
(4,-108,q),
(4,-99,l),
(4,-92,l),
(94,-92,o),
(228,42,o),
(264,139,q),
(271,137,l),
(278,134,l)
);
},
{
closed = 1;
nodes = (
(-21,-108,o),
(-23,-106,q),
(-50,-92,o),
(-50,45,o),
(-39,63,q),
(11,202,o),
(165,249,q),
(168,242,l),
(170,235,l),
(20,190,o),
(-25,58,q),
(-37,38,o),
(-34,-83,o),
(-16,-95,q),
(-12,-95,o),
(-10,-95,o),
(-1,-92,o),
(4,-92,q),
(4,-99,l),
(4,-108,l)
);
},
{
closed = 1;
nodes = (
(199,256,o),
(275,265,o),
(367,269,o),
(392,271,qs),
(477,280,o),
(610,361,q),
(612,357,l),
(616,350,l),
(482,267,o),
(394,258,qs),
(370,256,o),
(305,251,o),
(255,249,o),
(195,240,o),
(170,235,q),
(168,242,l),
(165,249,l)
);
}
);
};
layerId = "A2FE7F69-6B12-48E9-AE89-A50F78122ADA";
name = "12 Nov 21, 20:25";
shapes = (
{
closed = 1;
nodes = (
(422,91,o),
(334,85,o),
(209,74,cs),
(35,59,o),
(-54,42,o),
(-54,10,cs),
(-54,-51,o),
(-20,-107,o),
(52,-107,cs),
(128,-107,o),
(255,-10,o),
(285,163,cs),
(332,436,ls),
(361,602,o),
(449,690,o),
(534,690,cs),
(586,690,o),
(616,666,o),
(616,623,cs),
(616,515,o),
(458,411,o),
(120,411,cs),
(110,411,l),
(110,391,l),
(120,391,ls),
(469,391,o),
(636,504,o),
(636,623,cs),
(636,677,o),
(595,710,o),
(534,710,cs),
(440,710,o),
(342,614,o),
(312,440,cs),
(265,167,ls),
(237,3,o),
(120,-87,o),
(52,-87,cs),
(-7,-87,o),
(-34,-44,o),
(-34,10,cs),
(-34,32,o),
(45,39,o),
(210,54,cs),
(337,65,o),
(431,74,o),
(522,165,cs),
(572,215,l),
(559,228,l),
(509,178,ls)
);
}
);
width = 540;
}
);
unicode = 102;
},
{
glyphname = g;
lastChange = "2021-11-10 06:05:42 +0000";
layers = (
{
background = {
shapes = (
{
closed = 1;
nodes = (
(489,389,o),
(487,403,o),
(487,408,q),
(493,408,l),
(500,410,l),
(502,397,ls),
(502,391,o),
(502,389,q),
(495,387,l),
(489,387,l)
);
},
{
closed = 1;
nodes = (
(487,444,o),
(401,498,o),
(362,496,qs),
(352,496,o),
(340,494,o),
(327,490,o),
(321,485,o),
(305,477,o),
(299,473,q),
(294,479,l),
(292,485,l),
(297,488,o),
(321,502,o),
(329,504,o),
(348,508,o),
(360,508,qs),
(405,510,o),
(500,453,o),
(500,408,q),
(493,408,l),
(487,408,l)
);
},
{
closed = 1;
nodes = (
(268,455,o),
(268,453,q),
(247,442,o),
(223,428,o),
(194,403,o),
(182,373,o),
(182,354,qs),
(182,334,o),
(192,323,qs),
(200,317,o),
(231,299,q),
(229,295,l),
(225,289,l),
(192,307,o),
(184,315,qs),
(169,328,o),
(169,354,qs),
(169,383,o),
(202,428,o),
(233,449,o),
(262,465,qs),
(266,467,o),
(276,473,o),
(288,483,o),
(290,485,q),
(294,479,l),
(299,475,l)
);
},
{
closed = 1;
nodes = (
(354,256,o),
(502,360,qs),
(539,385,o),
(561,414,o),
(569,451,q),
(575,449,l),
(582,449,l),
(573,410,o),
(547,375,o),
(510,350,qs),
(356,241,o),
(227,289,q),
(229,295,l),
(231,301,l)
);
},
{
closed = 1;
nodes = (
(567,479,o),
(493,481,o),
(469,463,q),
(457,457,o),
(436,440,o),
(422,426,o),
(405,399,o),
(395,387,o),
(381,354,o),
(377,344,o),
(362,303,o),
(360,299,q),
(354,301,l),
(348,303,l),
(350,309,o),
(364,346,o),
(370,360,o),
(385,393,o),
(393,408,o),
(411,434,o),
(428,449,o),
(450,467,o),
(463,475,qs),
(475,481,o),
(512,492,o),
(553,494,o),
(582,471,o),
(582,449,q),
(575,449,l),
(567,449,l)
);
},
{
closed = 1;
nodes = (
(333,217,o),
(323,157,qs),
(311,79,o),
(301,24,o),
(258,-87,o),
(223,-124,q),
(219,-120,l),
(214,-115,l),
(243,-83,o),
(284,12,o),
(299,79,o),
(309,141,qs),
(311,153,o),
(311,159,q),
(321,219,o),
(348,303,q),
(354,301,l),
(360,299,l)
);
},
{
closed = 1;
nodes = (
(180,-169,o),
(132,-189,qs),
(65,-218,o),
(42,-167,qs),
(34,-146,o),
(34,-87,q),
(40,-87,l),
(46,-87,l),
(46,-144,o),
(55,-161,qs),
(71,-202,o),
(126,-177,qs),
(173,-156,o),
(214,-115,q),
(219,-120,l),
(223,-126,l)
);
},
{
closed = 1;
nodes = (
(50,-52,o),
(89,-5,o),
(145,24,o),
(184,40,o),
(264,63,o),
(282,69,qs),
(313,79,o),
(442,139,q),
(444,135,l),
(448,129,l),
(317,67,o),
(286,57,qs),
(268,51,o),
(188,28,o),
(151,14,o),
(98,-15,o),
(61,-58,o),
(46,-91,q),
(40,-87,l),
(34,-85,l)
);
},
{
closed = 1;
nodes = (
(518,180,o),
(578,246,q),
(582,241,l),
(588,235,l),
(526,170,o),
(448,129,q),
(444,135,l),
(442,139,l)
);
}
);
};
layerId = m01;
shapes = (
{
closed = 1;
nodes = (
(506,167,o),
(389,102,o),
(310,83,cs),
(75,25,o),
(28,-58,o),
(28,-120,cs),
(28,-165,o),
(52,-206,o),
(101,-206,cs),
(185,-206,o),
(292,-100,o),
(323,127,cs),
(353,342,o),
(436,478,o),
(527,478,cs),
(548,478,o),
(562,459,o),
(562,433,cs),
(562,355,o),
(380,250,o),
(263,250,cs),
(163,250,o),
(107,285,o),
(107,341,cs),
(107,404,o),
(246,502,o),
(335,502,cs),
(403,502,o),
(480,456,o),
(466,376,cs),
(464,366,l),
(484,362,l),
(486,372,ls),
(502,466,o),
(411,522,o),
(335,522,cs),
(239,522,o),
(87,416,o),
(87,341,cs),
(87,273,o),
(157,230,o),
(263,230,cs),
(386,230,o),
(582,341,o),
(582,433,cs),
(582,466,o),
(559,498,o),
(527,498,cs),
(422,498,o),
(333,349,o),
(303,129,cs),
(274,-90,o),
(175,-186,o),
(101,-186,cs),
(65,-186,o),
(48,-158,o),
(48,-120,cs),
(48,-66,o),
(89,7,o),
(314,63,cs),
(397,84,o),
(518,151,o),
(592,234,cs),
(598,242,l),
(583,255,l),
(576,248,ls)
);
}
);
width = 607;
},
{
layerId = m002;
shapes = (
{
closed = 1;
nodes = (
(507,206,o),
(403,150,o),
(328,132,cs),
(64,66,o),
(8,-37,o),
(8,-120,cs),
(8,-199,o),
(60,-256,o),
(131,-256,cs),
(244,-256,o),
(368,-132,o),
(403,120,cs),
(431,328,o),
(484,433,o),
(541,433,cs),
(549,433,o),
(555,428,o),
(555,421,cs),
(555,376,o),
(402,300,o),
(293,300,cs),
(207,300,o),
(187,313,o),
(187,341,cs),
(187,378,o),
(292,452,o),
(365,452,cs),
(419,452,o),
(456,431,o),
(447,385,cs),
(435,327,l),
(553,303,l),
(565,363,ls),
(591,491,o),
(469,572,o),
(365,572,cs),
(249,572,o),
(67,452,o),
(67,341,cs),
(67,241,o),
(163,180,o),
(293,180,cs),
(434,180,o),
(669,294,o),
(662,433,cs),
(662,494,o),
(617,548,o),
(557,548,cs),
(417,548,o),
(316,373,o),
(283,136,cs),
(257,-66,o),
(192,-136,o),
(146,-136,cs),
(133,-136,o),
(127,-129,o),
(127,-117,cs),
(127,-77,o),
(152,-36,o),
(356,15,cs),
(450,38,o),
(580,109,o),
(661,196,cs),
(703,241,l),
(618,315,l),
(576,274,ls)
);
}
);
width = 667;
}
);
unicode = 103;
},
{
glyphname = h;
lastChange = "2021-11-12 06:00:16 +0000";
layers = (
{
background = {
shapes = (
{
closed = 1;
nodes = (
(280,689,o),
(276,687,o),
(275,687,q),
(273,693,l),
(271,698,l),
(276,700,o),
(278,700,q),
(280,694,l),
(282,689,l)
);
},
{
closed = 1;
nodes = (
(278,671,o),
(260,625,o),
(230,573,o),
(227,560,qs),
(186,455,o),
(183,446,qs),
(175,422,o),
(155,332,o),
(151,315,q),
(146,315,l),
(140,317,l),
(144,334,o),
(164,426,o),
(172,450,qs),
(175,459,o),
(216,564,qs),
(221,580,o),
(251,630,o),
(267,674,o),
(267,693,q),
(273,693,l),
(278,693,l)
);
},
{
closed = 1;
nodes = (
(146,295,o),
(102,135,qs),
(98,124,o),
(87,95,o),
(80,73,o),
(74,45,o),
(74,34,q),
(69,34,l),
(63,34,l),
(63,50,o),
(72,85,o),
(87,128,o),
(91,137,qs),
(135,297,o),
(140,317,q),
(146,315,l),
(151,315,l)
);
},
{
closed = 1;
nodes = (
(52,28,o),
(59,56,qs),
(59,58,o),
(59,58,q),
(59,85,o),
(67,117,qs),
(91,220,o),
(183,332,q),
(186,328,l),
(192,325,l),
(100,216,o),
(78,115,qs),
(72,84,o),
(72,58,qs),
(72,54,o),
(69,41,o),
(69,34,qs),
(69,28,l)
);
},
{
closed = 1;
nodes = (
(188,336,o),
(221,363,o),
(232,369,q),
(267,393,o),
(293,387,qs),
(332,380,o),
(321,326,qs),
(315,304,o),
(267,207,o),
(265,201,q),
(260,205,l),
(254,207,l),
(258,214,o),
(306,310,o),
(310,328,qs),
(317,371,o),
(291,376,qs),
(269,380,o),
(238,360,qs),
(230,354,o),
(214,341,o),
(197,328,o),
(190,323,q),
(186,328,l),
(183,332,l)
);
},
{
closed = 1;
nodes = (
(229,87,o),
(229,38,qs),
(229,34,o),
(229,19,o),
(229,12,o),
(230,3,o),
(236,-5,o),
(240,-8,q),
(249,-14,o),
(280,-14,q),
(280,-19,l),
(280,-25,l),
(245,-25,o),
(234,-18,qs),
(227,-12,o),
(219,-3,o),
(218,10,o),
(218,19,o),
(218,36,o),
(218,38,qs),
(218,89,o),
(254,207,q),
(260,205,l),
(265,203,l)
);
},
{
closed = 1;
nodes = (
(299,-12,o),
(335,19,o),
(356,49,o),
(370,73,qs),
(514,303,o),
(516,306,q),
(519,303,l),
(525,299,l),
(523,297,o),
(381,67,qs),
(370,50,o),
(361,38,o),
(339,6,o),
(321,-8,o),
(295,-23,o),
(280,-25,q),
(280,-19,l),
(280,-14,l)
);
}
);
};
layerId = m01;
shapes = (
{
closed = 1;
nodes = (
(287,700,l),
(268,706,l),
(28,0,l),
(47,-6,l)
);
},
{
closed = 1;
nodes = (
(488,-10,o),
(526,21,o),
(661,156,cs),
(734,229,l),
(720,241,l),
(647,168,ls),
(517,38,o),
(476,10,o),
(440,10,cs),
(407,10,o),
(382,28,o),
(382,60,cs),
(382,189,o),
(543,298,o),
(543,415,cs),
(543,475,o),
(507,516,o),
(435,516,cs),
(367,516,o),
(296,471,o),
(163,300,c),
(178,290,l),
(308,455,o),
(376,496,o),
(435,496,cs),
(494,496,o),
(522,464,o),
(522,415,cs),
(522,305,o),
(361,189,o),
(361,60,cs),
(361,15,o),
(395,-10,o),
(440,-10,cs)
);
}
);
width = 688;
},
{
background = {
shapes = (
{
closed = 1;
nodes = (
(265,689,o),
(261,687,o),
(260,687,q),
(258,693,l),
(256,698,l),
(261,700,o),
(263,700,q),
(265,694,l),
(267,689,l)
);
},
{
closed = 1;
nodes = (
(263,671,o),
(245,625,o),
(215,573,o),
(212,560,qs),
(171,455,o),
(168,446,qs),
(160,422,o),
(140,332,o),
(136,315,q),
(131,315,l),
(125,317,l),
(129,334,o),
(149,426,o),
(157,450,qs),
(160,459,o),
(201,564,qs),
(206,580,o),
(236,630,o),
(252,674,o),
(252,693,q),
(258,693,l),
(263,693,l)
);
},
{
closed = 1;
nodes = (
(131,295,o),
(87,135,qs),
(83,124,o),
(72,95,o),
(65,73,o),
(59,45,o),
(59,34,q),
(54,34,l),
(48,34,l),
(48,50,o),
(57,85,o),
(72,128,o),
(76,137,qs),
(120,297,o),
(125,317,q),
(131,315,l),
(136,315,l)
);
},
{
closed = 1;
nodes = (
(37,28,o),
(44,56,qs),
(44,58,o),
(44,58,q),
(44,85,o),
(52,117,qs),
(76,220,o),
(168,332,q),
(171,328,l),
(177,325,l),
(85,216,o),
(63,115,qs),
(57,84,o),
(57,58,qs),
(57,54,o),
(54,41,o),
(54,34,qs),
(54,28,l)
);
},
{
closed = 1;
nodes = (
(173,336,o),
(206,363,o),
(217,369,q),
(252,393,o),
(278,387,qs),
(317,380,o),
(306,326,qs),
(300,304,o),
(252,207,o),
(250,201,q),
(245,205,l),
(239,207,l),
(243,214,o),
(291,310,o),
(295,328,qs),
(302,371,o),
(276,376,qs),
(254,380,o),
(223,360,qs),
(215,354,o),
(199,341,o),
(182,328,o),
(175,323,q),
(171,328,l),
(168,332,l)
);
},
{
closed = 1;
nodes = (
(214,87,o),
(214,38,qs),
(214,34,o),
(214,19,o),
(214,12,o),
(215,3,o),
(221,-5,o),
(225,-8,q),
(234,-14,o),
(265,-14,q),
(265,-19,l),
(265,-25,l),
(230,-25,o),
(219,-18,qs),
(212,-12,o),
(204,-3,o),
(203,10,o),
(203,19,o),
(203,36,o),
(203,38,qs),
(203,89,o),
(239,207,q),
(245,205,l),
(250,203,l)
);
},
{
closed = 1;
nodes = (
(284,-12,o),
(320,19,o),
(341,49,o),
(355,73,qs),
(499,303,o),
(501,306,q),
(504,303,l),
(510,299,l),
(508,297,o),
(366,67,qs),
(355,50,o),
(346,38,o),
(324,6,o),
(306,-8,o),
(280,-23,o),
(265,-25,q),
(265,-19,l),
(265,-14,l)
);
}
);
};
layerId = m002;
shapes = (
{
closed = 1;
nodes = (
(371,747,l),
(255,782,l),
(1,-33,l),
(117,-68,l)
);
},
{
closed = 1;
nodes = (
(413,82,o),
(354,45,o),
(340,45,cs),
(335,45,o),
(332,48,o),
(332,55,cs),
(332,122,o),
(445,293,o),
(445,401,cs),
(445,477,o),
(398,515,o),
(342,515,cs),
(185,515,o),
(-25,298,o),
(42,151,cs),
(67,96,l),
(176,145,l),
(152,199,ls),
(123,263,o),
(248,395,o),
(312,395,cs),
(320,395,o),
(325,391,o),
(325,381,cs),
(325,329,o),
(212,158,o),
(212,42,cs),
(212,-23,o),
(259,-75,o),
(330,-75,cs),
(410,-75,o),
(514,-3,o),
(658,315,cs),
(682,368,l),
(576,422,l),
(552,372,ls)
);
}
);
width = 601;
},
{
associatedMasterId = m01;
background = {
shapes = (
{
closed = 1;
nodes = (
(265,689,o),
(261,687,o),
(260,687,q),
(258,693,l),
(256,698,l),
(261,700,o),
(263,700,q),
(265,694,l),
(267,689,l)
);
},
{
closed = 1;
nodes = (
(263,671,o),
(245,625,o),
(215,573,o),
(212,560,qs),
(171,455,o),
(168,446,qs),
(160,422,o),
(140,332,o),
(136,315,q),
(131,315,l),
(125,317,l),
(129,334,o),
(149,426,o),
(157,450,qs),
(160,459,o),
(201,564,qs),
(206,580,o),
(236,630,o),
(252,674,o),
(252,693,q),
(258,693,l),
(263,693,l)
);
},
{
closed = 1;
nodes = (
(131,295,o),
(87,135,qs),
(83,124,o),
(72,95,o),
(65,73,o),
(59,45,o),
(59,34,q),
(54,34,l),
(48,34,l),
(48,50,o),
(57,85,o),
(72,128,o),
(76,137,qs),
(120,297,o),
(125,317,q),
(131,315,l),
(136,315,l)
);
},
{
closed = 1;
nodes = (
(37,28,o),
(44,56,qs),
(44,58,o),
(44,58,q),
(44,85,o),
(52,117,qs),
(76,220,o),
(168,332,q),
(171,328,l),
(177,325,l),
(85,216,o),
(63,115,qs),
(57,84,o),
(57,58,qs),
(57,54,o),
(54,41,o),
(54,34,qs),
(54,28,l)
);
},
{
closed = 1;
nodes = (
(173,336,o),
(206,363,o),
(217,369,q),
(252,393,o),
(278,387,qs),
(317,380,o),
(306,326,qs),
(300,304,o),
(252,207,o),
(250,201,q),
(245,205,l),
(239,207,l),
(243,214,o),
(291,310,o),
(295,328,qs),
(302,371,o),
(276,376,qs),
(254,380,o),
(223,360,qs),
(215,354,o),
(199,341,o),
(182,328,o),
(175,323,q),
(171,328,l),
(168,332,l)
);
},
{
closed = 1;
nodes = (
(214,87,o),
(214,38,qs),
(214,34,o),
(214,19,o),
(214,12,o),
(215,3,o),
(221,-5,o),
(225,-8,q),
(234,-14,o),
(265,-14,q),
(265,-19,l),
(265,-25,l),
(230,-25,o),
(219,-18,qs),
(212,-12,o),
(204,-3,o),
(203,10,o),
(203,19,o),
(203,36,o),
(203,38,qs),
(203,89,o),
(239,207,q),
(245,205,l),
(250,203,l)
);
},
{
closed = 1;
nodes = (
(284,-12,o),
(320,19,o),
(341,49,o),
(355,73,qs),
(499,303,o),
(501,306,q),
(504,303,l),
(510,299,l),
(508,297,o),
(366,67,qs),
(355,50,o),
(346,38,o),
(324,6,o),
(306,-8,o),
(280,-23,o),
(265,-25,q),
(265,-19,l),
(265,-14,l)
);
}
);
};
layerId = "C1F7E582-88BA-4075-9B6B-A932AF1E03E2";
name = "11 Nov 21, 11:41";
shapes = (
{
closed = 1;
nodes = (
(278,714,l),
(258,720,l),
(34,0,l),
(54,-6,l)
);
},
{
closed = 1;
nodes = (
(413,56,o),
(342,-5,o),
(300,-5,cs),
(268,-5,o),
(252,14,o),
(252,42,cs),
(252,137,o),
(365,308,o),
(365,401,cs),
(365,441,o),
(348,465,o),
(312,465,cs),
(186,465,o),
(9,279,o),
(58,171,cs),
(62,162,l),
(80,170,l),
(76,179,ls),
(34,273,o),
(196,445,o),
(312,445,cs),
(337,445,o),
(345,434,o),
(345,401,cs),
(345,314,o),
(232,143,o),
(232,42,cs),
(232,5,o),
(257,-25,o),
(300,-25,cs),
(352,-25,o),
(429,43,o),
(583,337,cs),
(587,346,l),
(570,355,l),
(565,347,ls)
);
}
);
width = 541;
},
{
associatedMasterId = m01;
background = {
shapes = (
{
closed = 1;
nodes = (
(280,689,o),
(276,687,o),
(275,687,q),
(273,693,l),
(271,698,l),
(276,700,o),
(278,700,q),
(280,694,l),
(282,689,l)
);
},
{
closed = 1;
nodes = (
(278,671,o),
(260,625,o),
(230,573,o),
(227,560,qs),
(186,455,o),
(183,446,qs),
(175,422,o),
(155,332,o),
(151,315,q),
(146,315,l),
(140,317,l),
(144,334,o),
(164,426,o),
(172,450,qs),
(175,459,o),
(216,564,qs),
(221,580,o),
(251,630,o),
(267,674,o),
(267,693,q),
(273,693,l),
(278,693,l)
);
},
{
closed = 1;
nodes = (
(146,295,o),
(102,135,qs),
(98,124,o),
(87,95,o),
(80,73,o),
(74,45,o),
(74,34,q),
(69,34,l),
(63,34,l),
(63,50,o),
(72,85,o),
(87,128,o),
(91,137,qs),
(135,297,o),
(140,317,q),
(146,315,l),
(151,315,l)
);
},
{
closed = 1;
nodes = (
(52,28,o),
(59,56,qs),
(59,58,o),
(59,58,q),
(59,85,o),
(67,117,qs),
(91,220,o),
(183,332,q),
(186,328,l),
(192,325,l),
(100,216,o),
(78,115,qs),
(72,84,o),
(72,58,qs),
(72,54,o),
(69,41,o),
(69,34,qs),
(69,28,l)
);
},
{
closed = 1;
nodes = (
(188,336,o),
(221,363,o),
(232,369,q),
(267,393,o),
(293,387,qs),
(332,380,o),
(321,326,qs),
(315,304,o),
(267,207,o),
(265,201,q),
(260,205,l),
(254,207,l),
(258,214,o),
(306,310,o),
(310,328,qs),
(317,371,o),
(291,376,qs),
(269,380,o),
(238,360,qs),
(230,354,o),
(214,341,o),
(197,328,o),
(190,323,q),
(186,328,l),
(183,332,l)
);
},
{
closed = 1;
nodes = (
(229,87,o),
(229,38,qs),
(229,34,o),
(229,19,o),
(229,12,o),
(230,3,o),
(236,-5,o),
(240,-8,q),
(249,-14,o),
(280,-14,q),
(280,-19,l),
(280,-25,l),
(245,-25,o),
(234,-18,qs),
(227,-12,o),
(219,-3,o),
(218,10,o),
(218,19,o),
(218,36,o),
(218,38,qs),
(218,89,o),
(254,207,q),
(260,205,l),
(265,203,l)
);
},
{
closed = 1;
nodes = (
(299,-12,o),
(335,19,o),
(356,49,o),
(370,73,qs),
(514,303,o),
(516,306,q),
(519,303,l),
(525,299,l),
(523,297,o),
(381,67,qs),
(370,50,o),
(361,38,o),
(339,6,o),
(321,-8,o),
(295,-23,o),
(280,-25,q),
(280,-19,l),
(280,-14,l)
);
}
);
};
layerId = "E031695C-5D75-408F-8F25-3C844324E439";
name = "12 Nov 21, 14:01";
shapes = (
{
closed = 1;
nodes = (
(294,714,l),
(273,720,l),
(9,0,l),
(30,-6,l)
);
},
{
closed = 1;
nodes = (
(448,14,o),
(405,-20,o),
(364,-20,cs),
(311,-20,o),
(278,34,o),
(316,119,cs),
(423,356,ls),
(464,447,o),
(431,496,o),
(370,496,cs),
(307,496,o),
(261,443,o),
(161,287,cs),
(131,240,l),
(148,230,l),
(179,279,ls),
(271,424,o),
(321,476,o),
(370,476,cs),
(414,476,o),
(438,441,o),
(403,364,cs),
(297,128,ls),
(250,24,o),
(290,-40,o),
(364,-40,cs),
(417,-40,o),
(460,-5,o),
(563,132,cs),
(642,237,l),
(625,248,l),
(542,138,ls)
);
}
);
width = 556;
}
);
unicode = 104;
},
{
glyphname = i;
lastChange = "2021-11-12 06:33:23 +0000";
layers = (
{
background = {
shapes = (
{
closed = 1;
nodes = (
(-56,110,l),
(-50,104,l),
(-45,99,l),
(-56,89,l),
(-61,94,l),
(-66,99,l)
);
},
{
closed = 1;
nodes = (
(-11,141,o),
(51,193,o),
(111,258,o),
(152,312,o),
(191,364,qs),
(199,375,o),
(228,409,o),
(251,437,o),
(259,453,q),
(264,448,l),
(272,445,l),
(264,429,o),
(241,398,o),
(212,362,o),
(204,354,q),
(132,255,o),
(35,156,o),
(-45,97,q),
(-50,104,l),
(-56,110,l)
);
},
{
closed = 1;
nodes = (
(275,429,o),
(243,364,o),
(189,284,o),
(189,281,q),
(134,185,o),
(134,68,q),
(126,68,l),
(119,68,l),
(119,190,o),
(173,289,qs),
(178,297,o),
(212,349,o),
(236,390,o),
(256,437,o),
(256,448,q),
(264,448,l),
(275,448,l)
);
},
{
closed = 1;
nodes = (
(137,45,o),
(145,29,qs),
(163,-10,o),
(212,13,qs),
(230,24,o),
(269,58,o),
(295,84,o),
(337,133,o),
(355,151,o),
(376,172,o),
(397,195,o),
(405,203,qs),
(410,208,o),
(423,224,o),
(438,240,o),
(444,245,q),
(449,240,l),
(454,234,l),
(451,229,o),
(436,211,o),
(423,198,o),
(415,193,q),
(410,185,o),
(368,143,o),
(358,130,qs),
(350,123,o),
(308,73,o),
(282,45,o),
(241,11,o),
(220,0,qs),
(155,-33,o),
(132,21,qs),
(121,39,o),
(119,68,q),
(126,68,l),
(134,68,l)
);
},
{
closed = 1;
nodes = (
(371,666,l),
(376,674,l),
(379,682,l),
(397,671,l),
(394,666,l),
(392,658,l)
);
},
{
closed = 1;
nodes = (
(368,666,o),
(311,653,o),
(306,648,q),
(308,645,l),
(319,640,o),
(347,637,o),
(394,640,o),
(399,640,q),
(399,632,l),
(399,624,l),
(397,624,o),
(347,622,o),
(314,624,o),
(301,632,qs),
(282,640,o),
(295,669,o),
(358,682,o),
(376,682,q),
(376,674,l),
(376,666,l)
);
},
{
closed = 1;
nodes = (
(399,640,o),
(407,645,o),
(407,645,q),
(397,645,o),
(384,645,o),
(368,643,o),
(368,643,q),
(368,653,l),
(368,661,l),
(368,661,o),
(394,658,qs),
(449,653,o),
(418,632,q),
(418,632,o),
(405,624,q),
(399,632,l),
(397,640,l)
);
}
);
};
layerId = m01;
shapes = (
{
closed = 1;
nodes = (
(228,411,l),
(215,424,l),
(-23,186,l),
(-10,173,l)
);
},
{
closed = 1;
nodes = (
(492,710,l),
(502,701,o),
(505,691,o),
(505,685,cs),
(505,657,o),
(469,628,o),
(426,628,cs),
(397,628,o),
(385,638,o),
(385,650,cs),
(385,669,o),
(407,691,o),
(464,705,c),
(460,723,l),
(398,709,o),
(365,683,o),
(365,650,cs),
(365,625,o),
(389,609,o),
(426,609,cs),
(477,609,o),
(525,645,o),
(525,686,cs),
(525,701,o),
(519,712,o),
(507,722,c)
);
},
{
closed = 1;
nodes = (
(294,-16,o),
(340,7,o),
(417,84,cs),
(561,228,l),
(548,241,l),
(404,97,ls),
(330,23,o),
(288,4,o),
(245,4,cs),
(185,4,o),
(140,48,o),
(140,119,cs),
(140,188,o),
(172,293,o),
(349,501,c),
(332,510,l),
(152,297,o),
(119,189,o),
(119,116,cs),
(119,36,o),
(170,-16,o),
(245,-16,cs)
);
}
);
width = 516;
},
{
background = {
shapes = (
{
closed = 1;
nodes = (
(-27,110,l),
(-21,104,l),
(-16,99,l),
(-27,89,l),
(-32,94,l),
(-37,99,l)
);
},
{
closed = 1;
nodes = (
(18,141,o),
(80,193,o),
(140,258,o),
(181,312,o),
(220,364,qs),
(228,375,o),
(257,409,o),
(280,437,o),
(288,453,q),
(293,448,l),
(301,445,l),
(293,429,o),
(270,398,o),
(241,362,o),
(233,354,q),
(161,255,o),
(64,156,o),
(-16,97,q),
(-21,104,l),
(-27,110,l)
);
},
{
closed = 1;
nodes = (
(304,429,o),
(272,364,o),
(218,284,o),
(218,281,q),
(163,185,o),
(163,68,q),
(155,68,l),
(148,68,l),
(148,190,o),
(202,289,qs),
(207,297,o),
(241,349,o),
(265,390,o),
(285,437,o),
(285,448,q),
(293,448,l),
(304,448,l)
);
},
{
closed = 1;
nodes = (
(166,45,o),
(174,29,qs),
(192,-10,o),
(241,13,qs),
(259,24,o),
(298,58,o),
(324,84,o),
(366,133,o),
(384,151,o),
(405,172,o),
(426,195,o),
(434,203,qs),
(439,208,o),
(452,224,o),
(467,240,o),
(473,245,q),
(478,240,l),
(483,234,l),
(480,229,o),
(465,211,o),
(452,198,o),
(444,193,q),
(439,185,o),
(397,143,o),
(387,130,qs),
(379,123,o),
(337,73,o),
(311,45,o),
(270,11,o),
(249,0,qs),
(184,-33,o),
(161,21,qs),
(150,39,o),
(148,68,q),
(155,68,l),
(163,68,l)
);
},
{
closed = 1;
nodes = (
(400,666,l),
(405,674,l),
(408,682,l),
(426,671,l),
(423,666,l),
(421,658,l)
);
},
{
closed = 1;
nodes = (
(397,666,o),
(340,653,o),
(335,648,q),
(337,645,l),
(348,640,o),
(376,637,o),
(423,640,o),
(428,640,q),
(428,632,l),
(428,624,l),
(426,624,o),
(376,622,o),
(343,624,o),
(330,632,qs),
(311,640,o),
(324,669,o),
(387,682,o),
(405,682,q),
(405,674,l),
(405,666,l)
);
},
{
closed = 1;
nodes = (
(428,640,o),
(436,645,o),
(436,645,q),
(426,645,o),
(413,645,o),
(397,643,o),
(397,643,q),
(397,653,l),
(397,661,l),
(397,661,o),
(423,658,qs),
(478,653,o),
(447,632,q),
(447,632,o),
(434,624,q),
(428,632,l),
(426,640,l)
);
}
);
};
layerId = m002;
shapes = (
{
closed = 1;
nodes = (
(142,302,o),
(79,235,o),
(-43,144,cs),
(-90,109,l),
(-18,13,l),
(31,50,ls),
(154,143,o),
(227,223,o),
(350,384,cs),
(386,431,l),
(290,503,l),
(254,454,ls)
);
},
{
closed = 1;
nodes = (
(363,141,o),
(287,54,o),
(261,54,cs),
(251,54,o),
(245,60,o),
(245,78,cs),
(245,168,o),
(290,263,o),
(402,441,c),
(439,490,l),
(332,559,l),
(302,505,l),
(183,320,o),
(125,193,o),
(125,70,cs),
(125,-11,o),
(175,-66,o),
(244,-66,cs),
(346,-66,o),
(455,64,o),
(564,209,cs),
(600,257,l),
(504,329,l),
(468,281,ls)
);
},
{
closed = 1;
nodes = (
(491,677,o),
(494,675,o),
(494,671,cs),
(494,667,o),
(488,663,o),
(470,663,cs),
(451,663,o),
(442,666,o),
(442,675,cs),
(442,683,o),
(451,687,o),
(482,687,cs),
(542,687,l),
(541,765,l),
(481,765,ls),
(389,765,o),
(344,734,o),
(344,682,cs),
(344,637,o),
(381,599,o),
(468,599,cs),
(554,599,o),
(592,628,o),
(592,675,cs),
(592,718,o),
(559,748,o),
(487,748,cs),
(427,748,l),
(426,677,l),
(477,677,ls)
);
}
);
width = 578;
},
{
associatedMasterId = m01;
background = {
shapes = (
{
closed = 1;
nodes = (
(43,110,l),
(49,104,l),
(54,99,l),
(43,89,l),
(38,94,l),
(33,99,l)
);
},
{
closed = 1;
nodes = (
(88,141,o),
(150,193,o),
(210,258,o),
(251,312,o),
(290,364,qs),
(298,375,o),
(327,409,o),
(350,437,o),
(358,453,q),
(363,448,l),
(371,445,l),
(363,429,o),
(340,398,o),
(311,362,o),
(303,354,q),
(231,255,o),
(134,156,o),
(54,97,q),
(49,104,l),
(43,110,l)
);
},
{
closed = 1;
nodes = (
(374,429,o),
(342,364,o),
(288,284,o),
(288,281,q),
(233,185,o),
(233,68,q),
(225,68,l),
(218,68,l),
(218,190,o),
(272,289,qs),
(277,297,o),
(311,349,o),
(335,390,o),
(355,437,o),
(355,448,q),
(363,448,l),
(374,448,l)
);
},
{
closed = 1;
nodes = (
(236,45,o),
(244,29,qs),
(262,-10,o),
(311,13,qs),
(329,24,o),
(368,58,o),
(394,84,o),
(436,133,o),
(454,151,o),
(475,172,o),
(496,195,o),
(504,203,qs),
(509,208,o),
(522,224,o),
(537,240,o),
(543,245,q),
(548,240,l),
(553,234,l),
(550,229,o),
(535,211,o),
(522,198,o),
(514,193,q),
(509,185,o),
(467,143,o),
(457,130,qs),
(449,123,o),
(407,73,o),
(381,45,o),
(340,11,o),
(319,0,qs),
(254,-33,o),
(231,21,qs),
(220,39,o),
(218,68,q),
(225,68,l),
(233,68,l)
);
},
{
closed = 1;
nodes = (
(470,666,l),
(475,674,l),
(478,682,l),
(496,671,l),
(493,666,l),
(491,658,l)
);
},
{
closed = 1;
nodes = (
(467,666,o),
(410,653,o),
(405,648,q),
(407,645,l),
(418,640,o),
(446,637,o),
(493,640,o),
(498,640,q),
(498,632,l),
(498,624,l),
(496,624,o),
(446,622,o),
(413,624,o),
(400,632,qs),
(381,640,o),
(394,669,o),
(457,682,o),
(475,682,q),
(475,674,l),
(475,666,l)
);
},
{
closed = 1;
nodes = (
(498,640,o),
(506,645,o),
(506,645,q),
(496,645,o),
(483,645,o),
(467,643,o),
(467,643,q),
(467,653,l),
(467,661,l),
(467,661,o),
(493,658,qs),
(548,653,o),
(517,632,q),
(517,632,o),
(504,624,q),
(498,632,l),
(496,640,l)
);
}
);
};
layerId = "ADEED87A-BCFE-4438-BD26-D8678408B719";
name = "12 Nov 21, 12:23";
shapes = (
{
closed = 1;
nodes = (
(353,-16,o),
(429,44,o),
(584,229,c),
(568,241,l),
(414,57,o),
(342,4,o),
(284,4,cs),
(230,4,o),
(195,66,o),
(240,154,cs),
(405,473,l),
(385,479,l),
(222,163,ls),
(169,60,o),
(210,-16,o),
(284,-16,cs)
);
},
{
closed = 1;
nodes = (
(326,410,l),
(314,425,l),
(-52,105,l),
(-40,90,l)
);
},
{
closed = 1;
nodes = (
(510,689,l),
(520,680,o),
(523,671,o),
(523,665,cs),
(523,637,o),
(488,608,o),
(445,608,cs),
(416,608,o),
(405,618,o),
(405,630,cs),
(405,649,o),
(426,670,o),
(483,684,c),
(479,703,l),
(417,689,o),
(384,663,o),
(384,630,cs),
(384,605,o),
(408,589,o),
(445,589,cs),
(496,589,o),
(544,625,o),
(544,666,cs),
(544,681,o),
(538,692,o),
(526,702,c)
);
}
);
width = 538;
}
);
unicode = 105;
},
{
glyphname = j;
lastChange = "2021-11-12 06:36:35 +0000";
layers = (
{
background = {
shapes = (
{
closed = 1;
nodes = (
(79,290,l),
(85,290,l),
(91,290,l),
(91,280,l),
(85,280,l),
(79,280,l)
);
},
{
closed = 1;
nodes = (
(112,308,o),
(172,350,o),
(211,385,o),
(279,448,o),
(294,460,qs),
(296,462,o),
(324,488,o),
(342,504,o),
(371,520,o),
(381,520,q),
(381,514,l),
(381,508,l),
(373,508,o),
(348,492,o),
(332,480,o),
(304,454,o),
(302,452,qs),
(288,439,o),
(239,393,o),
(205,361,o),
(158,324,o),
(112,296,o),
(87,284,q),
(85,290,l),
(83,296,l)
);
},
{
closed = 1;
nodes = (
(393,504,o),
(385,486,qs),
(377,470,o),
(332,387,qs),
(316,361,o),
(288,300,o),
(269,245,o),
(247,178,o),
(235,128,o),
(213,55,o),
(207,31,q),
(201,33,l),
(195,33,l),
(201,57,o),
(237,189,o),
(257,253,o),
(298,352,o),
(320,393,qs),
(367,474,o),
(373,490,qs),
(379,504,o),
(375,510,q),
(381,514,l),
(387,516,l)
);
},
{
closed = 1;
nodes = (
(182,-40,o),
(172,-54,qs),
(138,-115,o),
(14,-194,o),
(-54,-202,q),
(-56,-196,l),
(-56,-190,l),
(10,-182,o),
(128,-105,o),
(162,-48,qs),
(170,-34,o),
(195,35,q),
(201,33,l),
(207,31,l)
);
},
{
closed = 1;
nodes = (
(-109,-202,o),
(-103,-119,qs),
(-99,-85,o),
(-62,-8,o),
(-34,35,o),
(-4,73,q),
(2,69,l),
(6,65,l),
(-22,29,o),
(-52,-14,o),
(-87,-87,o),
(-89,-119,qs),
(-95,-190,o),
(-56,-190,q),
(-56,-196,l),
(-56,-202,l)
);
},
{
closed = 1;
nodes = (
(439,634,l),
(435,640,l),
(433,644,l),
(447,652,l),
(451,646,l),
(454,642,l)
);
},
{
closed = 1;
nodes = (
(441,638,o),
(441,630,o),
(439,622,o),
(439,611,o),
(439,611,q),
(447,607,o),
(462,607,qs),
(474,607,o),
(496,613,o),
(510,624,o),
(510,630,q),
(516,630,l),
(522,630,l),
(522,595,o),
(462,595,qs),
(441,595,o),
(419,607,o),
(429,640,q),
(435,640,l),
(441,640,l)
);
},
{
closed = 1;
nodes = (
(504,634,o),
(445,634,q),
(445,640,l),
(445,646,l),
(447,646,o),
(476,646,o),
(492,646,o),
(514,640,o),
(520,634,q),
(516,630,l),
(512,624,l)
);
}
);
};
layerId = m01;
shapes = (
{
closed = 1;
nodes = (
(104,-214,o),
(155,-123,o),
(174,11,cs),
(203,221,o),
(246,356,o),
(344,506,c),
(328,516,l),
(228,364,o),
(185,226,o),
(154,15,cs),
(136,-108,o),
(94,-194,o),
(-4,-194,cs),
(-60,-194,o),
(-105,-164,o),
(-105,-111,cs),
(-105,-69,o),
(-85,-30,o),
(-28,4,c),
(-40,18,l),
(-102,-20,o),
(-125,-65,o),
(-125,-111,cs),
(-125,-173,o),
(-71,-214,o),
(-4,-214,cs)
);
},
{
closed = 1;
nodes = (
(258,441,l),
(245,454,l),
(-23,186,l),
(-10,173,l)
);
},
{
closed = 1;
nodes = (
(492,710,l),
(502,701,o),
(505,691,o),
(505,685,cs),
(505,657,o),
(469,628,o),
(426,628,cs),
(397,628,o),
(385,638,o),
(385,650,cs),
(385,669,o),
(407,691,o),
(464,705,c),
(460,723,l),
(398,709,o),
(365,683,o),
(365,650,cs),
(365,625,o),
(389,609,o),
(426,609,cs),
(477,609,o),
(525,645,o),
(525,686,cs),
(525,701,o),
(519,712,o),
(507,722,c)
);
}
);
width = 363;
},
{
layerId = m002;
shapes = (
{
closed = 1;
nodes = (
(-94,30,o),
(-133,-50,o),
(-133,-119,cs),
(-133,-205,o),
(-79,-256,o),
(-7,-256,cs),
(75,-256,o),
(262,-162,o),
(298,44,cs),
(325,194,o),
(368,320,o),
(472,458,cs),
(508,506,l),
(412,578,l),
(376,530,ls),
(261,376,o),
(208,226,o),
(180,66,cs),
(154,-78,o),
(36,-136,o),
(2,-136,cs),
(-8,-136,o),
(-13,-130,o),
(-13,-113,cs),
(-13,-80,o),
(7,-36,o),
(70,27,cs),
(112,69,l),
(27,154,l),
(-15,111,ls)
);
},
{
closed = 1;
nodes = (
(31,303,l),
(103,207,l),
(494,504,l),
(422,600,l)
);
},
{
closed = 1;
nodes = (
(546,701,o),
(550,699,o),
(550,693,cs),
(550,689,o),
(547,686,o),
(543,686,cs),
(538,686,o),
(535,689,o),
(535,698,cs),
(535,704,o),
(539,708,o),
(544,711,cs),
(569,728,l),
(521,791,l),
(470,757,ls),
(447,741,o),
(433,715,o),
(433,690,cs),
(433,643,o),
(470,605,o),
(535,605,cs),
(597,605,o),
(646,643,o),
(646,697,cs),
(646,753,o),
(596,785,o),
(520,785,cs),
(460,785,l),
(460,701,l),
(532,701,ls)
);
}
);
width = 483;
}
);
unicode = 106;
},
{
glyphname = k;
lastChange = "2021-11-12 06:44:03 +0000";
layers = (
{
background = {
shapes = (
{
closed = 1;
nodes = (
(221,664,l),
(214,664,l),
(208,664,l),
(208,678,l),
(214,678,l),
(221,678,l)
);
},
{
closed = 1;
nodes = (
(221,643,o),
(223,563,o),
(223,498,o),
(221,470,qs),
(219,452,o),
(183,235,o),
(183,176,q),
(177,176,l),
(170,176,l),
(170,235,o),
(206,456,o),
(208,470,qs),
(210,512,o),
(210,557,o),
(208,643,o),
(208,664,q),
(214,664,l),
(221,664,l)
);
},
{
closed = 1;
nodes = (
(183,147,o),
(181,34,o),
(181,4,q),
(174,4,l),
(168,4,l),
(168,34,o),
(170,147,o),
(170,176,q),
(177,176,l),
(183,176,l)
);
},
{
closed = 1;
nodes = (
(84,300,o),
(82,300,q),
(88,305,l),
(95,307,l),
(97,305,o),
(103,292,o),
(105,288,q),
(99,286,l),
(93,281,l)
);
},
{
closed = 1;
nodes = (
(82,315,o),
(93,338,o),
(111,359,o),
(128,374,o),
(151,395,o),
(153,397,qs),
(162,403,o),
(198,439,o),
(225,462,o),
(265,498,o),
(303,517,o),
(342,531,o),
(382,527,o),
(401,517,q),
(399,512,l),
(395,506,l),
(380,515,o),
(345,519,o),
(307,504,o),
(273,485,o),
(233,452,o),
(208,431,o),
(170,395,o),
(164,386,q),
(160,384,o),
(141,368,o),
(130,357,o),
(111,340,o),
(103,326,o),
(95,311,o),
(95,305,q),
(88,305,l),
(82,305,l)
);
},
{
closed = 1;
nodes = (
(473,470,o),
(403,401,qs),
(389,386,o),
(357,361,o),
(315,334,o),
(294,321,o),
(235,292,o),
(229,288,q),
(227,294,l),
(223,298,l),
(229,302,o),
(288,334,o),
(307,344,o),
(349,372,o),
(380,395,o),
(393,410,qs),
(426,441,o),
(429,481,o),
(395,506,q),
(399,512,l),
(401,517,l)
);
},
{
closed = 1;
nodes = (
(200,265,o),
(208,260,q),
(204,248,l),
(185,256,o),
(164,256,q),
(189,267,l)
);
},
{
closed = 1;
nodes = (
(168,271,o),
(174,273,q),
(181,277,o),
(200,288,o),
(216,296,o),
(225,300,q),
(229,288,l),
(223,286,o),
(191,269,q),
(164,269,l)
);
},
{
closed = 1;
nodes = (
(139,263,l),
(139,263,o),
(141,263,q),
(145,250,l)
);
},
{
closed = 1;
nodes = (
(256,204,o),
(294,90,qs),
(296,86,o),
(307,57,o),
(309,46,o),
(319,23,o),
(328,13,o),
(338,-4,o),
(353,-15,o),
(361,-19,q),
(359,-25,l),
(357,-29,l),
(345,-25,o),
(326,-8,o),
(313,6,o),
(300,36,o),
(296,46,o),
(284,84,o),
(284,86,q),
(246,197,o),
(202,250,q),
(206,254,l),
(210,258,l)
);
},
{
closed = 1;
nodes = (
(376,-25,o),
(405,-27,o),
(429,-19,o),
(452,2,o),
(468,21,o),
(489,55,o),
(500,74,o),
(510,90,q),
(513,99,o),
(515,101,q),
(521,113,o),
(536,139,o),
(552,170,o),
(557,179,q),
(563,176,l),
(567,172,l),
(527,97,o),
(527,95,q),
(525,90,o),
(521,84,qs),
(508,63,o),
(496,40,o),
(471,0,o),
(445,-21,o),
(414,-42,o),
(376,-40,o),
(357,-29,q),
(359,-25,l),
(361,-19,l)
);
}
);
};
layerId = m01;
shapes = (
{
closed = 1;
nodes = (
(317,692,l),
(299,700,l),
(-39,-3,l),
(-21,-11,l)
);
},
{
closed = 1;
nodes = (
(393,-34,o),
(432,-12,o),
(495,51,cs),
(665,221,l),
(652,234,l),
(482,64,ls),
(423,5,o),
(383,-14,o),
(348,-14,cs),
(293,-14,o),
(275,27,o),
(270,103,cs),
(264,186,o),
(243,250,o),
(147,281,c),
(139,263,l),
(225,236,o),
(245,180,o),
(250,102,cs),
(255,18,o),
(277,-34,o),
(348,-34,cs)
);
},
{
closed = 1;
nodes = (
(178,318,l),
(256,432,o),
(330,484,o),
(380,484,cs),
(416,484,o),
(438,459,o),
(438,431,cs),
(438,379,o),
(397,338,o),
(183,305,c),
(185,287,l),
(407,322,o),
(458,368,o),
(458,431,cs),
(458,471,o),
(424,504,o),
(380,504,cs),
(324,504,o),
(243,449,o),
(163,328,c)
);
}
);
width = 627;
},
{
background = {
shapes = (
{
closed = 1;
nodes = (
(221,664,l),
(214,664,l),
(208,664,l),
(208,678,l),
(214,678,l),
(221,678,l)
);
},
{
closed = 1;
nodes = (
(221,643,o),
(223,563,o),
(223,498,o),
(221,470,qs),
(219,452,o),
(183,235,o),
(183,176,q),
(177,176,l),
(170,176,l),
(170,235,o),
(206,456,o),
(208,470,qs),
(210,512,o),
(210,557,o),
(208,643,o),
(208,664,q),
(214,664,l),
(221,664,l)
);
},
{
closed = 1;
nodes = (
(183,147,o),
(181,34,o),
(181,4,q),
(174,4,l),
(168,4,l),
(168,34,o),
(170,147,o),
(170,176,q),
(177,176,l),
(183,176,l)
);
},
{
closed = 1;
nodes = (
(84,300,o),
(82,300,q),
(88,305,l),
(95,307,l),
(97,305,o),
(103,292,o),
(105,288,q),
(99,286,l),
(93,281,l)
);
},
{
closed = 1;
nodes = (
(82,315,o),
(93,338,o),
(111,359,o),
(128,374,o),
(151,395,o),
(153,397,qs),
(162,403,o),
(198,439,o),
(225,462,o),
(265,498,o),
(303,517,o),
(342,531,o),
(382,527,o),
(401,517,q),
(399,512,l),
(395,506,l),
(380,515,o),
(345,519,o),
(307,504,o),
(273,485,o),
(233,452,o),
(208,431,o),
(170,395,o),
(164,386,q),
(160,384,o),
(141,368,o),
(130,357,o),
(111,340,o),
(103,326,o),
(95,311,o),
(95,305,q),
(88,305,l),
(82,305,l)
);
},
{
closed = 1;
nodes = (
(473,470,o),
(403,401,qs),
(389,386,o),
(357,361,o),
(315,334,o),
(294,321,o),
(235,292,o),
(229,288,q),
(227,294,l),
(223,298,l),
(229,302,o),
(288,334,o),
(307,344,o),
(349,372,o),
(380,395,o),
(393,410,qs),
(426,441,o),
(429,481,o),
(395,506,q),
(399,512,l),
(401,517,l)
);
},
{
closed = 1;
nodes = (
(200,265,o),
(208,260,q),
(204,248,l),
(185,256,o),
(164,256,q),
(189,267,l)
);
},
{
closed = 1;
nodes = (
(168,271,o),
(174,273,q),
(181,277,o),
(200,288,o),
(216,296,o),
(225,300,q),
(229,288,l),
(223,286,o),
(191,269,q),
(164,269,l)
);
},
{
closed = 1;
nodes = (
(139,263,l),
(139,263,o),
(141,263,q),
(145,250,l)
);
},
{
closed = 1;
nodes = (
(256,204,o),
(294,90,qs),
(296,86,o),
(307,57,o),
(309,46,o),
(319,23,o),
(328,13,o),
(338,-4,o),
(353,-15,o),
(361,-19,q),
(359,-25,l),
(357,-29,l),
(345,-25,o),
(326,-8,o),
(313,6,o),
(300,36,o),
(296,46,o),
(284,84,o),
(284,86,q),
(246,197,o),
(202,250,q),
(206,254,l),
(210,258,l)
);
},
{
closed = 1;
nodes = (
(376,-25,o),
(405,-27,o),
(429,-19,o),
(452,2,o),
(468,21,o),
(489,55,o),
(500,74,o),
(510,90,q),
(513,99,o),
(515,101,q),
(521,113,o),
(536,139,o),
(552,170,o),
(557,179,q),
(563,176,l),
(567,172,l),
(527,97,o),
(527,95,q),
(525,90,o),
(521,84,qs),
(508,63,o),
(496,40,o),
(471,0,o),
(445,-21,o),
(414,-42,o),
(376,-40,o),
(357,-29,q),
(359,-25,l),
(361,-19,l)
);
}
);
};
layerId = m002;
shapes = (
{
closed = 1;
nodes = (
(314,739,l),
(194,751,l),
(116,-52,l),
(236,-64,l)
);
},
{
closed = 1;
nodes = (
(428,303,o),
(508,363,o),
(508,453,cs),
(508,514,o),
(452,569,o),
(372,569,cs),
(267,569,o),
(64,409,o),
(64,292,cs),
(64,232,l),
(184,232,l),
(184,292,ls),
(184,343,o),
(314,453,o),
(367,453,cs),
(381,453,o),
(388,448,o),
(388,440,cs),
(388,422,o),
(360,400,o),
(153,324,c),
(96,305,l),
(139,189,l),
(196,212,ls)
);
},
{
closed = 1;
nodes = (
(471,50,o),
(447,24,o),
(422,24,cs),
(366,24,o),
(398,241,o),
(248,313,cs),
(193,338,l),
(144,229,l),
(198,205,l),
(302,151,o),
(245,-96,o),
(422,-96,cs),
(510,-96,o),
(570,-20,o),
(647,147,cs),
(671,202,l),
(562,251,l),
(537,197,ls)
);
}
);
width = 670;
}
);
unicode = 107;
},
{
glyphname = l;
lastChange = "2021-11-12 06:38:33 +0000";
layers = (
{
background = {
shapes = (
{
closed = 1;
nodes = (
(-6,128,o),
(-6,128,q),
(0,126,l),
(6,123,l),
(6,121,o),
(2,116,o),
(2,114,q),
(-4,116,l),
(-10,118,l)
);
},
{
closed = 1;
nodes = (
(131,333,o),
(370,542,q),
(374,537,l),
(378,532,l),
(141,322,o),
(6,121,q),
(0,126,l),
(-4,130,l)
);
},
{
closed = 1;
nodes = (
(458,623,o),
(487,650,q),
(487,650,o),
(503,666,o),
(519,682,o),
(539,702,o),
(557,713,o),
(561,713,qs),
(571,711,o),
(567,699,q),
(561,700,l),
(551,695,o),
(497,643,qs),
(467,614,o),
(378,532,q),
(374,537,l),
(370,542,l)
);
},
{
closed = 1;
nodes = (
(429,584,o),
(227,361,q),
(223,365,l),
(217,369,l),
(420,592,o),
(557,707,q),
(561,700,l),
(565,697,l)
);
},
{
closed = 1;
nodes = (
(167,279,o),
(139,193,qs),
(108,102,o),
(121,66,qs),
(125,55,o),
(161,7,q),
(155,3,l),
(151,-1,l),
(112,49,o),
(108,62,qs),
(96,102,o),
(126,194,qs),
(155,283,o),
(217,369,q),
(223,365,l),
(227,361,l)
);
},
{
closed = 1;
nodes = (
(181,-3,o),
(229,-1,o),
(268,15,o),
(314,49,o),
(343,80,o),
(388,126,o),
(400,138,qs),
(408,146,o),
(442,172,o),
(451,180,q),
(454,176,l),
(458,172,l),
(451,162,o),
(416,136,o),
(408,130,q),
(398,118,o),
(354,71,o),
(322,39,o),
(273,3,o),
(232,-15,o),
(179,-15,o),
(153,-1,q),
(155,3,l),
(159,9,l)
);
}
);
};
layerId = m01;
shapes = (
{
closed = 1;
nodes = (
(384,-13,o),
(441,37,o),
(559,155,cs),
(648,244,l),
(635,257,l),
(546,168,ls),
(428,50,o),
(376,7,o),
(318,7,cs),
(259,7,o),
(211,44,o),
(211,113,cs),
(211,258,o),
(300,426,o),
(549,695,c),
(536,708,l),
(284,437,o),
(190,265,o),
(190,113,cs),
(190,31,o),
(250,-13,o),
(318,-13,cs)
);
},
{
closed = 1;
nodes = (
(358,541,l),
(345,554,l),
(-23,186,l),
(-10,173,l)
);
}
);
width = 587;
},
{
background = {
shapes = (
{
closed = 1;
nodes = (
(-6,128,o),
(-6,128,q),
(0,126,l),
(6,123,l),
(6,121,o),
(2,116,o),
(2,114,q),
(-4,116,l),
(-10,118,l)
);
},
{
closed = 1;
nodes = (
(131,333,o),
(370,542,q),
(374,537,l),
(378,532,l),
(141,322,o),
(6,121,q),
(0,126,l),
(-4,130,l)
);
},
{
closed = 1;
nodes = (
(458,623,o),
(487,650,q),
(487,650,o),
(503,666,o),
(519,682,o),
(539,702,o),
(557,713,o),
(561,713,qs),
(571,711,o),
(567,699,q),
(561,700,l),
(551,695,o),
(497,643,qs),
(467,614,o),
(378,532,q),
(374,537,l),
(370,542,l)
);
},
{
closed = 1;
nodes = (
(429,584,o),
(227,361,q),
(223,365,l),
(217,369,l),
(420,592,o),
(557,707,q),
(561,700,l),
(565,697,l)
);
},
{
closed = 1;
nodes = (
(167,279,o),
(139,193,qs),
(108,102,o),
(121,66,qs),
(125,55,o),
(161,7,q),
(155,3,l),
(151,-1,l),
(112,49,o),
(108,62,qs),
(96,102,o),
(126,194,qs),
(155,283,o),
(217,369,q),
(223,365,l),
(227,361,l)
);
},
{
closed = 1;
nodes = (
(181,-3,o),
(229,-1,o),
(268,15,o),
(314,49,o),
(343,80,o),
(388,126,o),
(400,138,qs),
(408,146,o),
(442,172,o),
(451,180,q),
(454,176,l),
(458,172,l),
(451,162,o),
(416,136,o),
(408,130,q),
(398,118,o),
(354,71,o),
(322,39,o),
(273,3,o),
(232,-15,o),
(179,-15,o),
(153,-1,q),
(155,3,l),
(159,9,l)
);
}
);
};
layerId = m002;
shapes = (
{
closed = 1;
nodes = (
(74,84,ls),
(241,312,o),
(413,492,o),
(620,661,cs),
(666,701,l),
(588,791,l),
(544,753,ls),
(331,579,o),
(148,388,o),
(-22,156,cs),
(-58,108,l),
(38,36,l)
);
},
{
closed = 1;
nodes = (
(338,-68,o),
(413,1,o),
(532,132,cs),
(573,178,l),
(482,257,l),
(444,212,ls),
(331,89,o),
(289,52,o),
(238,52,cs),
(212,52,o),
(201,64,o),
(201,93,cs),
(201,222,o),
(389,458,o),
(630,654,cs),
(676,694,l),
(598,784,l),
(554,746,ls),
(301,541,o),
(81,269,o),
(81,93,cs),
(81,9,o),
(151,-68,o),
(238,-68,cs)
);
}
);
width = 596;
}
);
unicode = 108;
},
{
glyphname = m;
lastChange = "2021-11-12 06:46:15 +0000";
layers = (
{
background = {
shapes = (
{
closed = 1;
nodes = (
(32,208,o),
(29,220,o),
(27,222,q),
(34,225,l),
(41,227,l),
(41,225,o),
(45,215,o),
(45,213,q),
(41,211,l),
(34,208,ls)
);
},
{
closed = 1;
nodes = (
(27,236,o),
(39,266,o),
(48,282,o),
(71,314,o),
(71,317,q),
(124,404,o),
(211,475,qs),
(266,519,o),
(308,519,q),
(308,512,l),
(308,505,l),
(271,505,o),
(220,464,qs),
(135,395,o),
(82,310,qs),
(41,243,o),
(41,225,q),
(34,225,l),
(27,225,l)
);
},
{
closed = 1;
nodes = (
(315,487,o),
(317,455,o),
(299,404,o),
(287,374,o),
(257,328,o),
(239,301,o),
(209,257,o),
(200,245,qs),
(179,213,o),
(128,130,q),
(124,133,l),
(117,137,l),
(165,222,o),
(188,254,qs),
(195,264,o),
(246,335,o),
(266,370,o),
(299,432,o),
(305,485,o),
(301,512,q),
(308,512,l),
(315,515,l)
);
},
{
closed = 1;
nodes = (
(133,162,q),
(154,192,o),
(243,312,o),
(264,347,q),
(278,337,l),
(259,312,o),
(211,245,o),
(163,181,o),
(147,156,q),
(147,156,o),
(131,135,qs),
(89,82,o),
(89,93,qs),
(89,96,o),
(98,114,q),
(101,114,o),
(117,137,qs),
(133,162,o)
);
},
{
closed = 1;
nodes = (
(351,448,o),
(395,473,qs),
(423,489,o),
(439,485,qs),
(473,475,o),
(448,402,qs),
(439,374,o),
(427,353,q),
(427,353,o),
(402,310,q),
(398,312,l),
(391,317,l),
(393,321,o),
(404,340,o),
(414,353,o),
(416,358,qs),
(425,379,o),
(434,406,qs),
(455,466,o),
(437,471,qs),
(425,475,o),
(402,462,qs),
(361,436,o),
(276,337,q),
(271,342,l),
(266,347,l)
);
},
{
closed = 1;
nodes = (
(372,257,o),
(328,206,q),
(328,206,o),
(326,204,qs),
(303,172,o),
(292,174,qs),
(282,176,o),
(289,197,qs),
(296,211,o),
(301,220,q),
(301,220,o),
(322,252,q),
(328,248,l),
(333,243,l),
(331,241,o),
(324,227,o),
(317,218,o),
(315,213,qs),
(312,211,l),
(315,213,l),
(317,215,ls),
(361,266,o),
(391,317,q),
(398,312,l),
(402,310,l)
);
},
{
closed = 1;
nodes = (
(418,381,o),
(538,478,qs),
(540,480,o),
(566,503,o),
(579,512,o),
(602,524,o),
(609,524,qs),
(632,521,o),
(625,475,q),
(618,475,l),
(612,478,l),
(616,508,o),
(600,510,o),
(547,466,qs),
(427,372,o),
(333,243,q),
(328,248,l),
(322,252,l)
);
},
{
closed = 1;
nodes = (
(621,462,o),
(609,436,o),
(598,416,o),
(584,395,o),
(570,370,o),
(566,360,qs),
(524,284,o),
(494,227,o),
(453,98,o),
(453,47,q),
(446,47,l),
(439,47,l),
(439,98,o),
(473,213,o),
(508,284,o),
(543,347,qs),
(549,360,o),
(552,367,qs),
(559,381,o),
(586,425,o),
(607,462,o),
(612,478,q),
(618,475,l),
(625,473,l)
);
},
{
closed = 1;
nodes = (
(453,43,o),
(448,8,o),
(446,-12,o),
(450,-35,o),
(455,-42,q),
(478,-54,o),
(536,-31,o),
(554,-12,qs),
(584,15,o),
(646,91,o),
(713,172,o),
(740,199,q),
(745,192,l),
(750,188,l),
(720,158,o),
(600,11,o),
(563,-24,qs),
(552,-35,o),
(515,-56,o),
(462,-70,o),
(446,-52,qs),
(437,-42,o),
(432,-12,o),
(432,11,o),
(437,45,o),
(439,47,q),
(446,47,l),
(453,47,l)
);
}
);
};
layerId = m01;
shapes = (
{
closed = 1;
nodes = (
(513,-10,l),
(661,238,o),
(723,340,o),
(723,428,cs),
(723,480,o),
(693,516,o),
(635,516,cs),
(577,516,o),
(517,479,o),
(403,340,c),
(418,330,l),
(527,463,o),
(585,496,o),
(635,496,cs),
(680,496,o),
(702,469,o),
(702,428,cs),
(702,347,o),
(644,248,o),
(496,0,c)
);
},
{
closed = 1;
nodes = (
(349,228,o),
(410,353,o),
(410,428,cs),
(410,487,o),
(381,515,o),
(344,515,cs),
(311,515,o),
(283,492,o),
(244,453,cs),
(-23,186,l),
(-10,173,l),
(258,441,ls),
(297,480,o),
(322,495,o),
(343,495,cs),
(369,495,o),
(390,476,o),
(390,428,cs),
(390,358,o),
(333,236,o),
(172,-1,c),
(188,-11,l)
);
},
{
closed = 1;
nodes = (
(960,-10,o),
(998,21,o),
(1133,156,cs),
(1206,229,l),
(1192,241,l),
(1119,168,ls),
(989,38,o),
(948,10,o),
(912,10,cs),
(879,10,o),
(854,28,o),
(854,60,cs),
(854,194,o),
(1035,306,o),
(1035,428,cs),
(1035,480,o),
(1005,516,o),
(947,516,cs),
(889,516,o),
(829,479,o),
(715,340,c),
(730,330,l),
(839,463,o),
(897,496,o),
(947,496,cs),
(992,496,o),
(1014,469,o),
(1014,428,cs),
(1014,314,o),
(833,194,o),
(833,60,cs),
(833,15,o),
(867,-10,o),
(912,-10,cs)
);
}
);
width = 1160;
},
{
background = {
shapes = (
{
closed = 1;
nodes = (
(170,208,o),
(167,220,o),
(165,222,q),
(172,225,l),
(179,227,l),
(179,225,o),
(183,215,o),
(183,213,q),
(179,211,l),
(172,208,ls)
);
},
{
closed = 1;
nodes = (
(165,236,o),
(177,266,o),
(186,282,o),
(209,314,o),
(209,317,q),
(262,404,o),
(349,475,qs),
(404,519,o),
(446,519,q),
(446,512,l),
(446,505,l),
(409,505,o),
(358,464,qs),
(273,395,o),
(220,310,qs),
(179,243,o),
(179,225,q),
(172,225,l),
(165,225,l)
);
},
{
closed = 1;
nodes = (
(453,487,o),
(455,455,o),
(437,404,o),
(425,374,o),
(395,328,o),
(377,301,o),
(347,257,o),
(338,245,qs),
(317,213,o),
(266,130,q),
(262,133,l),
(255,137,l),
(303,222,o),
(326,254,qs),
(333,264,o),
(384,335,o),
(404,370,o),
(437,432,o),
(443,485,o),
(439,512,q),
(446,512,l),
(453,515,l)
);
},
{
closed = 1;
nodes = (
(271,162,q),
(292,192,o),
(381,312,o),
(402,347,q),
(416,337,l),
(397,312,o),
(349,245,o),
(301,181,o),
(285,156,q),
(285,156,o),
(269,135,qs),
(227,82,o),
(227,93,qs),
(227,96,o),
(236,114,q),
(239,114,o),
(255,137,qs),
(271,162,o)
);
},
{
closed = 1;
nodes = (
(489,448,o),
(533,473,qs),
(561,489,o),
(577,485,qs),
(611,475,o),
(586,402,qs),
(577,374,o),
(565,353,q),
(565,353,o),
(540,310,q),
(536,312,l),
(529,317,l),
(531,321,o),
(542,340,o),
(552,353,o),
(554,358,qs),
(563,379,o),
(572,406,qs),
(593,466,o),
(575,471,qs),
(563,475,o),
(540,462,qs),
(499,436,o),
(414,337,q),
(409,342,l),
(404,347,l)
);
},
{
closed = 1;
nodes = (
(510,257,o),
(466,206,q),
(466,206,o),
(464,204,qs),
(441,172,o),
(430,174,qs),
(420,176,o),
(427,197,qs),
(434,211,o),
(439,220,q),
(439,220,o),
(460,252,q),
(466,248,l),
(471,243,l),
(469,241,o),
(462,227,o),
(455,218,o),
(453,213,qs),
(450,211,l),
(453,213,l),
(455,215,ls),
(499,266,o),
(529,317,q),
(536,312,l),
(540,310,l)
);
},
{
closed = 1;
nodes = (
(556,381,o),
(676,478,qs),
(678,480,o),
(704,503,o),
(717,512,o),
(740,524,o),
(747,524,qs),
(770,521,o),
(763,475,q),
(756,475,l),
(750,478,l),
(754,508,o),
(738,510,o),
(685,466,qs),
(565,372,o),
(471,243,q),
(466,248,l),
(460,252,l)
);
},
{
closed = 1;
nodes = (
(759,462,o),
(747,436,o),
(736,416,o),
(722,395,o),
(708,370,o),
(704,360,qs),
(662,284,o),
(632,227,o),
(591,98,o),
(591,47,q),
(584,47,l),
(577,47,l),
(577,98,o),
(611,213,o),
(646,284,o),
(681,347,qs),
(687,360,o),
(690,367,qs),
(697,381,o),
(724,425,o),
(745,462,o),
(750,478,q),
(756,475,l),
(763,473,l)
);
},
{
closed = 1;
nodes = (
(591,43,o),
(586,8,o),
(584,-12,o),
(588,-35,o),
(593,-42,q),
(616,-54,o),
(674,-31,o),
(692,-12,qs),
(722,15,o),
(784,91,o),
(851,172,o),
(878,199,q),
(883,192,l),
(888,188,l),
(858,158,o),
(738,11,o),
(701,-24,qs),
(690,-35,o),
(653,-56,o),
(600,-70,o),
(584,-52,qs),
(575,-42,o),
(570,-12,o),
(570,11,o),
(575,45,o),
(577,47,q),
(584,47,l),
(591,47,l)
);
}
);
};
layerId = m002;
shapes = (
{
closed = 1;
nodes = (
(229,541,o),
(114,379,o),
(53,245,cs),
(28,190,l),
(137,141,l),
(161,195,ls),
(215,317,o),
(305,434,o),
(387,452,c),
(445,469,l),
(415,581,l),
(359,569,ls)
);
},
{
closed = 1;
nodes = (
(398,177,o),
(463,349,o),
(524,483,cs),
(549,538,l),
(440,587,l),
(416,533,ls),
(353,392,o),
(294,227,o),
(230,134,cs),
(195,83,l),
(297,16,l),
(329,67,ls)
);
},
{
closed = 1;
nodes = (
(747,246,o),
(813,363,o),
(813,445,cs),
(813,507,o),
(760,544,o),
(679,544,cs),
(598,544,o),
(473,429,o),
(337,231,cs),
(302,180,l),
(404,113,l),
(436,164,l),
(558,341,o),
(653,424,o),
(678,424,cs),
(687,424,o),
(693,419,o),
(693,411,cs),
(693,394,o),
(662,331,o),
(547,216,cs),
(505,174,l),
(590,89,l),
(633,132,ls)
);
},
{
closed = 1;
nodes = (
(943,13,o),
(911,-9,o),
(886,-9,cs),
(876,-9,o),
(869,-2,o),
(869,10,cs),
(869,196,o),
(1067,358,o),
(1067,469,cs),
(1067,523,o),
(1015,565,o),
(942,565,cs),
(861,565,o),
(729,430,o),
(634,303,cs),
(598,255,l),
(694,183,l),
(730,231,ls),
(817,347,o),
(911,445,o),
(930,445,cs),
(936,445,o),
(939,441,o),
(939,436,cs),
(939,389,o),
(749,223,o),
(749,10,cs),
(749,-85,o),
(801,-129,o),
(876,-129,cs),
(945,-129,o),
(1019,-86,o),
(1193,146,cs),
(1229,194,l),
(1133,266,l),
(1097,218,ls)
);
}
);
width = 1249;
},
{
associatedMasterId = m01;
background = {
shapes = (
{
closed = 1;
nodes = (
(32,208,o),
(29,220,o),
(27,222,q),
(34,225,l),
(41,227,l),
(41,225,o),
(45,215,o),
(45,213,q),
(41,211,l),
(34,208,ls)
);
},
{
closed = 1;
nodes = (
(27,236,o),
(39,266,o),
(48,282,o),
(71,314,o),
(71,317,q),
(124,404,o),
(211,475,qs),
(266,519,o),
(308,519,q),
(308,512,l),
(308,505,l),
(271,505,o),
(220,464,qs),
(135,395,o),
(82,310,qs),
(41,243,o),
(41,225,q),
(34,225,l),
(27,225,l)
);
},
{
closed = 1;
nodes = (
(315,487,o),
(317,455,o),
(299,404,o),
(287,374,o),
(257,328,o),
(239,301,o),
(209,257,o),
(200,245,qs),
(179,213,o),
(128,130,q),
(124,133,l),
(117,137,l),
(165,222,o),
(188,254,qs),
(195,264,o),
(246,335,o),
(266,370,o),
(299,432,o),
(305,485,o),
(301,512,q),
(308,512,l),
(315,515,l)
);
},
{
closed = 1;
nodes = (
(133,162,q),
(154,192,o),
(243,312,o),
(264,347,q),
(278,337,l),
(259,312,o),
(211,245,o),
(163,181,o),
(147,156,q),
(147,156,o),
(131,135,qs),
(89,82,o),
(89,93,qs),
(89,96,o),
(98,114,q),
(101,114,o),
(117,137,qs),
(133,162,o)
);
},
{
closed = 1;
nodes = (
(351,448,o),
(395,473,qs),
(423,489,o),
(439,485,qs),
(473,475,o),
(448,402,qs),
(439,374,o),
(427,353,q),
(427,353,o),
(402,310,q),
(398,312,l),
(391,317,l),
(393,321,o),
(404,340,o),
(414,353,o),
(416,358,qs),
(425,379,o),
(434,406,qs),
(455,466,o),
(437,471,qs),
(425,475,o),
(402,462,qs),
(361,436,o),
(276,337,q),
(271,342,l),
(266,347,l)
);
},
{
closed = 1;
nodes = (
(372,257,o),
(328,206,q),
(328,206,o),
(326,204,qs),
(303,172,o),
(292,174,qs),
(282,176,o),
(289,197,qs),
(296,211,o),
(301,220,q),
(301,220,o),
(322,252,q),
(328,248,l),
(333,243,l),
(331,241,o),
(324,227,o),
(317,218,o),
(315,213,qs),
(312,211,l),
(315,213,l),
(317,215,ls),
(361,266,o),
(391,317,q),
(398,312,l),
(402,310,l)
);
},
{
closed = 1;
nodes = (
(418,381,o),
(538,478,qs),
(540,480,o),
(566,503,o),
(579,512,o),
(602,524,o),
(609,524,qs),
(632,521,o),
(625,475,q),
(618,475,l),
(612,478,l),
(616,508,o),
(600,510,o),
(547,466,qs),
(427,372,o),
(333,243,q),
(328,248,l),
(322,252,l)
);
},
{
closed = 1;
nodes = (
(621,462,o),
(609,436,o),
(598,416,o),
(584,395,o),
(570,370,o),
(566,360,qs),
(524,284,o),
(494,227,o),
(453,98,o),
(453,47,q),
(446,47,l),
(439,47,l),
(439,98,o),
(473,213,o),
(508,284,o),
(543,347,qs),
(549,360,o),
(552,367,qs),
(559,381,o),
(586,425,o),
(607,462,o),
(612,478,q),
(618,475,l),
(625,473,l)
);
},
{
closed = 1;
nodes = (
(453,43,o),
(448,8,o),
(446,-12,o),
(450,-35,o),
(455,-42,q),
(478,-54,o),
(536,-31,o),
(554,-12,qs),
(584,15,o),
(646,91,o),
(713,172,o),
(740,199,q),
(745,192,l),
(750,188,l),
(720,158,o),
(600,11,o),
(563,-24,qs),
(552,-35,o),
(515,-56,o),
(462,-70,o),
(446,-52,qs),
(437,-42,o),
(432,-12,o),
(432,11,o),
(437,45,o),
(439,47,q),
(446,47,l),
(453,47,l)
);
}
);
};
layerId = "8573CE9E-08F0-454C-AB18-A63DCD692813";
name = "11 Nov 21, 11:40";
shapes = (
{
closed = 1;
nodes = (
(524,202,o),
(579,331,o),
(579,405,cs),
(579,477,o),
(551,514,o),
(495,514,cs),
(442,514,o),
(362,453,o),
(263,313,c),
(279,301,l),
(371,440,o),
(448,494,o),
(495,494,cs),
(538,494,o),
(559,471,o),
(559,405,cs),
(559,337,o),
(508,210,o),
(424,46,c),
(441,37,l)
);
},
{
closed = 1;
nodes = (
(590,309,l),
(704,489,o),
(775,506,o),
(809,506,cs),
(853,506,o),
(877,471,o),
(842,394,cs),
(716,118,ls),
(669,16,o),
(716,-50,o),
(779,-50,cs),
(836,-50,o),
(879,-15,o),
(982,122,cs),
(1061,227,l),
(1044,238,l),
(966,135,ls),
(867,4,o),
(824,-30,o),
(779,-30,cs),
(730,-30,o),
(696,23,o),
(735,109,cs),
(862,386,ls),
(904,477,o),
(870,526,o),
(809,526,cs),
(765,526,o),
(693,508,o),
(574,319,c)
);
},
{
closed = 1;
nodes = (
(298,415,ls),
(333,494,o),
(297,522,o),
(261,522,cs),
(225,522,o),
(195,496,o),
(157,453,cs),
(104,393,l),
(118,379,l),
(172,440,ls),
(211,484,o),
(236,502,o),
(260,502,cs),
(279,502,o),
(308,486,o),
(276,414,cs),
(95,9,l),
(91,0,l),
(108,-9,l),
(113,-1,l)
);
}
);
width = 878;
},
{
associatedMasterId = m01;
background = {
shapes = (
{
closed = 1;
nodes = (
(32,208,o),
(29,220,o),
(27,222,q),
(34,225,l),
(41,227,l),
(41,225,o),
(45,215,o),
(45,213,q),
(41,211,l),
(34,208,ls)
);
},
{
closed = 1;
nodes = (
(27,236,o),
(39,266,o),
(48,282,o),
(71,314,o),
(71,317,q),
(124,404,o),
(211,475,qs),
(266,519,o),
(308,519,q),
(308,512,l),
(308,505,l),
(271,505,o),
(220,464,qs),
(135,395,o),
(82,310,qs),
(41,243,o),
(41,225,q),
(34,225,l),
(27,225,l)
);
},
{
closed = 1;
nodes = (
(315,487,o),
(317,455,o),
(299,404,o),
(287,374,o),
(257,328,o),
(239,301,o),
(209,257,o),
(200,245,qs),
(179,213,o),
(128,130,q),
(124,133,l),
(117,137,l),
(165,222,o),
(188,254,qs),
(195,264,o),
(246,335,o),
(266,370,o),
(299,432,o),
(305,485,o),
(301,512,q),
(308,512,l),
(315,515,l)
);
},
{
closed = 1;
nodes = (
(133,162,q),
(154,192,o),
(243,312,o),
(264,347,q),
(278,337,l),
(259,312,o),
(211,245,o),
(163,181,o),
(147,156,q),
(147,156,o),
(131,135,qs),
(89,82,o),
(89,93,qs),
(89,96,o),
(98,114,q),
(101,114,o),
(117,137,qs),
(133,162,o)
);
},
{
closed = 1;
nodes = (
(351,448,o),
(395,473,qs),
(423,489,o),
(439,485,qs),
(473,475,o),
(448,402,qs),
(439,374,o),
(427,353,q),
(427,353,o),
(402,310,q),
(398,312,l),
(391,317,l),
(393,321,o),
(404,340,o),
(414,353,o),
(416,358,qs),
(425,379,o),
(434,406,qs),
(455,466,o),
(437,471,qs),
(425,475,o),
(402,462,qs),
(361,436,o),
(276,337,q),
(271,342,l),
(266,347,l)
);
},
{
closed = 1;
nodes = (
(372,257,o),
(328,206,q),
(328,206,o),
(326,204,qs),
(303,172,o),
(292,174,qs),
(282,176,o),
(289,197,qs),
(296,211,o),
(301,220,q),
(301,220,o),
(322,252,q),
(328,248,l),
(333,243,l),
(331,241,o),
(324,227,o),
(317,218,o),
(315,213,qs),
(312,211,l),
(315,213,l),
(317,215,ls),
(361,266,o),
(391,317,q),
(398,312,l),
(402,310,l)
);
},
{
closed = 1;
nodes = (
(418,381,o),
(538,478,qs),
(540,480,o),
(566,503,o),
(579,512,o),
(602,524,o),
(609,524,qs),
(632,521,o),
(625,475,q),
(618,475,l),
(612,478,l),
(616,508,o),
(600,510,o),
(547,466,qs),
(427,372,o),
(333,243,q),
(328,248,l),
(322,252,l)
);
},
{
closed = 1;
nodes = (
(621,462,o),
(609,436,o),
(598,416,o),
(584,395,o),
(570,370,o),
(566,360,qs),
(524,284,o),
(494,227,o),
(453,98,o),
(453,47,q),
(446,47,l),
(439,47,l),
(439,98,o),
(473,213,o),
(508,284,o),
(543,347,qs),
(549,360,o),
(552,367,qs),
(559,381,o),
(586,425,o),
(607,462,o),
(612,478,q),
(618,475,l),
(625,473,l)
);
},
{
closed = 1;
nodes = (
(453,43,o),
(448,8,o),
(446,-12,o),
(450,-35,o),
(455,-42,q),
(478,-54,o),
(536,-31,o),
(554,-12,qs),
(584,15,o),
(646,91,o),
(713,172,o),
(740,199,q),
(745,192,l),
(750,188,l),
(720,158,o),
(600,11,o),
(563,-24,qs),
(552,-35,o),
(515,-56,o),
(462,-70,o),
(446,-52,qs),
(437,-42,o),
(432,-12,o),
(432,11,o),
(437,45,o),
(439,47,q),
(446,47,l),
(453,47,l)
);
}
);
};
layerId = "47CF011D-4559-44F0-9B85-5D29D49720A0";
name = "12 Nov 21, 17:44";
shapes = (
{
closed = 1;
nodes = (
(550,309,l),
(664,489,o),
(735,506,o),
(769,506,cs),
(813,506,o),
(837,471,o),
(802,394,cs),
(676,118,ls),
(629,16,o),
(676,-50,o),
(739,-50,cs),
(796,-50,o),
(839,-15,o),
(942,122,cs),
(1021,227,l),
(1004,238,l),
(926,135,ls),
(827,4,o),
(784,-30,o),
(739,-30,cs),
(690,-30,o),
(656,23,o),
(695,109,cs),
(822,386,ls),
(864,477,o),
(830,526,o),
(769,526,cs),
(725,526,o),
(653,508,o),
(534,319,c)
);
},
{
closed = 1;
nodes = (
(298,415,ls),
(333,494,o),
(297,522,o),
(261,522,cs),
(225,522,o),
(195,496,o),
(157,453,cs),
(104,393,l),
(118,379,l),
(172,440,ls),
(211,484,o),
(236,502,o),
(260,502,cs),
(279,502,o),
(308,486,o),
(276,414,cs),
(95,9,l),
(91,0,l),
(108,-9,l),
(113,-1,l)
);
},
{
closed = 1;
nodes = (
(283,309,l),
(397,489,o),
(468,506,o),
(502,506,cs),
(546,506,o),
(570,471,o),
(535,394,cs),
(386,68,l),
(405,59,l),
(555,386,ls),
(597,477,o),
(563,526,o),
(502,526,cs),
(458,526,o),
(386,508,o),
(267,319,c)
);
}
);
width = 918;
}
);
metricRight = n;
unicode = 109;
},
{
glyphname = n;
lastChange = "2021-11-12 06:36:25 +0000";
layers = (
{
background = {
shapes = (
{
closed = 1;
nodes = (
(83,377,o),
(86,384,o),
(86,393,o),
(86,395,q),
(94,393,l),
(101,393,l),
(99,388,o),
(97,373,o),
(97,373,q),
(90,373,l),
(83,375,l)
);
},
{
closed = 1;
nodes = (
(161,471,o),
(199,495,qs),
(214,504,o),
(225,506,qs),
(252,508,o),
(254,466,qs),
(256,451,o),
(254,439,qs),
(252,420,o),
(247,406,q),
(247,404,o),
(234,366,q),
(228,368,l),
(221,371,l),
(223,375,o),
(230,391,o),
(234,404,o),
(234,408,q),
(239,422,o),
(241,442,qs),
(241,451,o),
(241,464,qs),
(239,493,o),
(225,493,q),
(219,491,o),
(208,484,qs),
(170,459,o),
(99,388,q),
(94,393,l),
(88,397,l)
);
},
{
closed = 1;
nodes = (
(216,317,o),
(139,140,o),
(128,111,q),
(125,109,o),
(110,80,o),
(92,47,o),
(77,18,o),
(77,14,q),
(70,14,l),
(70,20,o),
(90,67,o),
(114,113,o),
(114,116,q),
(128,147,o),
(203,322,o),
(221,371,q),
(228,368,l),
(234,366,l)
);
},
{
closed = 1;
nodes = (
(70,31,o),
(79,69,o),
(97,111,o),
(110,136,o),
(137,184,o),
(139,191,q),
(265,424,o),
(398,522,q),
(401,517,l),
(405,510,l),
(276,415,o),
(152,184,qs),
(150,180,o),
(121,127,o),
(110,104,o),
(92,65,o),
(83,29,o),
(83,14,q),
(77,14,l),
(70,14,l)
);
},
{
closed = 1;
nodes = (
(423,539,o),
(434,542,qs),
(445,542,o),
(456,528,o),
(460,510,o),
(463,493,qs),
(469,455,o),
(469,453,qs),
(469,422,o),
(432,333,o),
(374,229,o),
(367,209,q),
(361,211,l),
(354,213,l),
(363,235,o),
(418,340,o),
(456,426,o),
(456,453,qs),
(456,459,o),
(454,471,o),
(449,486,o),
(449,491,qs),
(447,508,o),
(443,524,o),
(440,528,o),
(436,526,q),
(429,526,o),
(405,510,q),
(401,517,l),
(398,524,l)
);
},
{
closed = 1;
nodes = (
(341,118,o),
(361,16,o),
(414,27,qs),
(427,29,o),
(443,36,qs),
(460,45,o),
(509,87,q),
(514,82,l),
(518,78,l),
(467,33,o),
(449,25,qs),
(432,16,o),
(416,14,qs),
(352,-2,o),
(338,62,qs),
(325,118,o),
(354,213,q),
(361,211,l),
(367,209,l)
);
},
{
closed = 1;
nodes = (
(543,124,o),
(662,262,q),
(669,258,l),
(673,253,l),
(554,116,o),
(520,78,q),
(514,82,l),
(509,87,l)
);
}
);
};
layerId = m01;
shapes = (
{
closed = 1;
nodes = (
(708,-10,o),
(746,21,o),
(881,156,cs),
(954,229,l),
(940,241,l),
(867,168,ls),
(737,38,o),
(696,10,o),
(660,10,cs),
(627,10,o),
(602,28,o),
(602,60,cs),
(602,189,o),
(763,298,o),
(763,415,cs),
(763,475,o),
(727,516,o),
(655,516,cs),
(587,516,o),
(516,471,o),
(383,300,c),
(398,290,l),
(528,455,o),
(596,496,o),
(655,496,cs),
(714,496,o),
(742,464,o),
(742,415,cs),
(742,305,o),
(581,189,o),
(581,60,cs),
(581,15,o),
(615,-10,o),
(660,-10,cs)
);
},
{
closed = 1;
nodes = (
(349,228,o),
(410,353,o),
(410,428,cs),
(410,487,o),
(381,515,o),
(344,515,cs),
(311,515,o),
(283,492,o),
(244,453,cs),
(-23,186,l),
(-10,173,l),
(258,441,ls),
(297,480,o),
(322,495,o),
(343,495,cs),
(369,495,o),
(390,476,o),
(390,428,cs),
(390,358,o),
(333,236,o),
(172,-1,c),
(188,-11,l)
);
}
);
width = 908;
},
{
background = {
shapes = (
{
closed = 1;
nodes = (
(43,377,o),
(46,384,o),
(46,393,o),
(46,395,q),
(54,393,l),
(61,393,l),
(59,388,o),
(57,373,o),
(57,373,q),
(50,373,l),
(43,375,l)
);
},
{
closed = 1;
nodes = (
(121,471,o),
(159,495,qs),
(174,504,o),
(185,506,qs),
(212,508,o),
(214,466,qs),
(216,451,o),
(214,439,qs),
(212,420,o),
(207,406,q),
(207,404,o),
(194,366,q),
(188,368,l),
(181,371,l),
(183,375,o),
(190,391,o),
(194,404,o),
(194,408,q),
(199,422,o),
(201,442,qs),
(201,451,o),
(201,464,qs),
(199,493,o),
(185,493,q),
(179,491,o),
(168,484,qs),
(130,459,o),
(59,388,q),
(54,393,l),
(48,397,l)
);
},
{
closed = 1;
nodes = (
(176,317,o),
(99,140,o),
(88,111,q),
(85,109,o),
(70,80,o),
(52,47,o),
(37,18,o),
(37,14,q),
(30,14,l),
(30,20,o),
(50,67,o),
(74,113,o),
(74,116,q),
(88,147,o),
(163,322,o),
(181,371,q),
(188,368,l),
(194,366,l)
);
},
{
closed = 1;
nodes = (
(30,31,o),
(39,69,o),
(57,111,o),
(70,136,o),
(97,184,o),
(99,191,q),
(225,424,o),
(358,522,q),
(361,517,l),
(365,510,l),
(236,415,o),
(112,184,qs),
(110,180,o),
(81,127,o),
(70,104,o),
(52,65,o),
(43,29,o),
(43,14,q),
(37,14,l),
(30,14,l)
);
},
{
closed = 1;
nodes = (
(383,539,o),
(394,542,qs),
(405,542,o),
(416,528,o),
(420,510,o),
(423,493,qs),
(429,455,o),
(429,453,qs),
(429,422,o),
(392,333,o),
(334,229,o),
(327,209,q),
(321,211,l),
(314,213,l),
(323,235,o),
(378,340,o),
(416,426,o),
(416,453,qs),
(416,459,o),
(414,471,o),
(409,486,o),
(409,491,qs),
(407,508,o),
(403,524,o),
(400,528,o),
(396,526,q),
(389,526,o),
(365,510,q),
(361,517,l),
(358,524,l)
);
},
{
closed = 1;
nodes = (
(301,118,o),
(321,16,o),
(374,27,qs),
(387,29,o),
(403,36,qs),
(420,45,o),
(469,87,q),
(474,82,l),
(478,78,l),
(427,33,o),
(409,25,qs),
(392,16,o),
(376,14,qs),
(312,-2,o),
(298,62,qs),
(285,118,o),
(314,213,q),
(321,211,l),
(327,209,l)
);
},
{
closed = 1;
nodes = (
(503,124,o),
(622,262,q),
(629,258,l),
(633,253,l),
(514,116,o),
(480,78,q),
(474,82,l),
(469,87,l)
);
}
);
};
layerId = m002;
shapes = (
{
closed = 1;
nodes = (
(530,168,o),
(439,60,o),
(394,60,cs),
(384,60,o),
(379,67,o),
(379,88,cs),
(379,172,o),
(519,334,o),
(519,443,cs),
(519,541,o),
(465,576,o),
(413,576,cs),
(312,576,o),
(157,368,o),
(26,133,cs),
(-3,81,l),
(102,22,l),
(132,75,ls),
(254,291,o),
(366,449,o),
(394,449,cs),
(399,449,o),
(401,446,o),
(401,441,cs),
(401,380,o),
(259,218,o),
(259,88,cs),
(259,-9,o),
(321,-60,o),
(394,-60,cs),
(502,-60,o),
(623,94,o),
(712,231,cs),
(744,280,l),
(647,349,l),
(612,295,ls)
);
},
{
closed = 1;
nodes = (
(249,182,o),
(304,375,o),
(304,458,cs),
(304,526,o),
(271,572,o),
(218,572,cs),
(158,572,o),
(109,509,o),
(35,435,cs),
(-7,393,l),
(78,308,l),
(121,351,ls),
(159,389,o),
(167,396,o),
(172,396,cs),
(175,396,o),
(176,394,o),
(176,391,cs),
(176,344,o),
(132,205,o),
(20,31,cs),
(-14,-22,l),
(86,-75,l),
(117,-26,ls)
);
}
);
width = 660;
}
);
unicode = 110;
},
{
glyphname = o;
lastChange = "2021-11-12 02:59:06 +0000";
layers = (
{
background = {
shapes = (
{
closed = 1;
nodes = (
(520,484,l),
(527,489,l),
(532,493,l),
(550,470,l),
(543,466,l),
(539,461,l)
);
},
{
closed = 1;
nodes = (
(511,486,o),
(440,486,qs),
(360,486,o),
(195,367,o),
(129,282,q),
(124,287,l),
(117,291,l),
(282,502,o),
(440,502,qs),
(514,502,o),
(530,495,q),
(527,489,l),
(523,482,l)
);
},
{
closed = 1;
nodes = (
(87,232,o),
(76,214,qs),
(44,161,o),
(44,71,qs),
(44,65,o),
(44,44,o),
(44,39,o),
(51,28,o),
(57,23,q),
(74,7,o),
(110,5,qs),
(135,3,o),
(193,16,q),
(195,10,l),
(195,3,l),
(138,-11,o),
(108,-9,qs),
(67,-6,o),
(46,12,q),
(41,19,o),
(32,28,o),
(30,42,o),
(30,51,o),
(30,67,o),
(30,71,qs),
(30,163,o),
(62,220,qs),
(76,241,o),
(117,291,q),
(124,287,l),
(129,282,l)
);
},
{
closed = 1;
nodes = (
(296,67,o),
(436,184,o),
(507,280,qs),
(511,287,o),
(548,335,o),
(562,353,o),
(582,392,o),
(589,427,o),
(589,447,q),
(598,447,l),
(605,447,l),
(605,424,o),
(596,388,o),
(573,346,o),
(559,326,o),
(523,278,o),
(518,271,qs),
(447,175,o),
(305,55,o),
(197,3,q),
(195,10,l),
(190,14,l)
);
},
{
closed = 1;
nodes = (
(589,479,o),
(555,502,o),
(516,502,qs),
(410,502,o),
(332,429,q),
(328,436,l),
(323,440,l),
(406,516,o),
(516,516,qs),
(605,516,o),
(605,447,q),
(598,447,l),
(589,447,l)
);
},
{
closed = 1;
nodes = (
(330,427,o),
(319,415,o),
(312,406,o),
(307,401,qs),
(296,385,o),
(291,372,qs),
(282,335,o),
(328,326,qs),
(399,310,o),
(536,351,qs),
(546,353,o),
(550,353,q),
(552,346,l),
(555,340,l),
(552,340,o),
(514,328,o),
(507,326,o),
(470,317,o),
(459,314,o),
(426,308,o),
(410,308,o),
(383,305,o),
(362,305,o),
(337,310,o),
(326,312,qs),
(266,326,o),
(277,374,qs),
(282,392,o),
(296,411,q),
(296,411,o),
(323,440,q),
(328,436,l),
(332,429,l)
);
},
{
closed = 1;
nodes = (
(644,390,o),
(738,463,qs),
(786,500,o),
(793,518,q),
(800,518,l),
(807,516,l),
(798,491,o),
(747,452,qs),
(651,379,o),
(555,340,q),
(552,346,l),
(550,353,l)
);
}
);
};
layerId = m01;
shapes = (
{
closed = 1;
nodes = (
(329,-14,o),
(605,252,o),
(605,408,cs),
(605,471,o),
(572,515,o),
(497,515,cs),
(407,515,o),
(314,441,o),
(314,374,cs),
(314,328,o),
(351,293,o),
(426,293,cs),
(585,293,o),
(743,409,o),
(809,511,c),
(793,523,l),
(732,423,o),
(579,313,o),
(426,313,cs),
(362,313,o),
(336,338,o),
(336,374,cs),
(336,429,o),
(422,495,o),
(497,495,cs),
(559,495,o),
(585,461,o),
(585,408,cs),
(585,262,o),
(320,6,o),
(166,6,cs),
(86,6,o),
(42,45,o),
(42,124,cs),
(42,249,o),
(184,414,o),
(333,474,c),
(326,491,l),
(170,430,o),
(22,257,o),
(22,124,cs),
(22,36,o),
(79,-14,o),
(166,-14,cs)
);
}
);
width = 681;
},
{
background = {
shapes = (
{
closed = 1;
nodes = (
(520,484,l),
(527,489,l),
(532,493,l),
(550,470,l),
(543,466,l),
(539,461,l)
);
},
{
closed = 1;
nodes = (
(511,486,o),
(440,486,qs),
(360,486,o),
(195,367,o),
(129,282,q),
(124,287,l),
(117,291,l),
(282,502,o),
(440,502,qs),
(514,502,o),
(530,495,q),
(527,489,l),
(523,482,l)
);
},
{
closed = 1;
nodes = (
(87,232,o),
(76,214,qs),
(44,161,o),
(44,71,qs),
(44,65,o),
(44,44,o),
(44,39,o),
(51,28,o),
(57,23,q),
(74,7,o),
(110,5,qs),
(135,3,o),
(193,16,q),
(195,10,l),
(195,3,l),
(138,-11,o),
(108,-9,qs),
(67,-6,o),
(46,12,q),
(41,19,o),
(32,28,o),
(30,42,o),
(30,51,o),
(30,67,o),
(30,71,qs),
(30,163,o),
(62,220,qs),
(76,241,o),
(117,291,q),
(124,287,l),
(129,282,l)
);
},
{
closed = 1;
nodes = (
(296,67,o),
(436,184,o),
(507,280,qs),
(511,287,o),
(548,335,o),
(562,353,o),
(582,392,o),
(589,427,o),
(589,447,q),
(598,447,l),
(605,447,l),
(605,424,o),
(596,388,o),
(573,346,o),
(559,326,o),
(523,278,o),
(518,271,qs),
(447,175,o),
(305,55,o),
(197,3,q),
(195,10,l),
(190,14,l)
);
},
{
closed = 1;
nodes = (
(589,479,o),
(555,502,o),
(516,502,qs),
(410,502,o),
(332,429,q),
(328,436,l),
(323,440,l),
(406,516,o),
(516,516,qs),
(605,516,o),
(605,447,q),
(598,447,l),
(589,447,l)
);
},
{
closed = 1;
nodes = (
(330,427,o),
(319,415,o),
(312,406,o),
(307,401,qs),
(296,385,o),
(291,372,qs),
(282,335,o),
(328,326,qs),
(399,310,o),
(536,351,qs),
(546,353,o),
(550,353,q),
(552,346,l),
(555,340,l),
(552,340,o),
(514,328,o),
(507,326,o),
(470,317,o),
(459,314,o),
(426,308,o),
(410,308,o),
(383,305,o),
(362,305,o),
(337,310,o),
(326,312,qs),
(266,326,o),
(277,374,qs),
(282,392,o),
(296,411,q),
(296,411,o),
(323,440,q),
(328,436,l),
(332,429,l)
);
},
{
closed = 1;
nodes = (
(644,390,o),
(738,463,qs),
(786,500,o),
(793,518,q),
(800,518,l),
(807,516,l),
(798,491,o),
(747,452,qs),
(651,379,o),
(555,340,q),
(552,346,l),
(550,353,l)
);
}
);
};
layerId = m002;
shapes = (
{
closed = 1;
nodes = (
(725,460,o),
(570,373,o),
(412,373,cs),
(387,373,o),
(379,380,o),
(379,391,cs),
(379,418,o),
(455,450,o),
(539,450,cs),
(557,450,o),
(565,444,o),
(565,431,cs),
(565,321,o),
(284,56,o),
(164,56,cs),
(137,56,o),
(122,68,o),
(122,94,cs),
(122,207,o),
(337,434,o),
(463,434,c),
(463,554,l),
(277,554,o),
(2,264,o),
(2,84,cs),
(2,-9,o),
(68,-64,o),
(156,-64,cs),
(340,-64,o),
(685,259,o),
(685,438,cs),
(685,515,o),
(638,570,o),
(547,570,cs),
(394,570,o),
(255,447,o),
(255,364,cs),
(255,304,o),
(293,253,o),
(412,253,cs),
(607,253,o),
(803,370,o),
(880,483,cs),
(915,534,l),
(813,601,l),
(781,550,ls)
);
}
);
width = 741;
},
{
associatedMasterId = m01;
background = {
shapes = (
{
closed = 1;
nodes = (
(520,484,l),
(527,489,l),
(532,493,l),
(550,470,l),
(543,466,l),
(539,461,l)
);
},
{
closed = 1;
nodes = (
(511,486,o),
(440,486,qs),
(360,486,o),
(195,367,o),
(129,282,q),
(124,287,l),
(117,291,l),
(282,502,o),
(440,502,qs),
(514,502,o),
(530,495,q),
(527,489,l),
(523,482,l)
);
},
{
closed = 1;
nodes = (
(87,232,o),
(76,214,qs),
(44,161,o),
(44,71,qs),
(44,65,o),
(44,44,o),
(44,39,o),
(51,28,o),
(57,23,q),
(74,7,o),
(110,5,qs),
(135,3,o),
(193,16,q),
(195,10,l),
(195,3,l),
(138,-11,o),
(108,-9,qs),
(67,-6,o),
(46,12,q),
(41,19,o),
(32,28,o),
(30,42,o),
(30,51,o),
(30,67,o),
(30,71,qs),
(30,163,o),
(62,220,qs),
(76,241,o),
(117,291,q),
(124,287,l),
(129,282,l)
);
},
{
closed = 1;
nodes = (
(296,67,o),
(436,184,o),
(507,280,qs),
(511,287,o),
(548,335,o),
(562,353,o),
(582,392,o),
(589,427,o),
(589,447,q),
(598,447,l),
(605,447,l),
(605,424,o),
(596,388,o),
(573,346,o),
(559,326,o),
(523,278,o),
(518,271,qs),
(447,175,o),
(305,55,o),
(197,3,q),
(195,10,l),
(190,14,l)
);
},
{
closed = 1;
nodes = (
(589,479,o),
(555,502,o),
(516,502,qs),
(410,502,o),
(332,429,q),
(328,436,l),
(323,440,l),
(406,516,o),
(516,516,qs),
(605,516,o),
(605,447,q),
(598,447,l),
(589,447,l)
);
},
{
closed = 1;
nodes = (
(330,427,o),
(319,415,o),
(312,406,o),
(307,401,qs),
(296,385,o),
(291,372,qs),
(282,335,o),
(328,326,qs),
(399,310,o),
(536,351,qs),
(546,353,o),
(550,353,q),
(552,346,l),
(555,340,l),
(552,340,o),
(514,328,o),
(507,326,o),
(470,317,o),
(459,314,o),
(426,308,o),
(410,308,o),
(383,305,o),
(362,305,o),
(337,310,o),
(326,312,qs),
(266,326,o),
(277,374,qs),
(282,392,o),
(296,411,q),
(296,411,o),
(323,440,q),
(328,436,l),
(332,429,l)
);
},
{
closed = 1;
nodes = (
(644,390,o),
(738,463,qs),
(786,500,o),
(793,518,q),
(800,518,l),
(807,516,l),
(798,491,o),
(747,452,qs),
(651,379,o),
(555,340,q),
(552,346,l),
(550,353,l)
);
}
);
};
layerId = "34777E15-E58B-4AA2-9BD7-15B34D36AA69";
name = "12 Nov 21, 13:52";
shapes = (
{
closed = 1;
nodes = (
(730,423,o),
(573,313,o),
(416,313,cs),
(359,313,o),
(336,338,o),
(336,374,cs),
(336,429,o),
(422,495,o),
(497,495,cs),
(559,495,o),
(585,461,o),
(585,408,cs),
(585,262,o),
(320,6,o),
(166,6,cs),
(86,6,o),
(42,45,o),
(42,124,cs),
(42,249,o),
(184,414,o),
(333,474,c),
(326,491,l),
(170,430,o),
(22,257,o),
(22,124,cs),
(22,36,o),
(79,-14,o),
(166,-14,cs),
(329,-14,o),
(605,252,o),
(605,408,cs),
(605,471,o),
(572,515,o),
(497,515,cs),
(407,515,o),
(314,441,o),
(314,374,cs),
(314,328,o),
(348,293,o),
(416,293,cs),
(579,293,o),
(741,409,o),
(809,511,cs),
(815,520,l),
(798,531,l),
(793,523,ls)
);
}
);
width = 681;
}
);
unicode = 111;
},
{
glyphname = p;
lastChange = "2021-11-12 06:30:43 +0000";
layers = (
{
background = {
shapes = (
{
closed = 1;
nodes = (
(303,495,o),
(293,481,q),
(286,483,l),
(282,488,l),
(282,490,o),
(297,516,q),
(305,514,l),
(310,509,l)
);
},
{
closed = 1;
nodes = (
(196,287,o),
(101,-91,q),
(94,-91,l),
(87,-89,l),
(182,291,o),
(280,488,q),
(286,483,l),
(293,481,l)
);
},
{
closed = 1;
nodes = (
(64,-198,o),
(64,-200,q),
(57,-200,o),
(50,-198,q),
(50,-196,l),
(64,-198,l)
);
},
{
closed = 1;
nodes = (
(87,-137,o),
(87,-137,q),
(85,-147,o),
(68,-176,o),
(66,-184,q),
(66,-189,o),
(64,-200,q),
(50,-198,l),
(52,-179,o),
(52,-172,q),
(57,-154,o),
(61,-128,qs),
(68,-102,o),
(92,-3,o),
(96,20,q),
(103,20,l),
(111,18,l),
(105,-6,o),
(85,-95,o),
(81,-115,q),
(81,-112,o),
(85,-100,o),
(87,-91,o),
(87,-89,q),
(94,-91,l),
(101,-91,l)
);
},
{
closed = 1;
nodes = (
(124,106,o),
(173,230,o),
(262,381,o),
(382,477,o),
(458,495,q),
(460,488,l),
(460,481,l),
(402,467,o),
(301,396,o),
(231,307,o),
(168,182,o),
(131,82,o),
(111,18,q),
(103,20,l),
(96,23,l)
);
},
{
closed = 1;
nodes = (
(518,499,o),
(535,497,qs),
(574,490,o),
(564,427,qs),
(559,409,o),
(537,370,o),
(518,349,o),
(474,309,o),
(469,305,q),
(465,309,l),
(460,314,l),
(465,319,o),
(509,361,o),
(525,379,o),
(548,414,o),
(553,449,o),
(544,481,o),
(532,483,qs),
(518,486,o),
(460,481,q),
(460,488,l),
(458,495,l)
);
},
{
closed = 1;
nodes = (
(458,296,o),
(372,235,o),
(332,213,o),
(262,180,o),
(229,173,qs),
(227,173,o),
(194,164,o),
(168,159,o),
(136,159,o),
(129,166,q),
(136,171,l),
(140,178,l),
(145,171,o),
(227,187,qs),
(251,191,o),
(301,210,o),
(351,241,o),
(386,263,o),
(446,305,o),
(460,314,q),
(465,309,l),
(469,302,l)
);
},
{
closed = 1;
nodes = (
(129,182,o),
(131,189,q),
(138,189,l),
(145,187,l),
(142,180,o),
(142,171,q),
(136,171,l),
(129,173,l)
);
}
);
};
layerId = m01;
shapes = (
{
closed = 1;
nodes = (
(400,5,o),
(595,223,o),
(595,396,cs),
(595,471,o),
(547,516,o),
(475,516,cs),
(345,516,o),
(212,423,o),
(82,292,cs),
(-23,186,l),
(-10,173,l),
(96,279,ls),
(223,406,o),
(349,496,o),
(475,496,cs),
(532,496,o),
(574,462,o),
(574,396,cs),
(574,232,o),
(387,25,o),
(275,25,cs),
(244,25,o),
(215,40,o),
(190,82,c),
(175,69,l),
(205,25,o),
(239,5,o),
(277,5,cs)
);
},
{
closed = 1;
nodes = (
(312,544,l),
(291,550,l),
(54,-200,l),
(76,-206,l)
);
}
);
width = 609;
},
{
background = {
shapes = (
{
closed = 1;
nodes = (
(253,495,o),
(243,481,q),
(236,483,l),
(232,488,l),
(232,490,o),
(247,516,q),
(255,514,l),
(260,509,l)
);
},
{
closed = 1;
nodes = (
(146,287,o),
(51,-91,q),
(44,-91,l),
(37,-89,l),
(132,291,o),
(230,488,q),
(236,483,l),
(243,481,l)
);
},
{
closed = 1;
nodes = (
(14,-198,o),
(14,-200,q),
(7,-200,o),
(0,-198,q),
(0,-196,l),
(14,-198,l)
);
},
{
closed = 1;
nodes = (
(37,-137,o),
(37,-137,q),
(35,-147,o),
(18,-176,o),
(16,-184,q),
(16,-189,o),
(14,-200,q),
(0,-198,l),
(2,-179,o),
(2,-172,q),
(7,-154,o),
(11,-128,qs),
(18,-102,o),
(42,-3,o),
(46,20,q),
(53,20,l),
(61,18,l),
(55,-6,o),
(35,-95,o),
(31,-115,q),
(31,-112,o),
(35,-100,o),
(37,-91,o),
(37,-89,q),
(44,-91,l),
(51,-91,l)
);
},
{
closed = 1;
nodes = (
(74,106,o),
(123,230,o),
(212,381,o),
(332,477,o),
(408,495,q),
(410,488,l),
(410,481,l),
(352,467,o),
(251,396,o),
(181,307,o),
(118,182,o),
(81,82,o),
(61,18,q),
(53,20,l),
(46,23,l)
);
},
{
closed = 1;
nodes = (
(468,499,o),
(485,497,qs),
(524,490,o),
(514,427,qs),
(509,409,o),
(487,370,o),
(468,349,o),
(424,309,o),
(419,305,q),
(415,309,l),
(410,314,l),
(415,319,o),
(459,361,o),
(475,379,o),
(498,414,o),
(503,449,o),
(494,481,o),
(482,483,qs),
(468,486,o),
(410,481,q),
(410,488,l),
(408,495,l)
);
},
{
closed = 1;
nodes = (
(408,296,o),
(322,235,o),
(282,213,o),
(212,180,o),
(179,173,qs),
(177,173,o),
(144,164,o),
(118,159,o),
(86,159,o),
(79,166,q),
(86,171,l),
(90,178,l),
(95,171,o),
(177,187,qs),
(201,191,o),
(251,210,o),
(301,241,o),
(336,263,o),
(396,305,o),
(410,314,q),
(415,309,l),
(419,302,l)
);
},
{
closed = 1;
nodes = (
(79,182,o),
(81,189,q),
(88,189,l),
(95,187,l),
(92,180,o),
(92,171,q),
(86,171,l),
(79,173,l)
);
}
);
};
layerId = m002;
shapes = (
{
closed = 1;
nodes = (
(155,22,o),
(222,240,o),
(328,495,cs),
(352,549,l),
(243,598,l),
(218,543,ls),
(110,280,o),
(39,54,o),
(-14,-181,cs),
(-26,-240,l),
(92,-264,l),
(104,-205,ls)
);
},
{
closed = 1;
nodes = (
(289,-3,o),
(624,272,o),
(624,431,cs),
(624,510,o),
(566,570,o),
(481,570,cs),
(308,570,o),
(51,336,o),
(-5,-65,c),
(-11,-126,l),
(109,-138,l),
(115,-79,ls),
(163,272,o),
(366,450,o),
(478,450,cs),
(495,450,o),
(504,440,o),
(504,424,cs),
(504,342,o),
(247,126,o),
(54,159,c),
(-5,164,l),
(-23,52,l),
(33,40,l)
);
}
);
width = 599;
}
);
unicode = 112;
},
{
glyphname = q;
lastChange = "2021-11-14 04:06:04 +0000";
layers = (
{
background = {
shapes = (
{
closed = 1;
nodes = (
(522,382,o),
(529,397,q),
(533,395,l),
(538,393,l),
(537,389,o),
(531,376,o),
(529,374,q),
(524,376,l),
(520,380,l)
);
},
{
closed = 1;
nodes = (
(565,469,o),
(499,501,qs),
(494,503,o),
(479,507,o),
(462,507,o),
(447,505,o),
(429,505,o),
(423,505,q),
(423,510,l),
(423,516,l),
(427,516,o),
(466,518,o),
(492,516,o),
(503,510,qs),
(542,494,o),
(557,425,o),
(538,393,q),
(533,395,l),
(529,397,l)
);
},
{
closed = 1;
nodes = (
(293,453,o),
(228,348,qs),
(196,298,o),
(194,253,qs),
(194,251,o),
(192,246,q),
(192,235,o),
(200,231,qs),
(207,227,o),
(239,227,q),
(239,222,l),
(239,216,l),
(205,216,o),
(194,222,qs),
(181,227,o),
(181,255,qs),
(183,281,o),
(201,328,o),
(216,354,qs),
(252,410,o),
(354,490,o),
(421,516,q),
(423,510,l),
(425,505,l)
);
},
{
closed = 1;
nodes = (
(354,237,o),
(509,393,qs),
(546,428,o),
(553,445,q),
(559,443,l),
(565,441,l),
(555,421,o),
(516,384,qs),
(360,225,o),
(239,216,q),
(239,222,l),
(239,227,l)
);
},
{
closed = 1;
nodes = (
(553,451,o),
(552,454,q),
(552,454,o),
(546,447,o),
(540,441,o),
(533,434,o),
(531,430,q),
(507,402,o),
(460,341,q),
(460,341,o),
(430,304,q),
(425,307,l),
(421,311,l),
(423,315,o),
(432,326,o),
(440,333,o),
(447,343,o),
(451,348,qs),
(498,410,o),
(522,438,qs),
(524,440,o),
(529,447,o),
(533,453,o),
(540,460,o),
(546,466,o),
(552,469,o),
(557,467,o),
(561,466,q),
(565,460,o),
(565,443,q),
(559,443,l),
(553,443,l)
);
},
{
closed = 1;
nodes = (
(416,283,o),
(371,203,o),
(363,192,qs),
(356,179,o),
(315,114,o),
(296,80,o),
(267,28,o),
(246,-20,o),
(239,-45,q),
(233,-45,l),
(228,-43,l),
(237,-17,o),
(257,34,o),
(285,86,o),
(306,121,o),
(345,184,o),
(354,197,qs),
(360,209,o),
(406,289,o),
(421,311,q),
(425,307,l),
(430,304,l)
);
},
{
closed = 1;
nodes = (
(215,-128,o),
(211,-141,q),
(211,-153,o),
(216,-195,o),
(216,-205,q),
(211,-205,l),
(205,-205,l),
(205,-197,o),
(201,-171,o),
(200,-154,o),
(200,-140,q),
(203,-125,o),
(228,-43,q),
(233,-45,l),
(239,-45,l)
);
},
{
closed = 1;
nodes = (
(216,-201,o),
(224,-203,o),
(229,-201,o),
(233,-197,o),
(239,-192,o),
(242,-186,o),
(250,-177,o),
(252,-175,qs),
(267,-156,o),
(363,-32,q),
(367,-35,l),
(373,-37,l),
(276,-162,o),
(261,-180,qs),
(259,-182,o),
(254,-194,o),
(248,-199,o),
(241,-207,o),
(233,-212,o),
(224,-214,o),
(215,-214,o),
(209,-210,q),
(211,-205,l),
(213,-201,l)
);
},
{
closed = 1;
nodes = (
(401,17,o),
(451,69,qs),
(453,71,o),
(479,86,o),
(481,88,q),
(486,88,l),
(486,86,o),
(483,80,o),
(477,75,o),
(470,69,o),
(464,63,o),
(460,62,o),
(460,62,q),
(410,9,o),
(373,-39,q),
(367,-35,l),
(363,-32,l)
);
},
{
closed = 1;
nodes = (
(294,166,l),
(247,132,o),
(203,112,o),
(167,112,cs),
(115,112,o),
(74,144,o),
(74,231,cs),
(74,386,o),
(248,626,o),
(635,626,c),
(635,646,l),
(235,646,o),
(54,394,o),
(54,231,cs),
(54,137,o),
(107,92,o),
(167,92,cs),
(207,92,o),
(255,114,o),
(306,150,c)
);
}
);
};
layerId = m01;
shapes = (
{
closed = 1;
nodes = (
(425,-87,ls),
(346,-166,o),
(318,-190,o),
(273,-190,cs),
(248,-190,o),
(224,-173,o),
(224,-131,cs),
(224,-22,o),
(355,205,o),
(552,419,c),
(536,431,l),
(336,218,o),
(204,-15,o),
(204,-131,cs),
(204,-184,o),
(237,-210,o),
(273,-210,cs),
(327,-210,o),
(359,-179,o),
(438,-100,cs),
(783,245,l),
(770,258,l)
);
},
{
closed = 1;
nodes = (
(266,150,l),
(229,126,o),
(195,112,o),
(167,112,cs),
(111,112,o),
(75,144,o),
(75,211,cs),
(75,325,o),
(297,505,o),
(449,505,cs),
(541,505,o),
(578,461,o),
(578,378,c),
(598,378,l),
(598,470,o),
(551,525,o),
(449,525,cs),
(288,525,o),
(55,336,o),
(55,211,cs),
(55,135,o),
(106,92,o),
(167,92,cs),
(198,92,o),
(235,107,o),
(276,133,c)
);
}
);
width = 721;
},
{
background = {
shapes = (
{
closed = 1;
nodes = (
(452,382,o),
(459,397,q),
(463,395,l),
(468,393,l),
(467,389,o),
(461,376,o),
(459,374,q),
(454,376,l),
(450,380,l)
);
},
{
closed = 1;
nodes = (
(495,469,o),
(429,501,qs),
(424,503,o),
(409,507,o),
(392,507,o),
(377,505,o),
(359,505,o),
(353,505,q),
(353,510,l),
(353,516,l),
(357,516,o),
(396,518,o),
(422,516,o),
(433,510,qs),
(472,494,o),
(487,425,o),
(468,393,q),
(463,395,l),
(459,397,l)
);
},
{
closed = 1;
nodes = (
(223,453,o),
(158,348,qs),
(126,298,o),
(124,253,qs),
(124,251,o),
(122,246,q),
(122,235,o),
(130,231,qs),
(137,227,o),
(169,227,q),
(169,222,l),
(169,216,l),
(135,216,o),
(124,222,qs),
(111,227,o),
(111,255,qs),
(113,281,o),
(131,328,o),
(146,354,qs),
(182,410,o),
(284,490,o),
(351,516,q),
(353,510,l),
(355,505,l)
);
},
{
closed = 1;
nodes = (
(284,237,o),
(439,393,qs),
(476,428,o),
(483,445,q),
(489,443,l),
(495,441,l),
(485,421,o),
(446,384,qs),
(290,225,o),
(169,216,q),
(169,222,l),
(169,227,l)
);
},
{
closed = 1;
nodes = (
(483,451,o),
(482,454,q),
(482,454,o),
(476,447,o),
(470,441,o),
(463,434,o),
(461,430,q),
(437,402,o),
(390,341,q),
(390,341,o),
(360,304,q),
(355,307,l),
(351,311,l),
(353,315,o),
(362,326,o),
(370,333,o),
(377,343,o),
(381,348,qs),
(428,410,o),
(452,438,qs),
(454,440,o),
(459,447,o),
(463,453,o),
(470,460,o),
(476,466,o),
(482,469,o),
(487,467,o),
(491,466,q),
(495,460,o),
(495,443,q),
(489,443,l),
(483,443,l)
);
},
{
closed = 1;
nodes = (
(346,283,o),
(301,203,o),
(293,192,qs),
(286,179,o),
(245,114,o),
(226,80,o),
(197,28,o),
(176,-20,o),
(169,-45,q),
(163,-45,l),
(158,-43,l),
(167,-17,o),
(187,34,o),
(215,86,o),
(236,121,o),
(275,184,o),
(284,197,qs),
(290,209,o),
(336,289,o),
(351,311,q),
(355,307,l),
(360,304,l)
);
},
{
closed = 1;
nodes = (
(145,-128,o),
(141,-141,q),
(141,-153,o),
(146,-195,o),
(146,-205,q),
(141,-205,l),
(135,-205,l),
(135,-197,o),
(131,-171,o),
(130,-154,o),
(130,-140,q),
(133,-125,o),
(158,-43,q),
(163,-45,l),
(169,-45,l)
);
},
{
closed = 1;
nodes = (
(146,-201,o),
(154,-203,o),
(159,-201,o),
(163,-197,o),
(169,-192,o),
(172,-186,o),
(180,-177,o),
(182,-175,qs),
(197,-156,o),
(293,-32,q),
(297,-35,l),
(303,-37,l),
(206,-162,o),
(191,-180,qs),
(189,-182,o),
(184,-194,o),
(178,-199,o),
(171,-207,o),
(163,-212,o),
(154,-214,o),
(145,-214,o),
(139,-210,q),
(141,-205,l),
(143,-201,l)
);
},
{
closed = 1;
nodes = (
(331,17,o),
(381,69,qs),
(383,71,o),
(409,86,o),
(411,88,q),
(416,88,l),
(416,86,o),
(413,80,o),
(407,75,o),
(400,69,o),
(394,63,o),
(390,62,o),
(390,62,q),
(340,9,o),
(303,-39,q),
(297,-35,l),
(293,-32,l)
);
}
);
};
layerId = m002;
shapes = (
{
closed = 1;
nodes = (
(302,300,o),
(212,247,o),
(171,247,cs),
(161,247,o),
(155,253,o),
(155,265,cs),
(155,320,o),
(312,455,o),
(409,455,cs),
(452,455,o),
(459,444,o),
(432,385,cs),
(408,332,l),
(508,279,l),
(539,328,l),
(610,467,o),
(520,575,o),
(409,575,cs),
(261,575,o),
(35,386,o),
(35,246,cs),
(35,179,o),
(85,127,o),
(159,127,cs),
(249,127,o),
(368,203,o),
(478,287,cs),
(525,323,l),
(453,419,l),
(404,383,l)
);
},
{
closed = 1;
nodes = (
(259,-121,ls),
(249,-134,o),
(242,-140,o),
(235,-140,cs),
(228,-140,o),
(224,-135,o),
(224,-122,cs),
(224,-34,o),
(339,176,o),
(530,397,cs),
(568,441,l),
(478,519,l),
(438,473,ls),
(239,245,o),
(104,4,o),
(104,-145,cs),
(104,-221,o),
(160,-260,o),
(225,-260,cs),
(278,-260,o),
(325,-234,o),
(355,-192,cs),
(563,95,l),
(467,167,l)
);
}
);
width = 571;
}
);
unicode = 113;
},
{
glyphname = r;
lastChange = "2021-11-12 06:09:29 +0000";
layers = (
{
background = {
shapes = (
{
closed = 1;
nodes = (
(172,203,l),
(169,210,o),
(167,213,q),
(174,215,l),
(182,218,l),
(187,208,o),
(187,205,q),
(182,203,l),
(174,200,l)
);
},
{
closed = 1;
nodes = (
(155,220,o),
(130,257,o),
(120,282,o),
(105,332,o),
(102,342,q),
(102,342,o),
(95,357,o),
(87,372,o),
(80,391,o),
(80,411,o),
(87,414,q),
(102,429,o),
(147,456,o),
(179,473,o),
(236,501,o),
(249,506,q),
(251,498,l),
(254,491,l),
(244,486,o),
(187,458,o),
(155,444,o),
(112,416,o),
(97,404,qs),
(95,401,o),
(97,394,o),
(102,379,o),
(110,367,o),
(115,352,o),
(117,347,qs),
(120,337,o),
(132,299,o),
(140,277,o),
(150,252,o),
(167,230,o),
(179,223,q),
(174,215,l),
(169,210,l)
);
},
{
closed = 1;
nodes = (
(306,530,o),
(440,568,qs),
(465,575,o),
(505,583,qs),
(510,583,o),
(520,585,o),
(530,588,o),
(532,590,q),
(542,593,ls),
(549,595,o),
(567,593,o),
(564,583,qs),
(562,573,o),
(547,553,o),
(527,533,o),
(507,518,o),
(485,503,o),
(482,498,q),
(477,506,l),
(472,511,l),
(475,513,o),
(515,543,o),
(539,565,o),
(544,578,q),
(537,575,ls),
(532,573,o),
(515,568,o),
(510,568,qs),
(470,560,o),
(445,553,qs),
(311,516,o),
(254,491,q),
(251,498,l),
(249,506,l)
);
},
{
closed = 1;
nodes = (
(423,446,o),
(415,436,qs),
(363,369,o),
(336,185,q),
(323,136,o),
(333,81,o),
(373,51,q),
(368,46,l),
(363,39,l),
(321,71,o),
(309,138,o),
(321,188,q),
(348,376,o),
(403,444,q),
(410,456,o),
(470,511,q),
(477,506,l),
(482,498,l)
);
},
{
closed = 1;
nodes = (
(440,11,o),
(477,21,qs),
(490,26,o),
(517,39,o),
(544,61,o),
(567,81,o),
(597,113,o),
(616,133,o),
(646,170,o),
(659,185,o),
(689,225,o),
(691,230,q),
(698,225,l),
(703,220,l),
(701,218,o),
(661,163,o),
(644,143,o),
(604,93,o),
(577,69,o),
(537,34,o),
(500,14,o),
(482,6,q),
(438,-6,o),
(366,39,q),
(368,46,l),
(373,54,l)
);
}
);
};
layerId = m01;
shapes = (
{
closed = 1;
nodes = (
(174,199,l),
(190,207,l),
(96,406,l),
(80,398,l)
);
},
{
closed = 1;
nodes = (
(356,560,o),
(212,502,o),
(94,424,c),
(106,408,l),
(220,484,o),
(361,541,o),
(524,563,c),
(520,583,l)
);
},
{
closed = 1;
nodes = (
(520,547,l),
(358,376,o),
(277,238,o),
(277,124,cs),
(277,31,o),
(343,-19,o),
(413,-19,cs),
(462,-19,o),
(522,5,o),
(604,87,cs),
(752,235,l),
(739,248,l),
(591,100,ls),
(510,19,o),
(457,1,o),
(413,1,cs),
(352,1,o),
(297,42,o),
(297,124,cs),
(297,233,o),
(383,371,o),
(535,532,c)
);
}
);
width = 700;
},
{
layerId = m002;
shapes = (
{
closed = 1;
nodes = (
(64,306,o),
(99,221,o),
(159,161,cs),
(202,118,l),
(287,203,l),
(245,245,ls),
(202,288,o),
(180,344,o),
(165,416,c),
(47,392,l)
);
},
{
closed = 1;
nodes = (
(363,597,o),
(213,545,o),
(87,466,c),
(154,366,l),
(262,438,o),
(395,482,o),
(553,514,cs),
(613,526,l),
(589,644,l),
(531,632,ls)
);
},
{
closed = 1;
nodes = (
(564,108,o),
(528,60,o),
(477,60,cs),
(448,60,o),
(400,89,o),
(400,145,cs),
(400,244,o),
(439,377,o),
(625,538,c),
(666,580,l),
(592,665,l),
(545,630,l),
(331,442,o),
(280,265,o),
(280,145,cs),
(280,18,o),
(392,-60,o),
(477,-60,cs),
(587,-60,o),
(657,32,o),
(769,182,cs),
(805,230,l),
(709,302,l),
(673,254,ls)
);
}
);
width = 800;
}
);
unicode = 114;
},
{
glyphname = s;
lastChange = "2021-11-12 06:08:03 +0000";
layers = (
{
background = {
shapes = (
{
closed = 1;
nodes = (
(-71,6,o),
(-82,23,q),
(-76,25,l),
(-71,29,l),
(-67,23,o),
(-52,-1,q),
(-56,-3,l),
(-63,-7,l)
);
},
{
closed = 1;
nodes = (
(-60,79,o),
(9,172,o),
(102,257,o),
(180,317,o),
(297,404,o),
(325,426,q),
(329,421,l),
(334,415,l),
(305,393,o),
(186,306,o),
(111,246,o),
(18,164,o),
(-50,73,o),
(-69,23,q),
(-76,25,l),
(-82,29,l)
);
},
{
closed = 1;
nodes = (
(329,430,o),
(401,477,o),
(446,501,o),
(470,510,qs),
(507,523,o),
(524,516,qs),
(541,510,o),
(561,458,qs),
(587,389,o),
(556,265,q),
(550,268,l),
(543,270,l),
(572,389,o),
(548,454,qs),
(533,499,o),
(520,503,qs),
(511,506,o),
(474,497,q),
(457,490,o),
(416,471,o),
(390,454,o),
(344,421,o),
(334,415,q),
(329,421,l),
(325,426,l)
);
},
{
closed = 1;
nodes = (
(535,190,o),
(520,168,qs),
(470,86,o),
(318,-16,o),
(230,-16,q),
(230,-10,l),
(230,-3,l),
(286,-3,o),
(394,47,o),
(476,125,o),
(509,174,qs),
(522,196,o),
(543,270,q),
(550,268,l),
(556,265,l)
);
},
{
closed = 1;
nodes = (
(210,-5,o),
(195,29,qs),
(171,77,o),
(260,170,o),
(312,185,q),
(314,179,l),
(314,172,l),
(266,157,o),
(189,75,o),
(206,34,qs),
(219,6,o),
(234,-3,q),
(230,-10,l),
(227,-14,l)
);
}
);
};
layerId = m01;
shapes = (
{
closed = 1;
nodes = (
(225,409,o),
(320,473,o),
(498,551,c),
(490,569,l),
(308,491,o),
(213,422,o),
(90,299,cs),
(-23,186,l),
(-10,172,l),
(103,286,ls)
);
},
{
closed = 1;
nodes = (
(383,-16,o),
(508,131,o),
(508,327,cs),
(508,390,o),
(486,454,o),
(454,506,c),
(438,498,l),
(469,445,o),
(488,388,o),
(488,327,cs),
(488,141,o),
(373,4,o),
(231,4,cs),
(160,4,o),
(107,33,o),
(107,89,cs),
(107,133,o),
(140,174,o),
(219,213,c),
(211,231,l),
(127,190,o),
(86,142,o),
(86,89,cs),
(86,22,o),
(154,-16,o),
(231,-16,cs)
);
}
);
width = 558;
},
{
background = {
shapes = (
{
closed = 1;
nodes = (
(-31,6,o),
(-42,23,q),
(-36,25,l),
(-31,29,l),
(-27,23,o),
(-12,-1,q),
(-16,-3,l),
(-23,-7,l)
);
},
{
closed = 1;
nodes = (
(-20,79,o),
(49,172,o),
(142,257,o),
(220,317,o),
(337,404,o),
(365,426,q),
(369,421,l),
(374,415,l),
(345,393,o),
(226,306,o),
(151,246,o),
(58,164,o),
(-10,73,o),
(-29,23,q),
(-36,25,l),
(-42,29,l)
);
},
{
closed = 1;
nodes = (
(369,430,o),
(441,477,o),
(486,501,o),
(510,510,qs),
(547,523,o),
(564,516,qs),
(581,510,o),
(601,458,qs),
(627,389,o),
(596,265,q),
(590,268,l),
(583,270,l),
(612,389,o),
(588,454,qs),
(573,499,o),
(560,503,qs),
(551,506,o),
(514,497,q),
(497,490,o),
(456,471,o),
(430,454,o),
(384,421,o),
(374,415,q),
(369,421,l),
(365,426,l)
);
},
{
closed = 1;
nodes = (
(575,190,o),
(560,168,qs),
(510,86,o),
(358,-16,o),
(270,-16,q),
(270,-10,l),
(270,-3,l),
(326,-3,o),
(434,47,o),
(516,125,o),
(549,174,qs),
(562,196,o),
(583,270,q),
(590,268,l),
(596,265,l)
);
},
{
closed = 1;
nodes = (
(250,-5,o),
(235,29,qs),
(211,77,o),
(300,170,o),
(352,185,q),
(354,179,l),
(354,172,l),
(306,157,o),
(229,75,o),
(246,34,qs),
(259,6,o),
(274,-3,q),
(270,-10,l),
(267,-14,l)
);
}
);
};
layerId = m002;
shapes = (
{
closed = 1;
nodes = (
(46,-3,ls),
(63,119,o),
(187,187,o),
(601,458,c),
(655,488,l),
(586,595,l),
(536,558,l),
(125,291,o),
(-46,197,o),
(-73,13,cs),
(-79,-44,l),
(35,-62,l)
);
},
{
closed = 1;
nodes = (
(479,-70,o),
(700,115,o),
(700,382,cs),
(700,459,o),
(674,525,o),
(626,572,cs),
(584,614,l),
(499,529,l),
(542,486,ls),
(569,460,o),
(580,433,o),
(580,382,cs),
(580,177,o),
(423,50,o),
(338,50,cs),
(325,50,o),
(318,58,o),
(318,67,cs),
(318,83,o),
(331,99,o),
(399,127,cs),
(454,152,l),
(405,261,l),
(351,237,ls),
(251,195,o),
(198,134,o),
(198,62,cs),
(198,-14,o),
(254,-70,o),
(331,-70,cs)
);
}
);
width = 718;
},
{
associatedMasterId = m01;
background = {
shapes = (
{
closed = 1;
nodes = (
(-71,6,o),
(-82,23,q),
(-76,25,l),
(-71,29,l),
(-67,23,o),
(-52,-1,q),
(-56,-3,l),
(-63,-7,l)
);
},
{
closed = 1;
nodes = (
(-60,79,o),
(9,172,o),
(102,257,o),
(180,317,o),
(297,404,o),
(325,426,q),
(329,421,l),
(334,415,l),
(305,393,o),
(186,306,o),
(111,246,o),
(18,164,o),
(-50,73,o),
(-69,23,q),
(-76,25,l),
(-82,29,l)
);
},
{
closed = 1;
nodes = (
(329,430,o),
(401,477,o),
(446,501,o),
(470,510,qs),
(507,523,o),
(524,516,qs),
(541,510,o),
(561,458,qs),
(587,389,o),
(556,265,q),
(550,268,l),
(543,270,l),
(572,389,o),
(548,454,qs),
(533,499,o),
(520,503,qs),
(511,506,o),
(474,497,q),
(457,490,o),
(416,471,o),
(390,454,o),
(344,421,o),
(334,415,q),
(329,421,l),
(325,426,l)
);
},
{
closed = 1;
nodes = (
(535,190,o),
(520,168,qs),
(470,86,o),
(318,-16,o),
(230,-16,q),
(230,-10,l),
(230,-3,l),
(286,-3,o),
(394,47,o),
(476,125,o),
(509,174,qs),
(522,196,o),
(543,270,q),
(550,268,l),
(556,265,l)
);
},
{
closed = 1;
nodes = (
(210,-5,o),
(195,29,qs),
(171,77,o),
(260,170,o),
(312,185,q),
(314,179,l),
(314,172,l),
(266,157,o),
(189,75,o),
(206,34,qs),
(219,6,o),
(234,-3,q),
(230,-10,l),
(227,-14,l)
);
}
);
};
layerId = "C6220D23-AC7E-4235-B11E-8883D2F3B894";
name = "12 Nov 21, 17:05";
shapes = (
{
closed = 1;
nodes = (
(583,566,l),
(571,582,l),
(-188,21,l),
(-176,5,l)
);
},
{
closed = 1;
nodes = (
(411,-16,o),
(578,131,o),
(578,347,cs),
(578,399,o),
(561,449,o),
(530,496,c),
(515,484,l),
(543,440,o),
(558,395,o),
(558,347,cs),
(558,141,o),
(402,4,o),
(311,4,cs),
(251,4,o),
(207,33,o),
(207,89,cs),
(207,133,o),
(240,174,o),
(319,213,c),
(311,231,l),
(227,190,o),
(186,142,o),
(186,89,cs),
(186,22,o),
(244,-16,o),
(311,-16,cs)
);
}
);
width = 638;
}
);
unicode = 115;
},
{
glyphname = t;
lastChange = "2021-11-12 06:05:05 +0000";
layers = (
{
background = {
shapes = (
{
closed = 1;
nodes = (
(431,663,o),
(425,660,q),
(424,665,l),
(420,671,l),
(424,673,o),
(431,676,q),
(435,673,l),
(436,667,l)
);
},
{
closed = 1;
nodes = (
(411,645,o),
(355,593,o),
(318,556,o),
(273,507,o),
(256,483,qs),
(196,402,o),
(145,258,q),
(142,260,l),
(136,262,l),
(187,407,o),
(247,491,qs),
(269,520,o),
(324,578,o),
(404,654,o),
(418,669,q),
(424,665,l),
(427,662,l)
);
},
{
closed = 1;
nodes = (
(111,140,o),
(120,89,qs),
(122,80,o),
(138,58,qs),
(173,13,o),
(229,-11,o),
(284,3,q),
(285,-2,l),
(287,-7,l),
(229,-22,o),
(165,5,o),
(129,51,qs),
(111,76,o),
(109,87,qs),
(98,140,o),
(136,262,q),
(142,260,l),
(147,258,l)
);
},
{
closed = 1;
nodes = (
(393,65,o),
(440,191,q),
(445,189,l),
(451,187,l),
(402,58,o),
(287,-7,q),
(285,-2,l),
(282,3,l)
);
},
{
closed = 1;
nodes = (
(62,382,o),
(69,385,o),
(71,387,q),
(73,382,l),
(75,376,l),
(75,376,o),
(67,373,o),
(64,371,q),
(62,376,l),
(60,382,l)
);
},
{
closed = 1;
nodes = (
(116,387,o),
(313,474,o),
(338,482,q),
(340,476,l),
(340,471,l),
(320,463,o),
(120,376,o),
(73,376,q),
(73,382,l),
(73,387,l)
);
}
);
};
guides = (
{
angle = 45;
pos = (487,186);
},
{
angle = 45;
pos = (500,173);
}
);
layerId = m01;
shapes = (
{
closed = 1;
nodes = (
(277,-19,o),
(338,11,o),
(412,85,cs),
(570,243,l),
(557,256,l),
(399,98,ls),
(327,26,o),
(270,1,o),
(225,1,cs),
(160,1,o),
(103,42,o),
(103,124,cs),
(103,263,o),
(243,449,o),
(480,670,c),
(466,683,l),
(210,448,o),
(83,267,o),
(83,124,cs),
(83,31,o),
(152,-19,o),
(225,-19,cs)
);
},
{
closed = 1;
nodes = (
(550,461,l),
(546,481,l),
(58,386,l),
(62,366,l)
);
}
);
width = 510;
},
{
background = {
shapes = (
{
closed = 1;
nodes = (
(431,663,o),
(425,660,q),
(424,665,l),
(420,671,l),
(424,673,o),
(431,676,q),
(435,673,l),
(436,667,l)
);
},
{
closed = 1;
nodes = (
(411,645,o),
(355,593,o),
(318,556,o),
(273,507,o),
(256,483,qs),
(196,402,o),
(145,258,q),
(142,260,l),
(136,262,l),
(187,407,o),
(247,491,qs),
(269,520,o),
(324,578,o),
(404,654,o),
(418,669,q),
(424,665,l),
(427,662,l)
);
},
{
closed = 1;
nodes = (
(111,140,o),
(120,89,qs),
(122,80,o),
(138,58,qs),
(173,13,o),
(229,-11,o),
(284,3,q),
(285,-2,l),
(287,-7,l),
(229,-22,o),
(165,5,o),
(129,51,qs),
(111,76,o),
(109,87,qs),
(98,140,o),
(136,262,q),
(142,260,l),
(147,258,l)
);
},
{
closed = 1;
nodes = (
(393,65,o),
(440,191,q),
(445,189,l),
(451,187,l),
(402,58,o),
(287,-7,q),
(285,-2,l),
(282,3,l)
);
},
{
closed = 1;
nodes = (
(62,382,o),
(69,385,o),
(71,387,q),
(73,382,l),
(75,376,l),
(75,376,o),
(67,373,o),
(64,371,q),
(62,376,l),
(60,382,l)
);
},
{
closed = 1;
nodes = (
(116,387,o),
(313,474,o),
(338,482,q),
(340,476,l),
(340,471,l),
(320,463,o),
(120,376,o),
(73,376,q),
(73,382,l),
(73,387,l)
);
}
);
};
layerId = m002;
shapes = (
{
closed = 1;
nodes = (
(383,115,o),
(322,51,o),
(275,51,cs),
(237,51,o),
(203,78,o),
(203,124,cs),
(203,251,o),
(306,467,o),
(500,629,cs),
(546,669,l),
(468,759,l),
(424,721,ls),
(205,539,o),
(83,282,o),
(83,124,cs),
(83,6,o),
(181,-69,o),
(275,-69,cs),
(379,-69,o),
(482,42,o),
(533,165,cs),
(557,219,l),
(448,268,l),
(423,213,ls)
);
},
{
closed = 1;
nodes = (
(276,491,o),
(183,454,o),
(79,435,cs),
(19,423,l),
(43,305,l),
(101,317,ls),
(217,338,o),
(327,383,o),
(427,438,cs),
(480,468,l),
(421,573,l),
(369,544,ls)
);
}
);
width = 540;
}
);
unicode = 116;
},
{
glyphname = u;
lastChange = "2021-11-12 06:03:43 +0000";
layers = (
{
background = {
shapes = (
{
closed = 1;
nodes = (
(250,494,o),
(240,488,o),
(238,486,q),
(234,492,l),
(232,496,l),
(234,498,o),
(244,504,o),
(246,506,q),
(250,500,l),
(252,496,l)
);
},
{
closed = 1;
nodes = (
(240,474,o),
(213,425,o),
(171,371,o),
(167,363,qs),
(127,292,o),
(94,161,q),
(88,163,l),
(82,165,l),
(114,296,o),
(157,369,q),
(161,379,o),
(201,433,o),
(228,478,o),
(228,492,q),
(234,492,l),
(240,492,l)
);
},
{
closed = 1;
nodes = (
(86,128,o),
(88,60,o),
(108,38,qs),
(141,3,o),
(163,13,qs),
(169,17,o),
(211,64,q),
(217,60,l),
(221,56,l),
(175,5,o),
(169,3,q),
(139,-15,o),
(100,29,qs),
(76,56,o),
(72,132,o),
(82,165,q),
(88,163,l),
(94,163,l)
);
},
{
closed = 1;
nodes = (
(454,474,o),
(415,393,qs),
(401,363,o),
(337,215,q),
(333,217,l),
(327,221,l),
(389,369,o),
(403,399,qs),
(444,484,o),
(478,506,q),
(482,500,l),
(486,496,l)
);
},
{
closed = 1;
nodes = (
(428,66,o),
(527,195,q),
(533,191,l),
(537,187,l),
(436,56,o),
(379,11,q),
(375,15,l),
(371,19,l)
);
},
{
closed = 1;
nodes = (
(386,16,o),
(372,38,o),
(372,68,cs),
(372,146,o),
(438,303,o),
(493,428,cs),
(497,437,l),
(479,445,l),
(475,436,ls),
(420,311,o),
(352,150,o),
(352,68,cs),
(352,31,o),
(374,-4,o),
(427,-4,cs),
(437,-4,l),
(437,16,l),
(427,16,ls)
);
},
{
closed = 1;
nodes = (
(548,134,o),
(499,76,o),
(439,23,cs),
(431,16,l),
(444,1,l),
(451,7,ls),
(514,61,o),
(566,120,o),
(603,179,cs),
(608,187,l),
(591,198,l),
(585,189,ls)
);
},
{
ref = n;
}
);
};
layerId = m01;
shapes = (
{
closed = 1;
nodes = (
(292,510,o),
(264,473,o),
(136,345,cs),
(-23,186,l),
(-10,173,l),
(149,332,ls),
(273,456,o),
(303,490,o),
(336,490,cs),
(358,490,o),
(374,476,o),
(374,450,cs),
(374,351,o),
(203,212,o),
(203,95,cs),
(203,29,o),
(242,-16,o),
(321,-16,cs),
(389,-16,o),
(469,28,o),
(593,200,c),
(578,210,l),
(457,44,o),
(380,4,o),
(321,4,cs),
(255,4,o),
(224,40,o),
(224,95,cs),
(224,205,o),
(395,351,o),
(395,450,cs),
(395,489,o),
(370,510,o),
(336,510,cs)
);
},
{
closed = 1;
nodes = (
(627,272,o),
(566,147,o),
(566,72,cs),
(566,13,o),
(602,-15,o),
(642,-15,cs),
(678,-15,o),
(713,2,o),
(752,41,cs),
(939,228,l),
(926,241,l),
(738,53,ls),
(699,14,o),
(666,5,o),
(643,5,cs),
(611,5,o),
(586,24,o),
(586,72,cs),
(586,142,o),
(643,264,o),
(804,501,c),
(788,511,l)
);
}
);
width = 894;
},
{
background = {
shapes = (
{
closed = 1;
nodes = (
(250,494,o),
(240,488,o),
(238,486,q),
(234,492,l),
(232,496,l),
(234,498,o),
(244,504,o),
(246,506,q),
(250,500,l),
(252,496,l)
);
},
{
closed = 1;
nodes = (
(240,474,o),
(213,425,o),
(171,371,o),
(167,363,qs),
(127,292,o),
(94,161,q),
(88,163,l),
(82,165,l),
(114,296,o),
(157,369,q),
(161,379,o),
(201,433,o),
(228,478,o),
(228,492,q),
(234,492,l),
(240,492,l)
);
},
{
closed = 1;
nodes = (
(86,128,o),
(88,60,o),
(108,38,qs),
(141,3,o),
(163,13,qs),
(169,17,o),
(211,64,q),
(217,60,l),
(221,56,l),
(175,5,o),
(169,3,q),
(139,-15,o),
(100,29,qs),
(76,56,o),
(72,132,o),
(82,165,q),
(88,163,l),
(94,163,l)
);
},
{
closed = 1;
nodes = (
(232,88,o),
(272,151,o),
(298,197,o),
(341,272,o),
(351,292,qs),
(365,314,o),
(424,399,o),
(466,470,o),
(476,502,q),
(482,500,l),
(488,498,l),
(476,464,o),
(434,391,o),
(375,308,o),
(363,286,qs),
(353,270,o),
(290,159,o),
(248,90,o),
(221,56,q),
(217,60,l),
(211,64,l)
);
},
{
closed = 1;
nodes = (
(454,474,o),
(415,393,qs),
(401,363,o),
(337,215,q),
(333,217,l),
(327,221,l),
(389,369,o),
(403,399,qs),
(444,484,o),
(478,506,q),
(482,500,l),
(486,496,l)
);
},
{
closed = 1;
nodes = (
(302,112,o),
(306,68,qs),
(306,36,o),
(325,25,qs),
(333,21,o),
(375,21,q),
(375,15,l),
(375,9,l),
(329,9,o),
(318,15,qs),
(294,29,o),
(292,68,qs),
(292,82,o),
(294,110,o),
(298,130,o),
(306,163,o),
(310,177,o),
(325,215,o),
(327,219,q),
(333,217,l),
(339,215,l)
);
},
{
closed = 1;
nodes = (
(428,66,o),
(527,195,q),
(533,191,l),
(537,187,l),
(436,56,o),
(379,11,q),
(375,15,l),
(371,19,l)
);
}
);
};
layerId = m002;
shapes = (
{
closed = 1;
nodes = (
(292,-60,o),
(390,69,o),
(577,481,cs),
(602,536,l),
(493,585,l),
(469,531,l),
(278,146,o),
(225,68,o),
(191,68,cs),
(177,68,o),
(168,80,o),
(168,99,cs),
(168,189,o),
(238,341,o),
(328,463,cs),
(364,512,l),
(268,584,l),
(232,537,ls),
(129,402,o),
(48,216,o),
(48,99,cs),
(48,-6,o),
(106,-60,o),
(180,-60,cs)
);
},
{
closed = 1;
nodes = (
(447,-54,l),
(447,66,l),
(400,66,ls),
(390,66,o),
(382,72,o),
(382,86,cs),
(382,136,o),
(445,283,o),
(499,407,cs),
(523,462,l),
(414,511,l),
(389,457,ls),
(330,330,o),
(262,161,o),
(262,68,cs),
(262,-2,o),
(303,-54,o),
(364,-54,cs)
);
},
{
closed = 1;
nodes = (
(503,-31,ls),
(571,25,o),
(627,90,o),
(666,153,cs),
(696,202,l),
(597,267,l),
(563,216,ls),
(531,162,o),
(486,110,o),
(427,61,cs),
(381,21,l),
(459,-69,l)
);
}
);
width = 688;
},
{
associatedMasterId = m01;
background = {
shapes = (
{
closed = 1;
nodes = (
(250,494,o),
(240,488,o),
(238,486,q),
(234,492,l),
(232,496,l),
(234,498,o),
(244,504,o),
(246,506,q),
(250,500,l),
(252,496,l)
);
},
{
closed = 1;
nodes = (
(240,474,o),
(213,425,o),
(171,371,o),
(167,363,qs),
(127,292,o),
(94,161,q),
(88,163,l),
(82,165,l),
(114,296,o),
(157,369,q),
(161,379,o),
(201,433,o),
(228,478,o),
(228,492,q),
(234,492,l),
(240,492,l)
);
},
{
closed = 1;
nodes = (
(86,128,o),
(88,60,o),
(108,38,qs),
(141,3,o),
(163,13,qs),
(169,17,o),
(211,64,q),
(217,60,l),
(221,56,l),
(175,5,o),
(169,3,q),
(139,-15,o),
(100,29,qs),
(76,56,o),
(72,132,o),
(82,165,q),
(88,163,l),
(94,163,l)
);
},
{
closed = 1;
nodes = (
(454,474,o),
(415,393,qs),
(401,363,o),
(337,215,q),
(333,217,l),
(327,221,l),
(389,369,o),
(403,399,qs),
(444,484,o),
(478,506,q),
(482,500,l),
(486,496,l)
);
},
{
closed = 1;
nodes = (
(428,66,o),
(527,195,q),
(533,191,l),
(537,187,l),
(436,56,o),
(379,11,q),
(375,15,l),
(371,19,l)
);
},
{
closed = 1;
nodes = (
(386,16,o),
(372,38,o),
(372,68,cs),
(372,146,o),
(438,303,o),
(493,428,cs),
(497,437,l),
(479,445,l),
(475,436,ls),
(420,311,o),
(352,150,o),
(352,68,cs),
(352,31,o),
(374,-4,o),
(427,-4,cs),
(437,-4,l),
(437,16,l),
(427,16,ls)
);
},
{
closed = 1;
nodes = (
(548,134,o),
(499,76,o),
(439,23,cs),
(431,16,l),
(444,1,l),
(451,7,ls),
(514,61,o),
(566,120,o),
(603,179,cs),
(608,187,l),
(591,198,l),
(585,189,ls)
);
}
);
};
layerId = "CE44A788-271D-45E0-B062-CF661FF90C02";
name = "12 Nov 21, 17:01";
shapes = (
{
closed = 1;
nodes = (
(171,-10,o),
(240,25,o),
(351,169,c),
(333,178,l),
(226,40,o),
(162,10,o),
(120,10,cs),
(67,10,o),
(7,53,o),
(49,150,cs),
(200,500,l),
(182,506,l),
(31,156,ls),
(-16,46,o),
(51,-10,o),
(120,-10,cs)
);
},
{
closed = 1;
nodes = (
(454,-10,o),
(508,25,o),
(601,169,c),
(583,178,l),
(495,40,o),
(446,10,o),
(404,10,cs),
(363,10,o),
(333,42,o),
(363,111,cs),
(530,500,l),
(512,506,l),
(344,117,ls),
(309,35,o),
(352,-10,o),
(404,-10,cs)
);
}
);
width = 568;
}
);
unicode = 117;
},
{
glyphname = v;
lastChange = "2021-11-12 06:18:39 +0000";
layers = (
{
background = {
shapes = (
{
closed = 1;
nodes = (
(65,493,o),
(67,496,qs),
(69,498,o),
(69,500,q),
(76,496,l),
(83,493,l),
(81,491,o),
(78,487,o),
(76,484,q),
(72,489,l),
(65,491,l)
);
},
{
closed = 1;
nodes = (
(85,505,o),
(103,491,o),
(114,478,o),
(128,451,o),
(132,437,o),
(141,412,o),
(141,412,q),
(159,363,o),
(258,166,o),
(278,109,q),
(272,107,l),
(265,105,l),
(247,159,o),
(146,356,o),
(128,408,qs),
(99,489,o),
(76,489,q),
(76,496,l),
(76,505,l)
);
},
{
closed = 1;
nodes = (
(296,71,o),
(319,35,qs),
(321,33,o),
(323,24,o),
(328,13,o),
(332,6,q),
(339,6,l),
(339,-5,o),
(330,-3,qs),
(325,-1,o),
(307,29,qs),
(285,65,o),
(265,103,q),
(272,107,l),
(278,109,l)
);
},
{
closed = 1;
nodes = (
(325,22,o),
(332,53,o),
(343,89,o),
(352,109,o),
(373,150,o),
(377,157,qs),
(384,172,o),
(453,332,o),
(474,372,qs),
(478,381,o),
(500,412,o),
(505,419,qs),
(512,433,o),
(536,496,o),
(545,511,q),
(552,507,l),
(559,505,l),
(552,491,o),
(539,460,o),
(523,426,o),
(516,412,qs),
(512,406,o),
(500,388,o),
(489,372,o),
(487,365,q),
(465,325,o),
(397,168,o),
(388,152,q),
(386,143,o),
(366,103,o),
(357,83,o),
(346,51,o),
(339,22,o),
(339,6,q),
(332,6,l),
(325,6,l)
);
},
{
closed = 1;
nodes = (
(552,525,o),
(557,529,q),
(561,525,l),
(566,520,l),
(563,518,o),
(559,505,q),
(552,507,l),
(545,511,l)
);
},
{
closed = 1;
nodes = (
(568,522,l),
(561,522,l),
(554,522,l),
(554,525,l),
(561,525,l),
(568,525,l)
);
}
);
};
layerId = m01;
shapes = (
{
closed = 1;
nodes = (
(553,69,o),
(689,281,o),
(729,507,c),
(709,511,l),
(670,289,o),
(539,85,o),
(337,16,c),
(343,-2,l)
);
},
{
closed = 1;
nodes = (
(289,472,l),
(276,485,l),
(14,223,l),
(27,210,l)
);
},
{
closed = 1;
nodes = (
(322,-3,l),
(322,500,l),
(302,500,l),
(302,-3,l)
);
}
);
width = 713;
},
{
background = {
shapes = (
{
closed = 1;
nodes = (
(65,493,o),
(67,496,qs),
(69,498,o),
(69,500,q),
(76,496,l),
(83,493,l),
(81,491,o),
(78,487,o),
(76,484,q),
(72,489,l),
(65,491,l)
);
},
{
closed = 1;
nodes = (
(85,505,o),
(103,491,o),
(114,478,o),
(128,451,o),
(132,437,o),
(141,412,o),
(141,412,q),
(159,363,o),
(258,166,o),
(278,109,q),
(272,107,l),
(265,105,l),
(247,159,o),
(146,356,o),
(128,408,qs),
(99,489,o),
(76,489,q),
(76,496,l),
(76,505,l)
);
},
{
closed = 1;
nodes = (
(296,71,o),
(319,35,qs),
(321,33,o),
(323,24,o),
(328,13,o),
(332,6,q),
(339,6,l),
(339,-5,o),
(330,-3,qs),
(325,-1,o),
(307,29,qs),
(285,65,o),
(265,103,q),
(272,107,l),
(278,109,l)
);
},
{
closed = 1;
nodes = (
(325,22,o),
(332,53,o),
(343,89,o),
(352,109,o),
(373,150,o),
(377,157,qs),
(384,172,o),
(453,332,o),
(474,372,qs),
(478,381,o),
(500,412,o),
(505,419,qs),
(512,433,o),
(536,496,o),
(545,511,q),
(552,507,l),
(559,505,l),
(552,491,o),
(539,460,o),
(523,426,o),
(516,412,qs),
(512,406,o),
(500,388,o),
(489,372,o),
(487,365,q),
(465,325,o),
(397,168,o),
(388,152,q),
(386,143,o),
(366,103,o),
(357,83,o),
(346,51,o),
(339,22,o),
(339,6,q),
(332,6,l),
(325,6,l)
);
},
{
closed = 1;
nodes = (
(552,525,o),
(557,529,q),
(561,525,l),
(566,520,l),
(563,518,o),
(559,505,q),
(552,507,l),
(545,511,l)
);
},
{
closed = 1;
nodes = (
(568,522,l),
(561,522,l),
(554,522,l),
(554,525,l),
(561,525,l),
(568,525,l)
);
}
);
};
layerId = m002;
shapes = (
{
closed = 1;
nodes = (
(183,579,l),
(74,530,l),
(345,-80,l),
(454,-31,l)
);
},
{
closed = 1;
nodes = (
(513,375,o),
(348,193,o),
(323,43,c),
(318,-16,l),
(430,-34,l),
(442,23,l),
(460,139,o),
(623,317,o),
(662,487,cs),
(674,547,l),
(556,571,l),
(544,512,ls)
);
}
);
width = 625;
},
{
associatedMasterId = m01;
background = {
shapes = (
{
closed = 1;
nodes = (
(65,493,o),
(67,496,qs),
(69,498,o),
(69,500,q),
(76,496,l),
(83,493,l),
(81,491,o),
(78,487,o),
(76,484,q),
(72,489,l),
(65,491,l)
);
},
{
closed = 1;
nodes = (
(85,505,o),
(103,491,o),
(114,478,o),
(128,451,o),
(132,437,o),
(141,412,o),
(141,412,q),
(159,363,o),
(258,166,o),
(278,109,q),
(272,107,l),
(265,105,l),
(247,159,o),
(146,356,o),
(128,408,qs),
(99,489,o),
(76,489,q),
(76,496,l),
(76,505,l)
);
},
{
closed = 1;
nodes = (
(296,71,o),
(319,35,qs),
(321,33,o),
(323,24,o),
(328,13,o),
(332,6,q),
(339,6,l),
(339,-5,o),
(330,-3,qs),
(325,-1,o),
(307,29,qs),
(285,65,o),
(265,103,q),
(272,107,l),
(278,109,l)
);
},
{
closed = 1;
nodes = (
(325,22,o),
(332,53,o),
(343,89,o),
(352,109,o),
(373,150,o),
(377,157,qs),
(384,172,o),
(453,332,o),
(474,372,qs),
(478,381,o),
(500,412,o),
(505,419,qs),
(512,433,o),
(536,496,o),
(545,511,q),
(552,507,l),
(559,505,l),
(552,491,o),
(539,460,o),
(523,426,o),
(516,412,qs),
(512,406,o),
(500,388,o),
(489,372,o),
(487,365,q),
(465,325,o),
(397,168,o),
(388,152,q),
(386,143,o),
(366,103,o),
(357,83,o),
(346,51,o),
(339,22,o),
(339,6,q),
(332,6,l),
(325,6,l)
);
},
{
closed = 1;
nodes = (
(552,525,o),
(557,529,q),
(561,525,l),
(566,520,l),
(563,518,o),
(559,505,q),
(552,507,l),
(545,511,l)
);
},
{
closed = 1;
nodes = (
(568,522,l),
(561,522,l),
(554,522,l),
(554,525,l),
(561,525,l),
(568,525,l)
);
}
);
};
layerId = "478FDCC6-FEA9-4A0E-8E89-7826BBE8940B";
name = "12 Nov 21, 12:09";
shapes = (
{
closed = 1;
nodes = (
(128,513,l),
(110,505,l),
(340,-14,l),
(358,-6,l)
);
},
{
closed = 1;
nodes = (
(529,352,o),
(366,172,o),
(343,36,cs),
(342,26,l),
(361,23,l),
(363,32,ls),
(384,162,o),
(547,342,o),
(583,498,cs),
(585,508,l),
(565,512,l),
(563,502,ls)
);
}
);
width = 565;
}
);
unicode = 118;
},
{
glyphname = w;
lastChange = "2021-11-10 05:57:46 +0000";
layers = (
{
background = {
shapes = (
{
closed = 1;
nodes = (
(40,358,o),
(49,367,q),
(53,363,l),
(59,360,l),
(57,360,o),
(51,350,o),
(49,348,q),
(44,352,l),
(40,356,l)
);
},
{
closed = 1;
nodes = (
(70,386,o),
(143,455,o),
(154,466,q),
(154,466,o),
(173,485,o),
(188,498,o),
(207,511,o),
(214,510,qs),
(227,508,o),
(218,478,qs),
(211,457,o),
(211,457,o),
(199,433,q),
(194,436,l),
(188,438,l),
(190,442,o),
(194,451,o),
(197,459,o),
(199,461,qs),
(201,465,o),
(203,470,o),
(205,480,o),
(207,481,q),
(211,493,o),
(211,498,q),
(205,496,o),
(162,457,qs),
(151,448,o),
(79,376,o),
(57,360,q),
(53,363,l),
(49,369,l)
);
},
{
closed = 1;
nodes = (
(122,251,o),
(115,125,qs),
(115,116,o),
(111,80,o),
(111,71,qs),
(111,50,o),
(130,30,o),
(158,30,q),
(158,24,l),
(158,18,l),
(100,18,o),
(100,71,qs),
(100,80,o),
(104,118,o),
(104,125,qs),
(111,255,o),
(188,438,q),
(194,436,l),
(199,435,l)
);
},
{
closed = 1;
nodes = (
(162,33,o),
(173,39,o),
(182,47,o),
(190,52,o),
(201,62,o),
(205,67,o),
(218,80,o),
(220,84,o),
(233,101,o),
(235,103,qs),
(271,148,o),
(301,185,o),
(344,264,o),
(351,298,q),
(357,296,l),
(362,296,l),
(355,262,o),
(316,187,o),
(284,144,o),
(254,107,qs),
(248,99,o),
(244,95,qs),
(224,71,o),
(212,56,o),
(179,28,o),
(160,20,q),
(158,24,l),
(156,30,l)
);
},
{
closed = 1;
nodes = (
(357,287,o),
(349,272,o),
(344,260,o),
(340,242,o),
(336,230,o),
(334,212,o),
(334,200,o),
(334,180,o),
(334,168,o),
(334,146,o),
(334,140,qs),
(334,73,o),
(372,9,o),
(432,9,q),
(432,3,l),
(432,-2,l),
(366,-2,o),
(323,71,o),
(323,140,qs),
(323,144,o),
(321,178,o),
(323,187,o),
(323,217,o),
(325,230,o),
(331,255,o),
(336,272,o),
(345,290,o),
(351,300,q),
(357,296,l),
(360,294,l)
);
},
{
closed = 1;
nodes = (
(437,9,o),
(452,7,o),
(460,7,o),
(465,9,q),
(482,18,o),
(507,84,qs),
(546,198,o),
(533,361,q),
(539,361,l),
(546,361,l),
(557,197,o),
(518,80,qs),
(494,9,o),
(469,-2,qs),
(464,-4,o),
(450,-4,o),
(435,-2,o),
(432,-2,q),
(432,3,l),
(432,9,l)
);
},
{
closed = 1;
nodes = (
(524,438,o),
(518,450,qs),
(516,455,o),
(494,465,o),
(484,465,qs),
(475,466,o),
(475,461,q),
(469,461,l),
(464,461,l),
(464,478,o),
(484,478,qs),
(518,476,o),
(529,455,qs),
(535,442,o),
(540,412,o),
(544,367,o),
(546,363,q),
(539,361,l),
(533,361,l)
);
},
{
closed = 1;
nodes = (
(473,468,o),
(486,466,o),
(495,466,o),
(507,466,o),
(510,466,q),
(540,474,o),
(651,543,o),
(670,551,q),
(672,545,l),
(673,540,l),
(658,534,o),
(546,463,o),
(512,455,q),
(512,455,o),
(469,455,q),
(469,461,l),
(469,468,l)
);
}
);
};
layerId = m01;
shapes = (
{
closed = 1;
nodes = (
(32,358,l),
(46,344,l),
(209,498,l),
(195,512,l)
);
},
{
closed = 1;
nodes = (
(299,129,o),
(201,28,o),
(153,28,cs),
(127,28,o),
(114,41,o),
(114,80,cs),
(114,195,o),
(163,354,o),
(231,500,cs),
(235,509,l),
(217,517,l),
(213,508,ls),
(145,362,o),
(94,199,o),
(94,80,cs),
(94,31,o),
(117,8,o),
(153,8,cs),
(211,8,o),
(317,119,o),
(367,293,cs),
(369,303,l),
(350,308,l),
(347,299,ls)
);
},
{
closed = 1;
nodes = (
(465,477,o),
(470,481,o),
(481,481,cs),
(513,481,o),
(537,434,o),
(537,257,cs),
(537,62,o),
(495,10,o),
(429,10,cs),
(351,10,o),
(324,41,o),
(324,243,cs),
(324,253,l),
(304,253,l),
(304,243,ls),
(304,31,o),
(341,-10,o),
(429,-10,cs),
(507,-10,o),
(557,52,o),
(557,257,cs),
(557,441,o),
(527,501,o),
(481,501,cs),
(462,501,o),
(445,488,o),
(445,468,cs),
(445,458,l),
(465,458,l),
(465,468,ls)
);
},
{
closed = 1;
nodes = (
(604,507,o),
(487,463,o),
(466,463,cs),
(456,463,l),
(456,443,l),
(466,443,ls),
(491,443,o),
(614,489,o),
(669,531,cs),
(677,537,l),
(665,553,l),
(657,547,ls)
);
}
);
width = 648;
},
{
background = {
shapes = (
{
closed = 1;
nodes = (
(60,358,o),
(69,367,q),
(73,363,l),
(79,360,l),
(77,360,o),
(71,350,o),
(69,348,q),
(64,352,l),
(60,356,l)
);
},
{
closed = 1;
nodes = (
(90,386,o),
(163,455,o),
(174,466,q),
(174,466,o),
(193,485,o),
(208,498,o),
(227,511,o),
(234,510,qs),
(247,508,o),
(238,478,qs),
(231,457,o),
(231,457,o),
(219,433,q),
(214,436,l),
(208,438,l),
(210,442,o),
(214,451,o),
(217,459,o),
(219,461,qs),
(221,465,o),
(223,470,o),
(225,480,o),
(227,481,q),
(231,493,o),
(231,498,q),
(225,496,o),
(182,457,qs),
(171,448,o),
(99,376,o),
(77,360,q),
(73,363,l),
(69,369,l)
);
},
{
closed = 1;
nodes = (
(142,251,o),
(135,125,qs),
(135,116,o),
(131,80,o),
(131,71,qs),
(131,50,o),
(150,30,o),
(178,30,q),
(178,24,l),
(178,18,l),
(120,18,o),
(120,71,qs),
(120,80,o),
(124,118,o),
(124,125,qs),
(131,255,o),
(208,438,q),
(214,436,l),
(219,435,l)
);
},
{
closed = 1;
nodes = (
(182,33,o),
(193,39,o),
(202,47,o),
(210,52,o),
(221,62,o),
(225,67,o),
(238,80,o),
(240,84,o),
(253,101,o),
(255,103,qs),
(291,148,o),
(321,185,o),
(364,264,o),
(371,298,q),
(377,296,l),
(382,296,l),
(375,262,o),
(336,187,o),
(304,144,o),
(274,107,qs),
(268,99,o),
(264,95,qs),
(244,71,o),
(232,56,o),
(199,28,o),
(180,20,q),
(178,24,l),
(176,30,l)
);
},
{
closed = 1;
nodes = (
(377,287,o),
(369,272,o),
(364,260,o),
(360,242,o),
(356,230,o),
(354,212,o),
(354,200,o),
(354,180,o),
(354,168,o),
(354,146,o),
(354,140,qs),
(354,73,o),
(392,9,o),
(452,9,q),
(452,3,l),
(452,-2,l),
(386,-2,o),
(343,71,o),
(343,140,qs),
(343,144,o),
(341,178,o),
(343,187,o),
(343,217,o),
(345,230,o),
(351,255,o),
(356,272,o),
(365,290,o),
(371,300,q),
(377,296,l),
(380,294,l)
);
},
{
closed = 1;
nodes = (
(457,9,o),
(472,7,o),
(480,7,o),
(485,9,q),
(502,18,o),
(527,84,qs),
(566,198,o),
(553,361,q),
(559,361,l),
(566,361,l),
(577,197,o),
(538,80,qs),
(514,9,o),
(489,-2,qs),
(484,-4,o),
(470,-4,o),
(455,-2,o),
(452,-2,q),
(452,3,l),
(452,9,l)
);
},
{
closed = 1;
nodes = (
(544,438,o),
(538,450,qs),
(536,455,o),
(514,465,o),
(504,465,qs),
(495,466,o),
(495,461,q),
(489,461,l),
(484,461,l),
(484,478,o),
(504,478,qs),
(538,476,o),
(549,455,qs),
(555,442,o),
(560,412,o),
(564,367,o),
(566,363,q),
(559,361,l),
(553,361,l)
);
},
{
closed = 1;
nodes = (
(493,468,o),
(506,466,o),
(515,466,o),
(527,466,o),
(530,466,q),
(560,474,o),
(671,543,o),
(690,551,q),
(692,545,l),
(693,540,l),
(678,534,o),
(566,463,o),
(532,455,q),
(532,455,o),
(489,455,q),
(489,461,l),
(489,468,l)
);
}
);
};
layerId = m002;
shapes = (
{
closed = 1;
nodes = (
(-10,359,l),
(75,274,l),
(311,497,l),
(226,582,l)
);
},
{
closed = 1;
nodes = (
(302,155,o),
(238,78,o),
(214,78,cs),
(200,78,o),
(194,85,o),
(194,98,cs),
(194,201,o),
(246,339,o),
(307,479,cs),
(331,534,l),
(222,583,l),
(197,529,ls),
(128,379,o),
(74,208,o),
(74,86,cs),
(74,-1,o),
(126,-42,o),
(203,-42,cs),
(292,-42,o),
(411,89,o),
(466,281,c),
(477,339,l),
(367,368,l),
(349,314,l)
);
},
{
closed = 1;
nodes = (
(527,418,o),
(527,421,o),
(531,421,cs),
(536,421,o),
(537,412,o),
(537,257,cs),
(537,87,o),
(519,60,o),
(479,60,cs),
(445,60,o),
(424,85,o),
(424,243,cs),
(424,303,l),
(304,303,l),
(304,243,ls),
(304,0,o),
(361,-60,o),
(479,-60,cs),
(589,-60,o),
(657,24,o),
(657,257,cs),
(657,479,o),
(609,551,o),
(531,551,cs),
(484,551,o),
(445,516,o),
(445,468,cs),
(445,408,l),
(527,409,l),
(527,413,ls)
);
},
{
closed = 1;
nodes = (
(630,551,o),
(546,513,o),
(495,513,cs),
(466,513,l),
(466,393,l),
(502,393,ls),
(584,393,o),
(689,446,o),
(749,491,cs),
(797,527,l),
(725,623,l),
(677,587,ls)
);
}
);
width = 738;
}
);
unicode = 119;
},
{
glyphname = x;
lastChange = "2021-11-14 04:09:43 +0000";
layers = (
{
background = {
shapes = (
{
closed = 1;
nodes = (
(33,400,o),
(42,402,q),
(42,395,l),
(45,389,l),
(35,386,o),
(26,384,q),
(26,393,l),
(24,400,l)
);
},
{
closed = 1;
nodes = (
(74,402,o),
(136,345,o),
(195,268,o),
(211,257,qs),
(236,241,o),
(345,211,o),
(361,204,qs),
(381,195,o),
(427,170,o),
(479,138,o),
(493,129,q),
(488,125,l),
(486,118,l),
(472,125,o),
(434,150,o),
(406,166,o),
(372,184,o),
(356,191,qs),
(338,198,o),
(277,213,o),
(224,232,o),
(202,245,qs),
(186,257,o),
(76,389,o),
(42,389,q),
(42,395,l),
(42,402,l)
);
},
{
closed = 1;
nodes = (
(538,100,o),
(554,66,q),
(547,61,l),
(540,59,l),
(527,91,o),
(486,118,q),
(488,125,l),
(493,129,l)
);
},
{
closed = 1;
nodes = (
(17,0,o),
(26,4,o),
(29,4,q),
(31,-3,l),
(35,-9,l),
(31,-9,o),
(22,-14,o),
(20,-14,q),
(17,-9,l),
(15,-3,l)
);
},
{
closed = 1;
nodes = (
(49,9,o),
(99,47,o),
(133,86,o),
(186,145,o),
(192,154,qs),
(202,166,o),
(236,202,o),
(265,234,o),
(279,248,qs),
(283,252,o),
(493,425,o),
(504,434,qs),
(506,436,o),
(559,480,o),
(584,495,o),
(629,527,o),
(668,546,o),
(688,548,q),
(688,541,l),
(691,534,l),
(675,532,o),
(643,516,o),
(615,502,o),
(577,475,o),
(556,459,o),
(518,427,o),
(513,423,qs),
(506,418,o),
(399,329,o),
(290,241,o),
(288,238,qs),
(270,220,o),
(206,150,o),
(204,145,q),
(195,136,o),
(161,93,o),
(131,59,o),
(92,20,o),
(51,-5,o),
(33,-9,q),
(31,-3,l),
(31,4,l)
);
},
{
closed = 1;
nodes = (
(686,550,o),
(693,552,q),
(693,555,o),
(693,555,q),
(693,557,l),
(697,561,l),
(702,566,l),
(718,550,o),
(693,536,q),
(688,541,l),
(684,546,l)
);
}
);
};
layerId = m01;
shapes = (
{
closed = 1;
nodes = (
(517,-15,o),
(552,2,o),
(591,41,cs),
(778,228,l),
(765,241,l),
(577,53,ls),
(538,14,o),
(505,5,o),
(482,5,cs),
(448,5,o),
(420,26,o),
(419,78,cs),
(410,438,ls),
(409,490,o),
(381,515,o),
(344,515,cs),
(311,515,o),
(283,492,o),
(244,453,cs),
(-23,186,l),
(-10,173,l),
(258,441,ls),
(297,480,o),
(322,495,o),
(343,495,cs),
(369,495,o),
(389,479,o),
(390,438,cs),
(399,78,ls),
(401,15,o),
(439,-15,o),
(481,-15,cs)
);
},
{
closed = 1;
nodes = (
(202,-6,o),
(304,123,o),
(378,246,c),
(360,256,l),
(288,135,o),
(192,14,o),
(77,14,c),
(77,-6,l)
);
},
{
closed = 1;
nodes = (
(532,423,o),
(604,490,o),
(658,490,cs),
(684,490,o),
(704,479,o),
(709,438,c),
(727,442,l),
(727,487,o),
(697,510,o),
(658,510,cs),
(598,510,o),
(518,438,o),
(426,282,c),
(444,272,l)
);
}
);
width = 733;
},
{
background = {
shapes = (
{
closed = 1;
nodes = (
(33,400,o),
(42,402,q),
(42,395,l),
(45,389,l),
(35,386,o),
(26,384,q),
(26,393,l),
(24,400,l)
);
},
{
closed = 1;
nodes = (
(74,402,o),
(136,345,o),
(195,268,o),
(211,257,qs),
(236,241,o),
(345,211,o),
(361,204,qs),
(381,195,o),
(427,170,o),
(479,138,o),
(493,129,q),
(488,125,l),
(486,118,l),
(472,125,o),
(434,150,o),
(406,166,o),
(372,184,o),
(356,191,qs),
(338,198,o),
(277,213,o),
(224,232,o),
(202,245,qs),
(186,257,o),
(76,389,o),
(42,389,q),
(42,395,l),
(42,402,l)
);
},
{
closed = 1;
nodes = (
(538,100,o),
(554,66,q),
(547,61,l),
(540,59,l),
(527,91,o),
(486,118,q),
(488,125,l),
(493,129,l)
);
},
{
closed = 1;
nodes = (
(17,0,o),
(26,4,o),
(29,4,q),
(31,-3,l),
(35,-9,l),
(31,-9,o),
(22,-14,o),
(20,-14,q),
(17,-9,l),
(15,-3,l)
);
},
{
closed = 1;
nodes = (
(49,9,o),
(99,47,o),
(133,86,o),
(186,145,o),
(192,154,qs),
(202,166,o),
(236,202,o),
(265,234,o),
(279,248,qs),
(283,252,o),
(493,425,o),
(504,434,qs),
(506,436,o),
(559,480,o),
(584,495,o),
(629,527,o),
(668,546,o),
(688,548,q),
(688,541,l),
(691,534,l),
(675,532,o),
(643,516,o),
(615,502,o),
(577,475,o),
(556,459,o),
(518,427,o),
(513,423,qs),
(506,418,o),
(399,329,o),
(290,241,o),
(288,238,qs),
(270,220,o),
(206,150,o),
(204,145,q),
(195,136,o),
(161,93,o),
(131,59,o),
(92,20,o),
(51,-5,o),
(33,-9,q),
(31,-3,l),
(31,4,l)
);
},
{
closed = 1;
nodes = (
(686,550,o),
(693,552,q),
(693,555,o),
(693,555,q),
(693,557,l),
(697,561,l),
(702,566,l),
(718,550,o),
(693,536,q),
(688,541,l),
(684,546,l)
);
}
);
};
layerId = m002;
shapes = (
{
closed = 1;
nodes = (
(583,187,o),
(450,259,o),
(338,278,cs),
(259,292,o),
(265,433,o),
(94,445,cs),
(35,451,l),
(23,331,l),
(84,325,ls),
(142,322,o),
(128,194,o),
(316,160,cs),
(406,144,o),
(497,95,o),
(529,38,cs),
(559,-15,l),
(664,44,l),
(635,97,ls)
);
},
{
closed = 1;
nodes = (
(100,-53,o),
(157,-20,o),
(222,40,cs),
(751,531,l),
(673,622,l),
(140,128,ls),
(88,79,o),
(60,63,o),
(20,58,cs),
(-39,52,l),
(-27,-68,l),
(34,-62,ls)
);
}
);
width = 679;
},
{
associatedMasterId = m01;
background = {
shapes = (
{
closed = 1;
nodes = (
(33,400,o),
(42,402,q),
(42,395,l),
(45,389,l),
(35,386,o),
(26,384,q),
(26,393,l),
(24,400,l)
);
},
{
closed = 1;
nodes = (
(74,402,o),
(136,345,o),
(195,268,o),
(211,257,qs),
(236,241,o),
(345,211,o),
(361,204,qs),
(381,195,o),
(427,170,o),
(479,138,o),
(493,129,q),
(488,125,l),
(486,118,l),
(472,125,o),
(434,150,o),
(406,166,o),
(372,184,o),
(356,191,qs),
(338,198,o),
(277,213,o),
(224,232,o),
(202,245,qs),
(186,257,o),
(76,389,o),
(42,389,q),
(42,395,l),
(42,402,l)
);
},
{
closed = 1;
nodes = (
(538,100,o),
(554,66,q),
(547,61,l),
(540,59,l),
(527,91,o),
(486,118,q),
(488,125,l),
(493,129,l)
);
},
{
closed = 1;
nodes = (
(17,0,o),
(26,4,o),
(29,4,q),
(31,-3,l),
(35,-9,l),
(31,-9,o),
(22,-14,o),
(20,-14,q),
(17,-9,l),
(15,-3,l)
);
},
{
closed = 1;
nodes = (
(49,9,o),
(99,47,o),
(133,86,o),
(186,145,o),
(192,154,qs),
(202,166,o),
(236,202,o),
(265,234,o),
(279,248,qs),
(283,252,o),
(493,425,o),
(504,434,qs),
(506,436,o),
(559,480,o),
(584,495,o),
(629,527,o),
(668,546,o),
(688,548,q),
(688,541,l),
(691,534,l),
(675,532,o),
(643,516,o),
(615,502,o),
(577,475,o),
(556,459,o),
(518,427,o),
(513,423,qs),
(506,418,o),
(399,329,o),
(290,241,o),
(288,238,qs),
(270,220,o),
(206,150,o),
(204,145,q),
(195,136,o),
(161,93,o),
(131,59,o),
(92,20,o),
(51,-5,o),
(33,-9,q),
(31,-3,l),
(31,4,l)
);
},
{
closed = 1;
nodes = (
(686,550,o),
(693,552,q),
(693,555,o),
(693,555,q),
(693,557,l),
(697,561,l),
(702,566,l),
(718,550,o),
(693,536,q),
(688,541,l),
(684,546,l)
);
}
);
};
layerId = "06374BFB-8071-4A31-B224-096977231D5F";
name = "14 Nov 21, 15:06";
shapes = (
{
closed = 1;
nodes = (
(518,147,o),
(400,212,o),
(299,229,cs),
(177,251,o),
(183,387,o),
(60,395,cs),
(50,396,l),
(48,376,l),
(58,375,ls),
(167,368,o),
(153,235,o),
(295,209,cs),
(393,192,o),
(504,132,o),
(543,62,cs),
(548,53,l),
(566,63,l),
(561,72,ls)
);
},
{
closed = 1;
nodes = (
(52,-5,o),
(99,22,o),
(158,77,cs),
(652,535,l),
(639,550,l),
(144,91,ls),
(87,38,o),
(46,15,o),
(-4,8,cs),
(-14,7,l),
(-12,-13,l),
(-2,-12,ls)
);
}
);
width = 619;
}
);
unicode = 120;
},
{
glyphname = y;
lastChange = "2021-11-10 05:58:24 +0000";
layers = (
{
background = {
shapes = (
{
closed = 1;
nodes = (
(149,505,l),
(155,505,l),
(160,505,l),
(160,503,l),
(155,503,l),
(149,503,l)
);
},
{
closed = 1;
nodes = (
(160,475,o),
(133,371,o),
(133,344,qs),
(133,279,o),
(174,264,qs),
(182,260,o),
(209,258,qs),
(239,256,o),
(282,268,q),
(284,262,l),
(286,256,l),
(241,244,o),
(207,246,qs),
(178,248,o),
(170,252,qs),
(119,271,o),
(119,344,qs),
(119,375,o),
(149,479,o),
(149,505,q),
(155,505,l),
(160,505,l)
);
},
{
closed = 1;
nodes = (
(408,315,o),
(431,405,qs),
(445,454,o),
(431,462,q),
(435,466,l),
(439,472,l),
(445,468,o),
(451,456,o),
(453,444,o),
(451,428,o),
(449,419,o),
(443,403,o),
(443,401,q),
(417,307,o),
(286,256,q),
(284,262,l),
(282,268,l)
);
},
{
closed = 1;
nodes = (
(429,460,o),
(419,456,o),
(413,448,o),
(409,440,qs),
(406,434,o),
(404,432,qs),
(370,381,o),
(351,317,qs),
(345,293,o),
(290,83,o),
(241,-48,o),
(204,-99,q),
(200,-95,l),
(194,-91,l),
(229,-42,o),
(278,85,o),
(333,297,o),
(339,320,qs),
(358,387,o),
(394,438,q),
(394,440,o),
(404,454,o),
(408,460,o),
(417,470,o),
(427,473,o),
(435,473,q),
(435,466,l),
(435,460,l)
);
},
{
closed = 1;
nodes = (
(127,-176,o),
(64,-197,qs),
(43,-205,o),
(29,-207,qs),
(-16,-209,o),
(-18,-146,qs),
(-20,-117,o),
(-18,-111,qs),
(-18,-109,o),
(-12,-95,o),
(-4,-80,o),
(5,-64,o),
(15,-46,o),
(23,-33,o),
(29,-23,o),
(29,-21,q),
(33,-25,l),
(39,-27,l),
(-4,-107,o),
(-6,-113,qs),
(-8,-117,o),
(-6,-146,qs),
(-6,-166,o),
(4,-187,o),
(17,-195,o),
(29,-195,qs),
(41,-193,o),
(60,-187,qs),
(121,-166,o),
(196,-91,q),
(200,-95,l),
(204,-99,l)
);
},
{
closed = 1;
nodes = (
(111,97,o),
(276,205,qs),
(423,301,o),
(496,336,qs),
(519,348,o),
(608,381,o),
(613,381,q),
(615,377,l),
(617,371,l),
(604,366,o),
(557,348,o),
(517,334,o),
(502,324,q),
(429,289,o),
(282,193,qs),
(119,87,o),
(39,-29,q),
(33,-25,l),
(29,-21,l)
);
}
);
};
layerId = m01;
shapes = (
{
closed = 1;
nodes = (
(442,358,o),
(334,264,o),
(220,264,cs),
(158,264,o),
(129,293,o),
(129,344,cs),
(129,393,o),
(149,452,o),
(165,502,cs),
(168,511,l),
(149,518,l),
(145,508,ls),
(129,458,o),
(109,397,o),
(109,344,cs),
(109,284,o),
(149,244,o),
(220,244,cs),
(342,244,o),
(462,346,o),
(462,458,cs),
(462,468,l),
(442,468,l),
(442,458,ls)
);
},
{
closed = 1;
nodes = (
(255,243,o),
(-21,0,o),
(-21,-139,cs),
(-21,-179,o),
(-2,-210,o),
(37,-210,cs),
(131,-210,o),
(274,-88,o),
(323,204,cs),
(346,343,o),
(381,425,o),
(440,473,cs),
(448,480,l),
(435,495,l),
(428,489,ls),
(364,437,o),
(326,349,o),
(303,208,cs),
(256,-77,o),
(121,-190,o),
(37,-190,cs),
(10,-190,o),
(-1,-172,o),
(-1,-139,cs),
(-1,-12,o),
(266,225,o),
(617,369,cs),
(626,373,l),
(618,391,l),
(609,387,ls)
);
}
);
width = 510;
},
{
background = {
shapes = (
{
closed = 1;
nodes = (
(149,505,l),
(155,505,l),
(160,505,l),
(160,503,l),
(155,503,l),
(149,503,l)
);
},
{
closed = 1;
nodes = (
(160,475,o),
(133,371,o),
(133,344,qs),
(133,279,o),
(174,264,qs),
(182,260,o),
(209,258,qs),
(239,256,o),
(282,268,q),
(284,262,l),
(286,256,l),
(241,244,o),
(207,246,qs),
(178,248,o),
(170,252,qs),
(119,271,o),
(119,344,qs),
(119,375,o),
(149,479,o),
(149,505,q),
(155,505,l),
(160,505,l)
);
},
{
closed = 1;
nodes = (
(408,315,o),
(431,405,qs),
(445,454,o),
(431,462,q),
(435,466,l),
(439,472,l),
(445,468,o),
(451,456,o),
(453,444,o),
(451,428,o),
(449,419,o),
(443,403,o),
(443,401,q),
(417,307,o),
(286,256,q),
(284,262,l),
(282,268,l)
);
},
{
closed = 1;
nodes = (
(429,460,o),
(419,456,o),
(413,448,o),
(409,440,qs),
(406,434,o),
(404,432,qs),
(370,381,o),
(351,317,qs),
(345,293,o),
(290,83,o),
(241,-48,o),
(204,-99,q),
(200,-95,l),
(194,-91,l),
(229,-42,o),
(278,85,o),
(333,297,o),
(339,320,qs),
(358,387,o),
(394,438,q),
(394,440,o),
(404,454,o),
(408,460,o),
(417,470,o),
(427,473,o),
(435,473,q),
(435,466,l),
(435,460,l)
);
},
{
closed = 1;
nodes = (
(127,-176,o),
(64,-197,qs),
(43,-205,o),
(29,-207,qs),
(-16,-209,o),
(-18,-146,qs),
(-20,-117,o),
(-18,-111,qs),
(-18,-109,o),
(-12,-95,o),
(-4,-80,o),
(5,-64,o),
(15,-46,o),
(23,-33,o),
(29,-23,o),
(29,-21,q),
(33,-25,l),
(39,-27,l),
(-4,-107,o),
(-6,-113,qs),
(-8,-117,o),
(-6,-146,qs),
(-6,-166,o),
(4,-187,o),
(17,-195,o),
(29,-195,qs),
(41,-193,o),
(60,-187,qs),
(121,-166,o),
(196,-91,q),
(200,-95,l),
(204,-99,l)
);
},
{
closed = 1;
nodes = (
(111,97,o),
(276,205,qs),
(423,301,o),
(496,336,qs),
(519,348,o),
(608,381,o),
(613,381,q),
(615,377,l),
(617,371,l),
(604,366,o),
(557,348,o),
(517,334,o),
(502,324,q),
(429,289,o),
(282,193,qs),
(119,87,o),
(39,-29,q),
(33,-25,l),
(29,-21,l)
);
}
);
};
layerId = m002;
shapes = (
{
closed = 1;
nodes = (
(422,381,o),
(347,314,o),
(254,314,cs),
(222,314,o),
(209,327,o),
(209,352,cs),
(209,391,o),
(228,439,o),
(243,486,cs),
(261,541,l),
(151,582,l),
(128,525,l),
(112,475,o),
(89,406,o),
(89,344,cs),
(89,256,o),
(151,194,o),
(250,194,cs),
(397,194,o),
(542,316,o),
(542,458,cs),
(542,518,l),
(422,518,l),
(422,458,ls)
);
},
{
closed = 1;
nodes = (
(258,273,o),
(-56,47,o),
(-56,-120,cs),
(-56,-201,o),
(11,-260,o),
(87,-260,cs),
(200,-260,o),
(349,-122,o),
(402,196,cs),
(424,329,o),
(454,393,o),
(502,435,cs),
(548,475,l),
(470,565,l),
(426,527,ls),
(353,464,o),
(308,366,o),
(284,216,cs),
(240,-50,o),
(147,-140,o),
(87,-140,cs),
(73,-140,o),
(64,-134,o),
(64,-120,cs),
(64,-19,o),
(320,184,o),
(667,323,c),
(722,348,l),
(673,457,l),
(619,433,ls)
);
}
);
width = 570;
}
);
unicode = 121;
},
{
glyphname = z;
lastChange = "2021-11-10 05:37:36 +0000";
layers = (
{
background = {
shapes = (
{
closed = 1;
nodes = (
(-3,391,o),
(-3,395,q),
(3,393,l),
(9,391,l),
(9,389,o),
(7,383,q),
(1,385,l),
(-5,387,l)
);
},
{
closed = 1;
nodes = (
(53,399,o),
(181,429,qs),
(445,489,o),
(577,447,q),
(577,441,l),
(575,437,l),
(443,477,o),
(183,417,qs),
(53,387,o),
(3,387,q),
(3,393,l),
(3,399,l)
);
},
{
closed = 1;
nodes = (
(581,447,o),
(611,433,o),
(629,419,o),
(635,411,qs),
(651,389,o),
(617,371,qs),
(591,359,o),
(499,317,o),
(479,307,qs),
(439,287,o),
(353,237,o),
(237,167,o),
(213,151,q),
(209,157,l),
(205,163,l),
(231,177,o),
(345,247,o),
(433,297,o),
(475,319,qs),
(495,329,o),
(587,371,o),
(611,383,qs),
(623,389,o),
(629,395,o),
(625,403,qs),
(621,411,o),
(573,437,q),
(577,441,l),
(579,447,l)
);
},
{
closed = 1;
nodes = (
(165,121,o),
(165,121,q),
(159,119,o),
(135,103,o),
(129,99,qs),
(77,67,o),
(61,37,qs),
(47,13,o),
(55,11,qs),
(61,11,o),
(67,11,o),
(83,11,o),
(87,11,q),
(87,5,l),
(87,-1,l),
(53,-1,o),
(51,-1,qs),
(29,5,o),
(49,43,qs),
(67,77,o),
(121,109,q),
(125,113,o),
(137,119,o),
(145,123,o),
(155,129,o),
(159,133,q),
(159,133,o),
(205,163,q),
(209,157,l),
(213,151,l)
);
},
{
closed = 1;
nodes = (
(131,11,o),
(215,31,o),
(339,75,o),
(361,81,qs),
(473,113,o),
(541,125,qs),
(555,129,o),
(629,135,o),
(649,141,q),
(651,135,l),
(651,129,l),
(631,123,o),
(555,115,o),
(543,113,qs),
(475,101,o),
(365,69,qs),
(345,63,o),
(219,19,o),
(131,-1,o),
(87,-1,q),
(87,5,l),
(87,11,l)
);
},
{
closed = 1;
nodes = (
(665,145,o),
(671,153,q),
(673,159,l),
(675,165,l),
(689,159,o),
(675,137,o),
(653,129,q),
(651,135,l),
(649,141,l)
);
}
);
};
layerId = m01;
shapes = (
{
closed = 1;
nodes = (
(593,494,o),
(530,516,o),
(447,516,cs),
(370,516,o),
(203,467,o),
(89,445,cs),
(79,443,l),
(83,423,l),
(93,425,ls),
(207,447,o),
(372,496,o),
(447,496,cs),
(526,496,o),
(581,477,o),
(611,435,cs),
(617,427,l),
(633,439,l),
(627,447,ls)
);
},
{
closed = 1;
nodes = (
(60,48,o),
(99,87,o),
(184,140,cs),
(625,415,l),
(614,432,l),
(174,156,ls),
(86,103,o),
(42,58,o),
(27,-2,cs),
(25,-11,l),
(44,-16,l),
(47,-6,ls)
);
},
{
closed = 1;
nodes = (
(429,147,o),
(252,-3,o),
(54,-3,cs),
(44,-3,l),
(44,-23,l),
(54,-23,ls),
(260,-23,o),
(437,127,o),
(642,127,cs),
(652,127,l),
(652,147,l),
(642,147,ls)
);
}
);
width = 687;
},
{
background = {
shapes = (
{
closed = 1;
nodes = (
(-3,391,o),
(-3,395,q),
(3,393,l),
(9,391,l),
(9,389,o),
(7,383,q),
(1,385,l),
(-5,387,l)
);
},
{
closed = 1;
nodes = (
(53,399,o),
(181,429,qs),
(445,489,o),
(577,447,q),
(577,441,l),
(575,437,l),
(443,477,o),
(183,417,qs),
(53,387,o),
(3,387,q),
(3,393,l),
(3,399,l)
);
},
{
closed = 1;
nodes = (
(581,447,o),
(611,433,o),
(629,419,o),
(635,411,qs),
(651,389,o),
(617,371,qs),
(591,359,o),
(499,317,o),
(479,307,qs),
(439,287,o),
(353,237,o),
(237,167,o),
(213,151,q),
(209,157,l),
(205,163,l),
(231,177,o),
(345,247,o),
(433,297,o),
(475,319,qs),
(495,329,o),
(587,371,o),
(611,383,qs),
(623,389,o),
(629,395,o),
(625,403,qs),
(621,411,o),
(573,437,q),
(577,441,l),
(579,447,l)
);
},
{
closed = 1;
nodes = (
(165,121,o),
(165,121,q),
(159,119,o),
(135,103,o),
(129,99,qs),
(77,67,o),
(61,37,qs),
(47,13,o),
(55,11,qs),
(61,11,o),
(67,11,o),
(83,11,o),
(87,11,q),
(87,5,l),
(87,-1,l),
(53,-1,o),
(51,-1,qs),
(29,5,o),
(49,43,qs),
(67,77,o),
(121,109,q),
(125,113,o),
(137,119,o),
(145,123,o),
(155,129,o),
(159,133,q),
(159,133,o),
(205,163,q),
(209,157,l),
(213,151,l)
);
},
{
closed = 1;
nodes = (
(131,11,o),
(215,31,o),
(339,75,o),
(361,81,qs),
(473,113,o),
(541,125,qs),
(555,129,o),
(629,135,o),
(649,141,q),
(651,135,l),
(651,129,l),
(631,123,o),
(555,115,o),
(543,113,qs),
(475,101,o),
(365,69,qs),
(345,63,o),
(219,19,o),
(131,-1,o),
(87,-1,q),
(87,5,l),
(87,11,l)
);
},
{
closed = 1;
nodes = (
(665,145,o),
(671,153,q),
(673,159,l),
(675,165,l),
(689,159,o),
(675,137,o),
(653,129,q),
(651,135,l),
(649,141,l)
);
}
);
};
layerId = m002;
shapes = (
{
closed = 1;
nodes = (
(652,539,o),
(572,566,o),
(477,566,cs),
(393,566,o),
(221,516,o),
(109,494,cs),
(50,482,l),
(74,364,l),
(133,376,ls),
(249,398,o),
(409,446,o),
(477,446,cs),
(548,446,o),
(580,435,o),
(601,406,cs),
(637,357,l),
(733,429,l),
(697,477,ls)
);
},
{
closed = 1;
nodes = (
(135,22,o),
(159,47,o),
(240,98,cs),
(725,399,l),
(659,501,l),
(178,199,ls),
(82,141,o),
(27,86,o),
(8,9,cs),
(-4,-47,l),
(108,-77,l),
(125,-19,ls)
);
},
{
closed = 1;
nodes = (
(441,197,o),
(264,47,o),
(84,47,cs),
(24,47,l),
(24,-73,l),
(84,-73,ls),
(308,-73,o),
(485,77,o),
(672,77,cs),
(732,77,l),
(732,197,l),
(672,197,ls)
);
}
);
width = 747;
}
);
unicode = 122;
},
{
glyphname = .notdef;
lastChange = "2022-08-24 07:56:52 +0000";
layers = (
{
layerId = m01;
shapes = (
{
closed = 1;
nodes = (
(530,0,l),
(784,700,l),
(244,700,l),
(-10,0,l)
);
},
{
closed = 1;
nodes = (
(258,680,l),
(755,680,l),
(516,20,l),
(19,20,l)
);
},
{
closed = 1;
nodes = (
(526,10,l),
(271,690,l),
(248,690,l),
(503,10,l)
);
},
{
closed = 1;
nodes = (
(30,10,l),
(775,690,l),
(744,690,l),
(-1,10,l)
);
}
);
width = 701;
},
{
layerId = m002;
width = 600;
}
);
},
{
glyphname = period;
lastChange = "2021-11-14 02:12:04 +0000";
layers = (
{
layerId = m01;
shapes = (
{
closed = 1;
nodes = (
(85,123,l),
(130,117,o),
(148,102,o),
(148,78,cs),
(148,45,o),
(103,11,o),
(49,11,cs),
(20,11,o),
(8,26,o),
(8,43,cs),
(8,63,o),
(26,84,o),
(87,93,c),
(83,111,l),
(16,102,o),
(-12,74,o),
(-12,43,cs),
(-12,12,o),
(13,-8,o),
(49,-8,cs),
(110,-8,o),
(168,33,o),
(168,79,cs),
(168,111,o),
(141,132,o),
(92,139,c)
);
}
);
width = 294;
},
{
layerId = m002;
width = 600;
}
);
unicode = 46;
},
{
glyphname = comma;
lastChange = "2021-11-14 04:05:25 +0000";
layers = (
{
layerId = m01;
shapes = (
{
closed = 1;
nodes = (
(105,21,l),
(67,20,o),
(48,32,o),
(48,54,cs),
(48,81,o),
(79,110,o),
(118,110,c),
(118,129,l),
(72,129,o),
(28,92,o),
(28,53,cs),
(28,22,o),
(55,3,o),
(104,3,c)
);
},
{
closed = 1;
nodes = (
(126,110,l),
(138,96,o),
(144,77,o),
(144,58,cs),
(144,11,o),
(91,-67,o),
(-90,-136,c),
(-84,-155,l),
(91,-92,o),
(164,-8,o),
(164,58,cs),
(164,82,o),
(157,102,o),
(143,121,c)
);
}
